<?xml version="1.0" encoding="utf-8"?>
<!-- Generator: Adobe Illustrator 27.5.0, SVG Export Plug-In . SVG Version: 6.00 Build 0)  -->
<svg version="1.1" id="Слой_1" xmlns="http://www.w3.org/2000/svg" xmlns:xlink="http://www.w3.org/1999/xlink" x="0px" y="0px"
	 viewBox="0 0 2000 2000" style="enable-background:new 0 0 2000 2000;" xml:space="preserve">
<rect style="fill:#FFFFFF;" width="2000" height="2000"/>
<g>
	<rect x="399.901" y="689.491" style="fill:#394458;" width="30.306" height="194.313"/>
	<path style="fill:#DBE4EB;" d="M871.684,884.782H420.715V616.513h409.259c23.036,0,41.709,18.674,41.709,41.71V884.782z"/>
	<path style="fill:#DBE4EB;" d="M411.722,655.058c-4.111,0-108.226-0.771-114.756,0s-55.978,99.444-55.978,99.444
		S133.784,770.69,134.25,770.69c0.467,0-10.839-0.771-13.666,20.043c-2.827,20.814,0,94.048,0,94.048h291.138V655.058z"/>
	<rect x="111.72" y="807.693" style="fill:#892121;" width="7.452" height="30.744"/>
	<path style="fill:#DBE4EB;" d="M111.72,810.773c0,0-9.207,0.356-9.646,11.454c-0.494,12.475,9.646,13.728,9.646,13.728V810.773z"/>
	<path style="fill:#FFFFFF;" d="M104.336,818.389c-0.491,1.44-0.539,2.995-0.44,4.513c0.037,0.573,0.099,1.16,0.362,1.671
		c0.263,0.51,0.771,0.932,1.344,0.935c0.851,0.003,1.431-0.84,1.81-1.602c0.292-0.587,0.56-1.186,0.828-1.786
		c0.325-0.725,0.649-1.451,0.974-2.177c0.294-0.659,0.592-1.327,0.709-2.039c0.239-1.462-0.813-3.418-2.553-3.02
		C105.914,815.217,104.778,817.097,104.336,818.389z"/>
	<path style="fill:#FFFFFF;" d="M147.174,846.498h14.827c0,0,4.117-13.946,23.974-21.421c12.97-4.883,31.871-4.865,31.871-4.865
		l0.314-5.482c0,0-23.577-3.339-44.917,5.522C155.299,827.702,147.174,846.498,147.174,846.498z"/>
	<path style="fill:#FFFFFF;" d="M638.889,846.498h14.827c0,0,4.117-13.946,23.974-21.421c12.969-4.883,31.87-4.865,31.87-4.865
		l0.315-5.482c0,0-23.577-3.339-44.917,5.522C647.015,827.702,638.889,846.498,638.889,846.498z"/>
	<path style="fill:#FFFFFF;" d="M840.692,634.647H431.669c-2.417,0-4.396-1.978-4.396-4.396v-2.771c0-2.418,1.979-4.396,4.396-4.396
		h409.022c2.418,0,4.396,1.979,4.396,4.396v2.771C845.088,632.669,843.11,634.647,840.692,634.647z"/>
	<path style="fill:#3F48EF;" d="M337.689,625.682c-0.686-1.37-13.02-1.199-14.733,0c-1.713,1.199-3.426,16.446-3.426,16.446h20.728
		C340.258,642.127,338.374,627.052,337.689,625.682z"/>
	
		<rect x="325.639" y="633.962" transform="matrix(-1.836970e-16 1 -1 -1.836970e-16 975.2184 316.488)" style="fill:#892121;" width="7.452" height="23.783"/>
	<path style="fill:#3792ED;" d="M322.511,635.426c-0.156,0.699-0.29,1.506,0.154,2.068c0.27,0.342,0.697,0.511,1.104,0.666
		c0.947,0.36,2.138,0.677,2.871-0.022c0.374-0.357,0.511-0.89,0.621-1.394c0.486-2.227,2.29-8.026-0.702-9.196
		C323.188,626.229,322.954,633.438,322.511,635.426z"/>
	<path style="fill:#394458;" d="M298.792,671.755l-35.451,66.835c-2.9,5.468,1.064,12.058,7.253,12.058h89.504
		c4.543,0,8.222-3.688,8.211-8.231l-0.161-66.834c-0.011-4.527-3.684-8.191-8.211-8.191h-53.892
		C303.007,667.392,300.216,669.07,298.792,671.755z"/>
	<path d="M269.788,745.391l35.451-66.835c1.424-2.685,4.214-4.363,7.253-4.363h53.892c0.615,0,1.211,0.073,1.788,0.201
		c-0.628-3.913-4.009-6.904-8.097-6.904h-53.892c-3.039,0-5.83,1.679-7.253,4.363l-35.451,66.834
		c-2.607,4.916,0.334,10.734,5.451,11.861C268.653,748.874,268.893,747.08,269.788,745.391z"/>
	<path style="fill:#CE332F;" d="M133.935,770.688c-0.316-0.025-10.943-0.045-13.671,20.045c-0.246,1.812-0.449,4.029-0.615,6.553
		h291.753v-42.784H240.667C240.667,754.502,134.513,770.532,133.935,770.688z"/>
	<rect x="119.648" y="803.65" style="fill:#CE332F;" width="292.073" height="4.043"/>
	<rect x="420.715" y="803.65" style="fill:#CE332F;" width="450.968" height="4.043"/>
	<rect x="420.715" y="754.502" style="fill:#CE332F;" width="450.968" height="38.544"/>
	<rect x="420.715" y="852.919" style="fill:#CE332F;" width="450.968" height="31.863"/>
	<rect x="119.648" y="852.919" style="fill:#CE332F;" width="292.073" height="31.863"/>
	<g>
		<path style="fill:#797D7F;" d="M708.69,828.44c-31.257,0-56.596,25.339-56.596,56.596h113.192
			C765.286,853.779,739.947,828.44,708.69,828.44z"/>
		<g>
			<circle style="fill:#383F4C;" cx="708.346" cy="889.587" r="51.536"/>
			<path d="M739.025,848.176c10.771,9.446,17.572,23.307,17.572,38.758c0,28.462-23.074,51.536-51.536,51.536
				c-11.494,0-22.108-3.764-30.68-10.125c9.069,7.954,20.953,12.778,33.964,12.778c28.462,0,51.536-23.074,51.536-51.536
				C759.882,872.619,751.68,857.567,739.025,848.176z"/>
			
				<ellipse transform="matrix(0.1602 -0.9871 0.9871 0.1602 -283.2188 1446.2902)" style="fill:#4D5768;" cx="708.346" cy="889.587" rx="40.294" ry="40.294"/>
			<circle style="fill:#383F4C;" cx="707.176" cy="888.417" r="32.121"/>
			<circle style="fill:#677589;" cx="708.346" cy="889.587" r="30.951"/>
			<circle style="fill:#7A8BA0;" cx="708.346" cy="889.587" r="28.612"/>
			<path style="opacity:0.22;fill:#FFFFFF;" d="M690.662,875.44c-3.572,4.486-4.646,10.338-4.499,16.071
				c0.083,3.237,0.956,6.608,3.216,8.927c2.261,2.319,6.138,3.231,8.842,1.448c2.427-1.6,3.273-4.75,3.533-7.646
				c0.26-2.895,0.149-5.928,1.396-8.554c1.541-3.242,4.875-5.247,8.225-6.537c1.768-0.681,3.628-1.236,5.139-2.38
				c6.688-5.06,2.306-9.847-7.787-9.847C701.525,866.924,696.15,868.547,690.662,875.44z"/>
		</g>
	</g>
	<path style="fill:#797D7F;" d="M216.996,828.44c-31.257,0-56.596,25.339-56.596,56.596h113.191
		C273.592,853.779,248.253,828.44,216.996,828.44z"/>
	<g>
		<circle style="fill:#383F4C;" cx="216.651" cy="889.587" r="51.536"/>
		<path d="M247.331,848.176c10.77,9.446,17.572,23.307,17.572,38.758c0,28.462-23.073,51.536-51.536,51.536
			c-11.494,0-22.108-3.764-30.68-10.125c9.07,7.954,20.953,12.778,33.964,12.778c28.463,0,51.536-23.074,51.536-51.536
			C268.187,872.619,259.985,857.567,247.331,848.176z"/>
		
			<ellipse transform="matrix(0.7071 -0.7071 0.7071 0.7071 -565.5772 413.7496)" style="fill:#4D5768;" cx="216.651" cy="889.587" rx="40.294" ry="40.294"/>
		<path style="fill:#383F4C;" d="M247.602,888.417c0,17.74-14.381,32.121-32.121,32.121c-17.739,0-32.12-14.381-32.12-32.121
			c0-17.74,14.381-32.121,32.12-32.121C233.222,856.297,247.602,870.678,247.602,888.417z"/>
		<circle style="fill:#677589;" cx="216.651" cy="889.587" r="30.951"/>
		<path style="fill:#7A8BA0;" d="M245.264,889.587c0,15.802-12.81,28.612-28.612,28.612c-15.802,0-28.612-12.811-28.612-28.612
			c0-15.802,12.81-28.612,28.612-28.612C232.454,860.975,245.264,873.785,245.264,889.587z"/>
		<path style="opacity:0.22;fill:#FFFFFF;" d="M198.968,875.44c-3.572,4.486-4.646,10.338-4.499,16.071
			c0.083,3.237,0.956,6.608,3.216,8.927c2.26,2.319,6.138,3.231,8.841,1.448c2.427-1.6,3.273-4.75,3.533-7.646
			c0.26-2.895,0.149-5.928,1.397-8.554c1.541-3.242,4.875-5.247,8.224-6.537c1.768-0.681,3.627-1.236,5.139-2.38
			c6.688-5.06,2.306-9.847-7.787-9.847C209.831,866.924,204.456,868.547,198.968,875.44z"/>
	</g>
	<path style="fill:#797D7F;" d="M153.603,885.036H107.67c-4.434,0-8.029-4.471-8.029-9.985v-16.913c0-4.885,3.184-8.845,7.111-8.845
		h34.517L153.603,885.036z"/>
	<polygon style="fill:#F43B3B;" points="127.318,784.566 227.278,782.607 238.016,758.228 129.964,776.077 	"/>
	<rect x="354.162" y="764.009" width="4.626" height="29.037"/>
	<g>
		<path style="fill:#394458;" d="M279.439,884.862c-0.023-0.281-2.372-28.259-7.598-39.774
			c-5.607-12.354-17.37-20.639-34.017-23.959c-0.472-0.094-0.805-0.518-0.786-0.999l2.652-65.667l1.954,0.079l-2.618,64.837
			c16.858,3.556,28.811,12.154,34.596,24.9c5.366,11.825,7.67,39.261,7.766,40.423L279.439,884.862z"/>
	</g>
	<g>
		
			<rect x="379.845" y="654.873" transform="matrix(1 -0.0084 0.0084 1 -6.4299 3.2143)" style="fill:#394458;" width="1.956" height="229.912"/>
	</g>
	<path style="fill:#CE332F;" d="M411.401,660.454H292.054c0,0-3.16-8.223,2.494-9.765c5.653-1.542,117.174-1.028,117.174-1.028
		L411.401,660.454z"/>
	<g>
		<path style="fill:#394458;" d="M530.374,884.782h-58.202c-6.384,0-11.578-5.194-11.578-11.578V670.076
			c0-6.384,5.194-11.578,11.578-11.578h58.202c6.384,0,11.578,5.194,11.578,11.578v203.128
			C541.952,879.588,536.758,884.782,530.374,884.782z M472.172,660.454c-5.306,0-9.622,4.316-9.622,9.622v203.128
			c0,5.306,4.316,9.622,9.622,9.622h58.202c5.306,0,9.622-4.316,9.622-9.622V670.076c0-5.306-4.316-9.622-9.622-9.622H472.172z"/>
	</g>
	<g>
		<path style="fill:#394458;" d="M523.668,736.779h-44.79c-2.563,0-4.641-2.078-4.641-4.642v-53.87c0-2.563,2.078-4.641,4.641-4.641
			h44.79c2.563,0,4.642,2.078,4.642,4.641v53.87C528.31,734.701,526.231,736.779,523.668,736.779z"/>
		<g>
			<path style="fill:#7A8BA0;" d="M523.729,738.313h-44.913c-3.349,0-6.074-2.798-6.074-6.238V678.33
				c0-3.439,2.725-6.237,6.074-6.237h44.913c3.349,0,6.074,2.798,6.074,6.237v53.746
				C529.804,735.515,527.079,738.313,523.729,738.313z M478.816,675.161c-1.701,0-3.086,1.421-3.086,3.169v53.746
				c0,1.747,1.385,3.169,3.086,3.169h44.913c1.701,0,3.086-1.421,3.086-3.169V678.33c0-1.747-1.385-3.169-3.086-3.169H478.816z"/>
		</g>
	</g>
	<g>
		<path style="fill:#394458;" d="M826.233,736.779h-37.327c-2.361,0-4.275-1.914-4.275-4.275v-54.602
			c0-2.361,1.914-4.275,4.275-4.275h37.327c2.361,0,4.275,1.913,4.275,4.275v54.602
			C830.508,734.865,828.594,736.779,826.233,736.779z"/>
		<g>
			<path style="fill:#7A8BA0;" d="M826.622,738.313h-38.105c-2.841,0-5.153-2.798-5.153-6.238V678.33
				c0-3.439,2.312-6.237,5.153-6.237h38.105c2.841,0,5.153,2.798,5.153,6.237v53.746
				C831.775,735.515,829.463,738.313,826.622,738.313z M788.517,675.161c-1.443,0-2.618,1.421-2.618,3.169v53.746
				c0,1.747,1.174,3.169,2.618,3.169h38.105c1.443,0,2.618-1.421,2.618-3.169V678.33c0-1.748-1.175-3.169-2.618-3.169H788.517z"/>
		</g>
	</g>
	<g>
		<path style="fill:#394458;" d="M833.143,884.907h-50.886c-6.033,0-10.942-4.909-10.942-10.942V669.672
			c0-6.033,4.909-10.942,10.942-10.942h50.886c6.034,0,10.942,4.909,10.942,10.942v204.293
			C844.085,879.998,839.177,884.907,833.143,884.907z M782.257,660.579c-5.014,0-9.093,4.079-9.093,9.093v204.293
			c0,5.014,4.079,9.094,9.093,9.094h50.886c5.014,0,9.094-4.08,9.094-9.094V669.672c0-5.014-4.08-9.093-9.094-9.093H782.257z"/>
	</g>
	<g>
		<g>
			<path style="fill:#7A8BA0;" d="M661.587,738.313h-85.351c-6.365,0-11.544-2.798-11.544-6.238V678.33
				c0-3.439,5.179-6.237,11.544-6.237h85.351c6.365,0,11.544,2.798,11.544,6.237v53.746
				C673.131,735.515,667.952,738.313,661.587,738.313z M576.236,675.161c-3.233,0-5.864,1.421-5.864,3.169v53.746
				c0,1.747,2.631,3.169,5.864,3.169h85.351c3.233,0,5.864-1.421,5.864-3.169V678.33c0-1.747-2.631-3.169-5.864-3.169H576.236z"/>
		</g>
		<path style="fill:#394458;" d="M664.05,735.245h-90.277c-3.447,0-6.241-2.794-6.241-6.241v-47.602c0-3.446,2.794-6.24,6.241-6.24
			h90.277c3.447,0,6.241,2.794,6.241,6.24v47.602C670.291,732.451,667.497,735.245,664.05,735.245z"/>
	</g>
	<g>
		<path style="fill:#FFFFFF;" d="M593.711,762.209l3.493,23.481h-6.239l-0.329-4.22h-2.185l-0.367,4.22h-6.311l3.116-23.481H593.711
			z M590.477,777.307c-0.309-2.659-0.619-5.946-0.931-9.862c-0.621,4.496-1.013,7.784-1.172,9.862H590.477z"/>
		<path style="fill:#FFFFFF;" d="M617.08,762.209v23.481h-5.337l-0.007-15.852l-2.124,15.852h-3.785l-2.241-15.489l-0.007,15.489
			h-5.337v-23.481h7.899c0.234,1.412,0.476,3.076,0.725,4.991l0.868,5.973l1.405-10.964H617.08z"/>
		<path style="fill:#FFFFFF;" d="M619.531,762.209h6.091c1.924,0,3.382,0.15,4.372,0.45c0.991,0.299,1.792,0.905,2.4,1.819
			c0.609,0.912,0.914,2.383,0.914,4.413c0,1.373-0.215,2.329-0.645,2.87c-0.431,0.54-1.279,0.956-2.545,1.246
			c1.412,0.319,2.369,0.849,2.871,1.589c0.503,0.74,0.754,1.875,0.754,3.402v2.177c0,1.587-0.181,2.763-0.544,3.526
			c-0.362,0.765-0.94,1.287-1.733,1.568c-0.792,0.28-2.417,0.421-4.873,0.421h-7.063V762.209z M625.637,766.226v5.221
			c0.261-0.01,0.464-0.015,0.609-0.015c0.6,0,0.981-0.147,1.146-0.442c0.164-0.295,0.247-1.139,0.247-2.531
			c0-0.735-0.068-1.25-0.203-1.545c-0.135-0.295-0.312-0.481-0.529-0.558C626.688,766.279,626.266,766.236,625.637,766.226z
			 M625.637,775.102v6.57c0.86-0.029,1.409-0.164,1.646-0.406s0.355-0.836,0.355-1.784v-2.19c0-1.005-0.106-1.614-0.319-1.827
			C627.107,775.252,626.546,775.131,625.637,775.102z"/>
		<path style="fill:#FFFFFF;" d="M649.813,762.209v15.692c0,1.779-0.058,3.029-0.174,3.749c-0.116,0.72-0.459,1.46-1.029,2.219
			c-0.571,0.759-1.322,1.335-2.256,1.726c-0.933,0.392-2.032,0.587-3.299,0.587c-1.402,0-2.64-0.232-3.713-0.696
			c-1.073-0.464-1.876-1.068-2.408-1.813c-0.532-0.744-0.846-1.53-0.943-2.356c-0.097-0.827-0.145-2.565-0.145-5.214v-13.894h6.106
			v17.606c0,1.025,0.056,1.68,0.167,1.965c0.111,0.285,0.336,0.428,0.674,0.428c0.387,0,0.635-0.157,0.747-0.471
			c0.111-0.314,0.167-1.056,0.167-2.226v-17.302H649.813z"/>
		<path style="fill:#FFFFFF;" d="M658.284,762.209v18.781h3.712v4.699h-9.818v-23.481H658.284z"/>
		<path style="fill:#FFFFFF;" d="M674.769,762.209l3.493,23.481h-6.239l-0.329-4.22h-2.185l-0.367,4.22h-6.312l3.116-23.481H674.769
			z M671.535,777.307c-0.31-2.659-0.619-5.946-0.931-9.862c-0.621,4.496-1.013,7.784-1.172,9.862H671.535z"/>
		<path style="fill:#FFFFFF;" d="M692.932,762.209v23.481h-5.352l-3.176-10.674v10.674h-5.105v-23.481h5.105l3.422,10.573v-10.573
			H692.932z"/>
		<path style="fill:#FFFFFF;" d="M709.639,772.434h-6.106v-4.081c0-1.186-0.065-1.926-0.196-2.221
			c-0.13-0.294-0.418-0.441-0.863-0.441c-0.503,0-0.822,0.179-0.957,0.537c-0.136,0.358-0.203,1.131-0.203,2.321v10.906
			c0,1.141,0.067,1.885,0.203,2.233c0.135,0.348,0.439,0.522,0.914,0.522c0.454,0,0.751-0.174,0.892-0.523
			c0.14-0.35,0.21-1.167,0.21-2.457v-2.952h6.106v0.915c0,2.43-0.172,4.154-0.515,5.17c-0.343,1.018-1.102,1.908-2.277,2.673
			c-1.175,0.765-2.623,1.147-4.344,1.147c-1.789,0-3.263-0.324-4.423-0.972c-1.16-0.648-1.929-1.545-2.306-2.69
			c-0.377-1.146-0.565-2.869-0.565-5.17v-6.86c0-1.692,0.058-2.961,0.174-3.807c0.116-0.846,0.461-1.661,1.037-2.444
			c0.575-0.783,1.373-1.4,2.393-1.849c1.02-0.45,2.192-0.674,3.517-0.674c1.798,0,3.283,0.348,4.453,1.043
			c1.17,0.695,1.938,1.562,2.306,2.6s0.551,2.653,0.551,4.844V772.434z"/>
		<path style="fill:#FFFFFF;" d="M711.829,762.209h10.181v4.699h-4.076v4.453h3.814v4.467h-3.814v5.163h4.481v4.699h-10.587V762.209
			z"/>
	</g>
	<polygon style="fill:#CE332F;" points="749.668,702.579 734.688,702.579 734.688,687.599 721.807,687.599 721.807,702.579 
		706.826,702.579 706.826,715.46 721.807,715.46 721.807,730.441 734.688,730.441 734.688,715.46 749.668,715.46 	"/>
	<polygon style="fill:#CE332F;" points="338.23,823.281 326.229,823.281 326.229,811.28 315.911,811.28 315.911,823.281 
		303.91,823.281 303.91,833.6 315.911,833.6 315.911,845.601 326.229,845.601 326.229,833.6 338.23,833.6 	"/>
	<polygon style="opacity:0.23;fill:#FFFFFF;" points="273.592,719.622 338.23,667.49 356.475,667.392 262.511,740.974 	"/>
	<polygon style="opacity:0.23;fill:#FFFFFF;" points="281.956,750.648 368.31,687.949 368.31,709.019 321.07,750.648 	"/>
	<path style="opacity:0.23;fill:#FFFFFF;" d="M475.73,692.831c1.26-0.257,21.303-17.67,21.303-17.67h11.82l-33.123,41.824V692.831z"
		/>
	<polygon style="opacity:0.23;fill:#FFFFFF;" points="488.81,735.245 526.815,689.491 526.815,709.019 508.853,735.245 	"/>
	<polygon style="opacity:0.23;fill:#FFFFFF;" points="567.532,699.255 597.204,675.161 609.839,675.357 567.532,720.84 	"/>
	<path style="opacity:0.23;fill:#FFFFFF;" d="M584.144,735.245c0.771,0,58.687-60.084,58.687-60.084h12.234l-44.198,60.084H584.144z
		"/>
	<polygon style="opacity:0.23;fill:#FFFFFF;" points="641.703,735.245 670.483,701.31 670.546,713.645 659.947,735.245 	"/>
	<polygon style="opacity:0.23;fill:#FFFFFF;" points="785.899,698 812.325,675.161 826.622,675.161 785.899,722.382 	"/>
	<polygon style="opacity:0.23;fill:#FFFFFF;" points="798.963,735.245 829.24,703.366 829.24,718.277 818.493,735.245 	"/>
</g>
<g>
	<path style="fill:#DBE4EB;" d="M112.989,1850.972l644.821-9.104c0,0,0-75.166-19.165-86.013
		c-10.89-6.163-111.161-31.629-111.161-31.629s-25.649-73.499-33.991-76.837c-8.342-3.338-221.066-7.509-233.579,0
		c-12.513,7.51-57.77,77.595-57.77,77.595s-77.815,9.103-129.979,24.447c-40.247,11.84-59.177,29.786-59.177,29.786V1850.972z"/>
	<path style="fill:#C2C9CE;" d="M596.899,1684.245c2.5,8.473,5.001,16.945,7.502,25.419c1.876,6.355,3.752,12.712,5.836,19.003
		c2.116,6.385,5.025,13.345,11.18,16.056c0.844,0.372,1.789,0.653,2.683,0.421c1.256-0.327,2.038-1.549,2.658-2.689
		c2.563-4.71,4.524-9.725,6.217-14.812c0.226-0.678,0.446-1.357,0.656-2.041c-3.415-0.877-5.384-1.377-5.384-1.377
		s-23.963-68.666-33.098-76.271c-0.802-0.093-1.639-0.067-2.512,0.11c-6.38,1.299-3.748,9.043-2.505,13.254
		C592.387,1668.961,594.644,1676.603,596.899,1684.245z"/>
	<path d="M761.05,1842.032l-0.273-69.648c0,0-10.974-14.345-14.833-16.529c-10.89-6.163-118.367-31.364-118.46-31.629
		c-2.331,6.907-4.06,13.068-9.454,18.137c-8.829,8.294-19.526,14.712-26.893,24.329c-11.776,15.372-13.074,36.073-13.904,55.422
		c-0.322,7.51-0.644,15.019-0.966,22.528L761.05,1842.032z"/>
	<path d="M302.145,1724.983c-13.596,1.682-80.835,10.415-127.526,24.149c-40.247,11.84-61.63,30.084-61.63,30.084v71.755
		l197.306-3.049C314.033,1833.896,309.445,1739.168,302.145,1724.983z"/>
	<path style="fill:#464849;" d="M157.669,1821.339h12.034c0,0,3.342-11.321,19.458-17.389c10.526-3.964,25.866-3.949,25.866-3.949
		l0.256-4.45c0,0-19.135-2.711-36.455,4.482C164.264,1806.08,157.669,1821.339,157.669,1821.339z"/>
	<path style="fill:#464849;" d="M620.251,1814.957h12.033c0,0,3.342-11.321,19.458-17.389c10.526-3.964,25.866-3.949,25.866-3.949
		l0.255-4.45c0,0-19.135-2.711-36.455,4.481C626.846,1799.698,620.251,1814.957,620.251,1814.957z"/>
	<path style="fill:#FFFFFF;" d="M583.233,1757.427H321.085c-2.768,0-11.223-20.763-11.223-20.763c0-2.768,8.455-2.502,11.223-2.502
		h262.148c2.768,0,21.522-0.266,21.522,2.502C604.755,1736.664,586.001,1757.427,583.233,1757.427z"/>
	<g>
		<path d="M532.299,1787.567v5.615c0,1.275-0.069,2.204-0.208,2.786c-0.139,0.582-0.426,1.126-0.863,1.633
			c-0.437,0.506-0.963,0.869-1.58,1.091c-0.617,0.222-1.307,0.333-2.069,0.333c-1.005,0-1.84-0.116-2.505-0.348
			c-0.666-0.232-1.195-0.595-1.59-1.087s-0.676-1.011-0.842-1.555c-0.166-0.544-0.25-1.409-0.25-2.594v-5.875
			c0-1.545,0.134-2.703,0.4-3.473c0.267-0.769,0.797-1.386,1.59-1.851c0.793-0.464,1.755-0.696,2.885-0.696
			c0.922,0,1.747,0.161,2.474,0.483c0.728,0.322,1.272,0.716,1.632,1.18c0.36,0.465,0.605,0.988,0.733,1.57
			C532.234,1785.363,532.299,1786.292,532.299,1787.567z M528.099,1786.153c0-0.894-0.043-1.453-0.129-1.679
			c-0.087-0.226-0.289-0.338-0.608-0.338c-0.312,0-0.518,0.119-0.619,0.358s-0.15,0.792-0.15,1.658v8.214
			c0,0.978,0.046,1.566,0.14,1.768c0.093,0.201,0.296,0.302,0.608,0.302c0.312,0,0.517-0.118,0.613-0.354
			c0.097-0.235,0.145-0.766,0.145-1.591V1786.153z"/>
		<path d="M542.86,1795.834v2.869h-9.241l0.003-2.401c2.737-4.478,4.364-7.249,4.88-8.313c0.517-1.063,0.774-1.894,0.774-2.489
			c0-0.458-0.078-0.799-0.233-1.024c-0.157-0.226-0.395-0.338-0.713-0.338c-0.32,0-0.557,0.125-0.714,0.374
			c-0.156,0.25-0.234,0.745-0.234,1.487v1.601h-3.763v-0.613c0-0.942,0.048-1.686,0.146-2.23c0.097-0.544,0.336-1.079,0.717-1.606
			c0.381-0.526,0.877-0.925,1.487-1.195c0.61-0.271,1.341-0.405,2.193-0.405c1.67,0,2.933,0.414,3.789,1.242
			c0.856,0.828,1.284,1.877,1.284,3.146c0,0.963-0.241,1.982-0.722,3.057c-0.482,1.074-1.901,3.354-4.257,6.842H542.86z"/>
		<path d="M552.632,1781.87v11h1.196v2.87h-1.196v2.963h-4.199v-2.963h-4.99v-2.87l3.628-11H552.632z M548.433,1792.87v-7.163
			l-1.856,7.163H548.433z"/>
		<path d="M560.709,1781.87v16.833h-4.2v-9.024c0-1.304-0.031-2.087-0.094-2.351c-0.063-0.263-0.234-0.462-0.515-0.598
			c-0.281-0.135-0.906-0.202-1.877-0.202h-0.416v-1.963c2.03-0.437,3.572-1.335,4.626-2.695H560.709z"/>
	</g>
	<path style="fill:#3F48EF;" d="M400.868,1621.995c-0.645-1.29-12.245-1.129-13.857,0c-1.611,1.128-3.222,15.47-3.222,15.47h19.496
		C403.285,1637.465,401.513,1623.284,400.868,1621.995z"/>
	
		<rect x="389.535" y="1629.786" transform="matrix(-1.836970e-16 1 -1 -1.836970e-16 2034.0107 1247.9297)" width="7.011" height="22.369"/>
	<path style="fill:#3792ED;" d="M386.593,1631.161c-0.147,0.657-0.272,1.417,0.145,1.946c0.254,0.321,0.656,0.48,1.039,0.626
		c0.89,0.339,2.011,0.637,2.7-0.021c0.352-0.336,0.48-0.837,0.584-1.313c0.457-2.095,2.154-7.551-0.66-8.65
		C387.23,1622.51,387.01,1629.292,386.593,1631.161z"/>
	<g>
		<path d="M212.246,1799.64c-27.818,0-50.369,22.556-50.369,50.378l105.581-1.433C267.458,1820.762,240.064,1799.64,212.246,1799.64
			z"/>
		<g>
			
				<ellipse transform="matrix(1 -0.0016 0.0016 1 -2.9894 0.3442)" style="fill:#383F4C;" cx="211.939" cy="1854.068" rx="45.866" ry="45.874"/>
			<path d="M239.244,1817.207c9.585,8.408,15.639,20.746,15.639,34.5c0,25.336-20.535,45.875-45.866,45.875
				c-10.229,0-19.676-3.352-27.305-9.014c8.072,7.08,18.648,11.374,30.228,11.374c25.331,0,45.866-20.538,45.866-45.874
				C257.806,1838.965,250.506,1825.566,239.244,1817.207z"/>
			
				<ellipse transform="matrix(1 -0.002 0.002 1 -3.7068 0.4275)" style="fill:#4D5768;" cx="211.939" cy="1854.068" rx="35.861" ry="35.867"/>
			<path style="fill:#383F4C;" d="M239.485,1853.027c0,15.791-12.799,28.592-28.587,28.592c-15.788,0-28.586-12.801-28.586-28.592
				s12.799-28.592,28.586-28.592C226.686,1824.436,239.485,1837.236,239.485,1853.027z"/>
			
				<ellipse transform="matrix(1 -0.0026 0.0026 1 -4.8014 0.5552)" style="fill:#677589;" cx="211.939" cy="1854.068" rx="27.546" ry="27.551"/>
			
				<ellipse transform="matrix(1 -0.0029 0.0029 1 -5.3256 0.6165)" style="fill:#7A8BA0;" cx="211.939" cy="1854.068" rx="25.464" ry="25.469"/>
			<path style="opacity:0.22;fill:#FFFFFF;" d="M196.201,1841.476c-3.179,3.993-4.135,9.203-4.004,14.306
				c0.074,2.882,0.851,5.882,2.862,7.946c2.012,2.064,5.462,2.876,7.869,1.288c2.16-1.424,2.913-4.228,3.144-6.805
				c0.231-2.578,0.133-5.276,1.243-7.614c1.371-2.886,4.338-4.671,7.32-5.818c1.573-0.606,3.228-1.101,4.573-2.118
				c5.952-4.504,2.052-8.766-6.931-8.765C205.869,1833.896,201.086,1835.341,196.201,1841.476z"/>
		</g>
	</g>
	<g>
		<path d="M674.828,1793.258c-27.818,0-50.369,22.556-50.369,50.378l106.678-0.08
			C731.137,1815.732,702.646,1793.258,674.828,1793.258z"/>
		<g>
			<ellipse style="fill:#383F4C;" cx="674.521" cy="1847.687" rx="45.866" ry="45.874"/>
			<path d="M701.826,1810.825c9.585,8.408,15.639,20.747,15.639,34.5c0,25.336-20.535,45.874-45.866,45.874
				c-10.229,0-19.676-3.351-27.305-9.013c8.072,7.081,18.648,11.374,30.228,11.374c25.331,0,45.866-20.538,45.866-45.874
				C720.388,1832.582,713.088,1819.185,701.826,1810.825z"/>
			<ellipse style="fill:#4D5768;" cx="674.521" cy="1847.687" rx="35.861" ry="35.867"/>
			<ellipse style="fill:#383F4C;" cx="673.481" cy="1846.646" rx="28.587" ry="28.592"/>
			<ellipse style="fill:#677589;" cx="674.521" cy="1847.687" rx="27.546" ry="27.551"/>
			
				<ellipse transform="matrix(0.0028 -1 1 0.0028 -1175.0736 2516.9568)" style="fill:#7A8BA0;" cx="674.521" cy="1847.687" rx="25.469" ry="25.464"/>
			<path style="opacity:0.22;fill:#FFFFFF;" d="M658.783,1835.094c-3.179,3.993-4.135,9.203-4.004,14.306
				c0.074,2.882,0.851,5.882,2.862,7.946s5.462,2.876,7.869,1.289c2.16-1.425,2.913-4.229,3.144-6.807
				c0.231-2.577,0.133-5.275,1.243-7.613c1.371-2.886,4.338-4.67,7.319-5.818c1.574-0.606,3.229-1.101,4.574-2.118
				c5.952-4.505,2.052-8.766-6.931-8.766C668.451,1827.514,663.668,1828.959,658.783,1835.094z"/>
		</g>
	</g>
	<path style="fill:#797D7F;" d="M152.197,1853.45h-44.736c-4.318,0-7.819-4.797-7.819-10.716v-18.148
		c0-5.242,3.101-9.492,6.926-9.492h33.616L152.197,1853.45z"/>
	<path style="fill:#8B8F91;" d="M109.652,1850.995v-18.149c0-5.242,3.101-9.491,6.926-9.491h26.193l-2.587-8.261h-33.616
		c-3.825,0-6.926,4.25-6.926,9.492v18.148c0,5.919,3.501,10.716,7.819,10.716h2.4
		C109.726,1852.662,109.652,1851.841,109.652,1850.995z"/>
	<path style="fill:#797D7F;" d="M731.137,1843.556h29.824c2.879,0,5.213-4.798,5.213-10.716v-18.149
		c0-5.242-2.067-9.491-4.617-9.491h-22.411L731.137,1843.556z"/>
	<path style="fill:#8B8F91;" d="M760.608,1811.819c3.073,0,5.565,4.249,5.565,9.49v-6.619c0-5.242-2.067-9.491-4.617-9.491h-22.411
		l-1.382,6.62H760.608z"/>
	<path style="fill:#394458;" d="M365.361,1657.697c-6.917,9.884-26.189,35.48-38.765,52.1c-4.721,6.238-0.272,15.187,7.55,15.187
		h122.557c5.229,0,9.469-4.24,9.469-9.471v-52.396c0-5.23-4.24-9.471-9.469-9.471h-83.577
		C370.031,1653.646,367.135,1655.161,365.361,1657.697z"/>
	<path d="M330.02,1716.889c12.576-16.619,31.847-42.216,38.765-52.1c1.775-2.536,4.671-4.051,7.766-4.051h83.576
		c2.297,0,4.403,0.818,6.043,2.18c-0.107-5.139-4.302-9.271-9.464-9.271h-83.577c-3.095,0-5.991,1.515-7.765,4.051
		c-6.917,9.884-26.189,35.48-38.765,52.1c-3.279,4.333-2.132,9.971,1.494,13.012C328.039,1720.799,328.629,1718.727,330.02,1716.889
		z"/>
	<path style="fill:#394458;" d="M480.562,1662.407v53.815c0,4.839,3.921,8.761,8.759,8.761h88.772c6.186,0,10.423-6.239,8.142-11.99
		l-21.341-53.816c-1.324-3.338-4.551-5.53-8.142-5.53h-67.431C484.483,1653.646,480.562,1657.568,480.562,1662.407z"/>
	<path d="M487.858,1722.941v-53.815c0-4.839,3.921-8.761,8.759-8.761h67.432c0.454,0,0.901,0.035,1.341,0.104l-0.495-1.248
		c-1.324-3.338-4.551-5.53-8.142-5.53h-67.431c-4.838,0-8.759,3.922-8.759,8.761v53.815c0,4.421,3.273,8.074,7.528,8.673
		C487.94,1724.298,487.858,1723.63,487.858,1722.941z"/>
	<path style="fill:#CE332F;" d="M748.502,1805.199h12.908l-0.632-32.815c0,0-37.669-7.351-37.537,8.736
		c0.054,6.476,12.881,7.601,17.997,11.029C748.084,1796.738,748.502,1805.199,748.502,1805.199z"/>
	<path style="fill:#7A8BA0;" d="M108.609,1815.094c0,0-5.005-8.759-5.631-15.028c-0.626-6.27-1.418-16.211,5.631-19.049
		c7.049-2.838,24.088-3.651,24.088,1.825s-6.361,15.822-6.778,21.907c-0.417,6.085,0,10.345,0,10.345H108.609z"/>
	<path style="fill:#DBE4EB;" d="M107.485,1788.255c-1.21,2.851-1.351,6.14-0.39,9.083c0.366,1.122,0.913,2.229,1.821,2.982
		c0.908,0.754,2.238,1.084,3.303,0.574c0.956-0.459,1.51-1.461,1.979-2.412c1.106-2.241,2.187-4.663,4.262-6.055
		c1.257-0.842,2.769-1.221,4.083-1.972c1.314-0.75,2.496-2.104,2.297-3.605c-0.41-3.09-6.476-5.098-9.154-4.968
		C112.208,1782.053,108.791,1785.178,107.485,1788.255z"/>
	<path style="fill:#F43B3B;" d="M731.372,1776.73c-1.738,1.624-2.199,4.77-0.38,6.304c0.741,0.624,1.714,0.888,2.656,1.115
		c5.055,1.22,10.238,1.907,15.436,2.046c0.624,0.018,1.272,0.021,1.839-0.238c0.867-0.397,1.356-1.313,1.739-2.187
		c0.886-2.021,1.512-4.435,0.443-6.363c-1.06-1.914-3.402-2.665-5.549-3.081C742.638,1773.374,735.419,1772.949,731.372,1776.73z"/>
	<path style="fill:#464849;" d="M134.678,1774.628c0,0,47.769-23.249,87.376-30.169c45.264-7.908,77.381-7.794,77.381-7.794v14.184
		c0,0-39.625,1.252-77.381,4.589c-35.683,3.154-82.37,23.362-82.37,23.362L134.678,1774.628z"/>
	<polygon style="fill:#464849;" points="636.038,1734.162 624.459,1748.763 744.901,1763.364 744.901,1759.609 	"/>
	<rect x="316.953" y="1826.518" style="fill:#FFFFFF;" width="248.437" height="10.89"/>
	<g>
		<path style="fill:#394458;" d="M449.637,1845.727c-0.05-0.456-4.746-46.004,16.795-81.522
			c6.888-11.357,6.156-119.824,6.147-120.919l1.588-0.012c0.033,4.486,0.741,110.016-6.378,121.753
			c-21.265,35.063-16.624,80.076-16.574,80.526L449.637,1845.727z"/>
	</g>
	<g>
		<path d="M335.652,1766.6h8.316c2.249,0,3.978,0.176,5.188,0.529c1.209,0.354,2.118,0.863,2.726,1.53
			c0.608,0.667,1.02,1.475,1.236,2.423c0.216,0.948,0.323,2.416,0.323,4.403v2.767c0,2.026-0.209,3.504-0.627,4.433
			c-0.418,0.929-1.187,1.642-2.304,2.139c-1.118,0.497-2.579,0.745-4.384,0.745h-2.216v12.79h-8.257V1766.6z M343.91,1772.033v8.082
			c0.235,0.013,0.438,0.02,0.608,0.02c0.759,0,1.285-0.187,1.579-0.559c0.294-0.373,0.441-1.148,0.441-2.325v-2.608
			c0-1.086-0.17-1.792-0.51-2.119C345.688,1772.196,344.982,1772.033,343.91,1772.033z"/>
		<path d="M374.683,1785.195c0,3.191-0.075,5.451-0.226,6.778s-0.621,2.54-1.412,3.639c-0.791,1.099-1.86,1.942-3.207,2.53
			c-1.347,0.589-2.915,0.883-4.707,0.883c-1.7,0-3.226-0.277-4.58-0.834c-1.353-0.556-2.442-1.389-3.266-2.501
			c-0.824-1.111-1.314-2.321-1.471-3.629c-0.157-1.308-0.235-3.597-0.235-6.866v-5.434c0-3.19,0.075-5.45,0.226-6.777
			c0.15-1.327,0.621-2.54,1.412-3.639c0.791-1.099,1.86-1.942,3.207-2.53c1.347-0.589,2.916-0.883,4.707-0.883
			c1.7,0,3.227,0.277,4.58,0.833c1.353,0.557,2.441,1.39,3.266,2.502c0.823,1.111,1.314,2.321,1.471,3.629
			c0.157,1.308,0.235,3.596,0.235,6.865V1785.195z M366.425,1774.76c0-1.478-0.081-2.423-0.245-2.835
			c-0.164-0.411-0.5-0.617-1.01-0.617c-0.432,0-0.762,0.167-0.991,0.5c-0.228,0.333-0.343,1.317-0.343,2.952v14.83
			c0,1.844,0.075,2.981,0.226,3.413c0.15,0.432,0.5,0.647,1.049,0.647c0.563,0,0.922-0.248,1.079-0.745
			c0.157-0.497,0.235-1.681,0.235-3.551V1774.76z"/>
		<path d="M386.019,1766.6v25.403h5.021v6.355h-13.278V1766.6H386.019z"/>
		<path d="M401.298,1766.6v31.759h-8.257V1766.6H401.298z"/>
		<path d="M423.892,1780.429h-8.257v-5.521c0-1.604-0.088-2.605-0.265-3.004c-0.177-0.397-0.565-0.597-1.167-0.597
			c-0.68,0-1.111,0.241-1.294,0.726s-0.275,1.53-0.275,3.139v14.752c0,1.543,0.092,2.55,0.275,3.021s0.595,0.706,1.235,0.706
			c0.615,0,1.017-0.235,1.207-0.708c0.189-0.472,0.284-1.579,0.284-3.323v-3.992h8.257v1.238c0,3.287-0.232,5.618-0.696,6.993
			c-0.464,1.376-1.491,2.581-3.08,3.616c-1.588,1.034-3.546,1.551-5.874,1.551c-2.419,0-4.413-0.438-5.982-1.314
			c-1.569-0.876-2.609-2.089-3.119-3.639s-0.765-3.881-0.765-6.993v-9.278c0-2.289,0.078-4.006,0.235-5.149
			c0.157-1.145,0.624-2.246,1.402-3.306c0.778-1.06,1.857-1.893,3.236-2.501c1.379-0.608,2.965-0.912,4.756-0.912
			c2.432,0,4.439,0.471,6.021,1.41c1.582,0.94,2.622,2.112,3.118,3.517c0.497,1.404,0.745,3.588,0.745,6.552V1780.429z"/>
		<path d="M426.853,1766.6h13.769v6.355h-5.512v6.022h5.159v6.042h-5.159v6.983h6.06v6.355h-14.317V1766.6z"/>
	</g>
	<polygon style="fill:#C6A517;" points="504.915,1800.228 492.859,1793.768 480.703,1800.037 483.121,1786.573 473.402,1776.947 
		486.953,1775.087 493.102,1762.867 499.059,1775.182 512.578,1777.256 502.709,1786.727 	"/>
</g>
<g>
	<rect x="1228.797" y="1598.81" style="fill:#4D5768;" width="28.228" height="152.563"/>
	<rect x="1090.36" y="1751.372" width="726.06" height="71.689"/>
	<rect x="967.957" y="1706.621" style="fill:#E57B07;" width="10.639" height="43.893"/>
	<path style="fill:#DBE4EB;" d="M967.957,1711.018c0,0-13.145,0.508-13.772,16.353c-0.705,17.812,13.772,19.6,13.772,19.6V1711.018z
		"/>
	<path style="fill:#FFFFFF;" d="M957.416,1721.893c-0.702,2.056-0.77,4.275-0.628,6.443c0.054,0.817,0.142,1.656,0.517,2.385
		c0.375,0.729,1.1,1.33,1.919,1.334c1.215,0.004,2.042-1.199,2.583-2.287c0.417-0.839,0.8-1.695,1.183-2.55
		c0.463-1.036,0.927-2.072,1.391-3.108c0.421-0.94,0.846-1.894,1.012-2.91c0.342-2.088-1.162-4.88-3.646-4.313
		C959.667,1717.362,958.045,1720.047,957.416,1721.893z"/>
	<path style="fill:#3F48EF;" d="M1176.955,1500.972c-1.065-2.13-20.236-1.864-22.899,0c-2.662,1.864-5.325,25.562-5.325,25.562
		h32.218C1180.948,1526.533,1178.02,1503.102,1176.955,1500.972z"/>
	
		<rect x="1158.228" y="1513.841" transform="matrix(-1.836970e-16 1 -1 -1.836970e-16 2696.3428 368.3056)" style="fill:#E57B07;" width="11.582" height="36.967"/>
	<path style="fill:#3792ED;" d="M1153.364,1516.117c-0.243,1.086-0.45,2.341,0.239,3.215c0.419,0.531,1.084,0.795,1.717,1.035
		c1.471,0.559,3.322,1.052,4.462-0.035c0.581-0.555,0.794-1.382,0.965-2.167c0.755-3.462,3.56-12.476-1.091-14.294
		C1154.417,1501.822,1154.054,1513.028,1153.364,1516.117z"/>
	<g>
		<circle style="fill:#383F4C;" cx="1172.936" cy="1834.584" r="65.358"/>
		<path d="M1211.844,1782.066c13.659,11.979,22.285,29.559,22.285,49.154c0,36.096-29.262,65.358-65.358,65.358
			c-14.577,0-28.038-4.774-38.909-12.842c11.502,10.088,26.573,16.205,43.074,16.205c36.096,0,65.358-29.262,65.358-65.358
			C1238.294,1813.064,1227.892,1793.977,1211.844,1782.066z"/>
		<path style="fill:#4D5768;" d="M1224.036,1834.584c0,28.223-22.879,51.102-51.101,51.102c-28.223,0-51.102-22.879-51.102-51.102
			s22.879-51.102,51.102-51.102C1201.157,1783.482,1224.036,1806.361,1224.036,1834.584z"/>
		<path style="fill:#383F4C;" d="M1212.188,1833.102c0,22.497-18.238,40.735-40.735,40.735c-22.498,0-40.735-18.238-40.735-40.735
			c0-22.498,18.237-40.736,40.735-40.736C1193.949,1792.365,1212.188,1810.604,1212.188,1833.102z"/>
		<path style="fill:#677589;" d="M1212.188,1834.584c0,21.679-17.574,39.253-39.252,39.253c-21.679,0-39.253-17.574-39.253-39.253
			s17.574-39.252,39.253-39.252C1194.613,1795.332,1212.188,1812.905,1212.188,1834.584z"/>
		<path style="fill:#7A8BA0;" d="M1209.222,1834.584c0,20.041-16.246,36.286-36.286,36.286c-20.041,0-36.287-16.245-36.287-36.286
			c0-20.04,16.246-36.286,36.287-36.286C1192.976,1798.298,1209.222,1814.544,1209.222,1834.584z"/>
		<path style="opacity:0.22;fill:#FFFFFF;" d="M1150.508,1816.643c-4.53,5.689-5.893,13.111-5.705,20.382
			c0.105,4.105,1.212,8.38,4.079,11.321c2.866,2.941,7.784,4.097,11.213,1.836c3.077-2.029,4.15-6.024,4.479-9.696
			c0.33-3.672,0.189-7.518,1.771-10.848c1.954-4.111,6.183-6.654,10.431-8.29c2.242-0.863,4.601-1.568,6.517-3.018
			c8.481-6.417,2.924-12.488-9.875-12.488C1164.285,1805.842,1157.469,1807.901,1150.508,1816.643z"/>
	</g>
	<g>
		<circle style="fill:#383F4C;" cx="1737.307" cy="1834.584" r="65.358"/>
		<path d="M1776.215,1782.066c13.659,11.979,22.285,29.559,22.285,49.154c0,36.096-29.262,65.358-65.358,65.358
			c-14.577,0-28.038-4.774-38.908-12.842c11.502,10.088,26.572,16.205,43.073,16.205c36.097,0,65.358-29.262,65.358-65.358
			C1802.665,1813.064,1792.264,1793.977,1776.215,1782.066z"/>
		
			<ellipse transform="matrix(0.7071 -0.7071 0.7071 0.7071 -788.4014 1765.7985)" style="fill:#4D5768;" cx="1737.307" cy="1834.584" rx="51.102" ry="51.102"/>
		<path style="fill:#383F4C;" d="M1776.559,1833.102c0,22.497-18.237,40.735-40.735,40.735s-40.735-18.238-40.735-40.735
			c0-22.498,18.237-40.736,40.735-40.736S1776.559,1810.604,1776.559,1833.102z"/>
		<path style="fill:#677589;" d="M1776.559,1834.584c0,21.679-17.573,39.253-39.252,39.253s-39.252-17.574-39.252-39.253
			s17.573-39.252,39.252-39.252S1776.559,1812.905,1776.559,1834.584z"/>
		<path style="fill:#7A8BA0;" d="M1773.593,1834.584c0,20.041-16.246,36.286-36.286,36.286c-20.041,0-36.287-16.245-36.287-36.286
			c0-20.04,16.246-36.286,36.287-36.286C1757.347,1798.298,1773.593,1814.544,1773.593,1834.584z"/>
		<path style="opacity:0.22;fill:#FFFFFF;" d="M1714.88,1816.643c-4.53,5.689-5.893,13.111-5.706,20.382
			c0.106,4.105,1.213,8.38,4.079,11.321s7.784,4.097,11.213,1.836c3.078-2.029,4.15-6.024,4.48-9.696
			c0.329-3.672,0.188-7.518,1.771-10.848c1.954-4.111,6.183-6.654,10.431-8.29c2.242-0.863,4.601-1.568,6.517-3.018
			c8.482-6.417,2.924-12.488-9.875-12.488C1728.656,1805.842,1721.84,1807.901,1714.88,1816.643z"/>
	</g>
	<g>
		<circle style="fill:#383F4C;" cx="1594.002" cy="1834.584" r="65.358"/>
		<path d="M1632.91,1782.066c13.659,11.979,22.285,29.559,22.285,49.154c0,36.096-29.262,65.358-65.358,65.358
			c-14.577,0-28.038-4.774-38.908-12.842c11.502,10.088,26.572,16.205,43.073,16.205c36.097,0,65.358-29.262,65.358-65.358
			C1659.36,1813.064,1648.959,1793.977,1632.91,1782.066z"/>
		
			<ellipse transform="matrix(0.2298 -0.9732 0.9732 0.2298 -557.7319 2964.4434)" style="fill:#4D5768;" cx="1594.002" cy="1834.584" rx="51.102" ry="51.102"/>
		<path style="fill:#383F4C;" d="M1633.255,1833.102c0,22.497-18.238,40.735-40.736,40.735c-22.497,0-40.735-18.238-40.735-40.735
			c0-22.498,18.238-40.736,40.735-40.736C1615.017,1792.365,1633.255,1810.604,1633.255,1833.102z"/>
		<path style="fill:#677589;" d="M1633.255,1834.584c0,21.679-17.574,39.253-39.253,39.253s-39.252-17.574-39.252-39.253
			s17.573-39.252,39.252-39.252S1633.255,1812.905,1633.255,1834.584z"/>
		<circle style="fill:#7A8BA0;" cx="1594.002" cy="1834.584" r="36.286"/>
		<path style="opacity:0.22;fill:#FFFFFF;" d="M1571.575,1816.643c-4.53,5.689-5.893,13.111-5.706,20.382
			c0.106,4.105,1.213,8.38,4.079,11.321c2.867,2.941,7.784,4.097,11.213,1.836c3.078-2.029,4.151-6.024,4.48-9.696
			s0.189-7.518,1.771-10.848c1.953-4.111,6.182-6.654,10.431-8.29c2.242-0.863,4.6-1.568,6.516-3.018
			c8.482-6.417,2.925-12.488-9.875-12.488C1585.352,1805.842,1578.535,1807.901,1571.575,1816.643z"/>
	</g>
	<path style="fill:#FF8E06;" d="M978.783,1823.062h118.904c0,0-0.216-25.828,27.558-50.854
		c30.827-27.779,111.88-20.465,111.88-20.465v-213.627h-125.936l-132.406,150.978V1823.062z"/>
	<polygon style="fill:#FF8E06;" points="1248.09,1751.372 1816.42,1751.372 1737.307,1520.672 1248.09,1504.047 	"/>
	<path style="fill:#FF8E06;" d="M1730.438,1521.072c0,0,117.206-9.538,138.063,79.003c27.324,115.994-54.222,151.297-54.222,151.297
		L1730.438,1521.072z"/>
	<polygon style="fill:#E57B07;" points="1724.939,1504.884 1701.02,1508.527 1788.408,1751.372 1814.279,1751.372 	"/>
	<rect x="1248.09" y="1737.482" style="fill:#E57B07;" width="554.575" height="13.89"/>
	<path style="fill:#E57B07;" d="M1248.09,1504.047c2.45,0.083,468.414,16.13,468.414,16.13l4.929,16.13l-453.879-19.715
		l0.896,227.836l-20.36,6.944V1504.047z"/>
	<polygon style="fill:#E57B07;" points="1757.65,1621.437 1882.732,1580.216 1889.901,1598.138 1768.479,1636.072 	"/>
	<path style="fill:#E57B07;" d="M1310.119,1665.346c-0.448-0.893,0-114.307,0-114.307h74.824l-8.512,9.228l-49.734-0.298
		l-3.585,105.377H1310.119z"/>
	<path style="fill:#E57B07;" d="M1409.937,1665.346c-0.448-0.893,0-114.307,0-114.307h74.825l-8.514,9.228l-49.733-0.298
		l-3.585,105.377H1409.937z"/>
	<path style="fill:#E57B07;" d="M1506.04,1665.346c-0.448-0.893,0-114.307,0-114.307h74.825l-8.514,9.228l-49.733-0.298
		l-3.585,105.377H1506.04z"/>
	<path style="fill:#E57B07;" d="M1607.79,1664.354c-0.448-0.893,0-114.308,0-114.308h74.825l-8.513,9.229l-49.734-0.298
		l-3.584,105.377H1607.79z"/>
	<polygon style="fill:#E57B07;" points="1688.725,1530.033 1761.758,1744.428 1770.271,1744.428 1698.055,1530.033 	"/>
	<polygon style="fill:#E57B07;" points="1757.65,1612.476 1861.54,1580.216 1858.787,1574.95 1754.141,1608.145 	"/>
	<path style="fill:#394458;" d="M1022.219,1690.885h122.608c6.161,0,11.183-5.409,11.278-12.15l1.539-108.387
		c0.098-6.891-4.98-12.534-11.279-12.534h-29.4c-3.079,0-6.024,1.376-8.152,3.811l-94.745,108.388
		C1007.205,1677.862,1012.29,1690.885,1022.219,1690.885z"/>
	<path style="fill:#394458;" d="M1207.769,1690.885h-22.333c-6.628,0-12.001-5.373-12.001-12v-109.071c0-6.628,5.373-12,12.001-12
		h22.333c6.628,0,12.001,5.372,12.001,12v109.071C1219.77,1685.512,1214.396,1690.885,1207.769,1690.885z"/>
	<path d="M1021.437,1682.481l94.745-108.387c2.129-2.435,5.073-3.812,8.152-3.812h29.401c1.372,0,2.687,0.269,3.903,0.76
		l0.004-0.322c0.098-6.892-4.98-12.535-11.278-12.535h-29.401c-3.078,0-6.023,1.377-8.151,3.812l-94.745,108.387
		c-5.887,6.734-2.979,17.266,4.232,20.128C1018.387,1687.697,1019.363,1684.854,1021.437,1682.481z"/>
	<path d="M1180.805,1582.837c0-6.934,5.136-12.554,11.472-12.554h23.39c1.446,0,2.828,0.296,4.102,0.83v-0.374
		c0-6.933-5.136-12.554-11.472-12.554h-23.39c-6.336,0-11.473,5.621-11.473,12.554v107.966c0,5.351,3.061,9.917,7.371,11.724
		V1582.837z"/>
	<path style="fill:#E57B07;" d="M1058.186,1823.062h-84.628c-4.84,0-8.764-3.925-8.764-8.765v-52.723
		c0-4.84,3.924-8.764,8.764-8.764h84.628c4.841,0,8.765,3.924,8.765,8.764v52.723
		C1066.95,1819.137,1063.026,1823.062,1058.186,1823.062z"/>
	<path style="fill:#FF8E06;" d="M1048.854,1778.976h-70.744c-2.24,0-4.057-1.816-4.057-4.058v-11.385
		c0-2.241,1.816-4.057,4.057-4.057h70.744c2.24,0,4.057,1.815,4.057,4.057v11.385
		C1052.91,1777.159,1051.094,1778.976,1048.854,1778.976z"/>
	<rect x="1107.822" y="1710.375" width="35.656" height="7.394"/>
	<path style="fill:#4D5768;" d="M1438.004,1839.371H1309.93c-9.175,0-16.612-7.438-16.612-16.613v-48.92
		c0-9.175,7.438-16.613,16.612-16.613h128.074c9.175,0,16.612,7.438,16.612,16.613v48.92
		C1454.616,1831.934,1447.179,1839.371,1438.004,1839.371z"/>
	<rect x="1316.615" y="1757.225" width="12.546" height="82.146"/>
	<rect x="1417.204" y="1757.225" width="12.546" height="82.146"/>
	<g>
		<path style="fill:#FFFFFF;" d="M1308.104,1675.091h7.954c5.303,0,8.893,0.205,10.771,0.614c1.877,0.409,3.407,1.455,4.591,3.137
			s1.775,4.364,1.775,8.047c0,3.363-0.418,5.624-1.255,6.78c-0.836,1.157-2.482,1.851-4.938,2.082
			c2.225,0.552,3.72,1.29,4.484,2.216c0.766,0.925,1.241,1.774,1.429,2.549c0.187,0.774,0.28,2.905,0.28,6.393v11.397h-10.437
			v-14.36c0-2.313-0.183-3.745-0.548-4.297c-0.364-0.552-1.321-0.828-2.869-0.828v19.485h-11.237V1675.091z M1319.341,1682.485
			v9.608c1.264,0,2.148-0.173,2.655-0.52c0.508-0.348,0.762-1.473,0.762-3.377v-2.376c0-1.37-0.245-2.269-0.734-2.695
			C1321.534,1682.698,1320.64,1682.485,1319.341,1682.485z"/>
		<path style="fill:#FFFFFF;" d="M1337.545,1675.091h18.738v8.648h-7.501v8.194h7.021v8.222h-7.021v9.503h8.248v8.647h-19.485
			V1675.091z"/>
	</g>
	<g>
		<path style="fill:#4D5768;" d="M1389.392,1694.138h-10.317v-6.896c0-2.004-0.11-3.256-0.331-3.754
			c-0.221-0.496-0.706-0.745-1.458-0.745c-0.85,0-1.389,0.302-1.617,0.906s-0.344,1.912-0.344,3.922v18.429
			c0,1.928,0.115,3.186,0.344,3.774c0.229,0.588,0.743,0.882,1.543,0.882c0.769,0,1.271-0.294,1.508-0.884
			c0.237-0.591,0.355-1.974,0.355-4.152v-4.987h10.317v1.546c0,4.107-0.29,7.02-0.87,8.736c-0.58,1.72-1.862,3.226-3.848,4.518
			c-1.984,1.293-4.432,1.938-7.34,1.938c-3.022,0-5.514-0.548-7.475-1.642c-1.96-1.095-3.26-2.61-3.896-4.547
			c-0.637-1.936-0.956-4.848-0.956-8.736v-11.592c0-2.859,0.099-5.003,0.294-6.433c0.196-1.43,0.781-2.806,1.753-4.13
			c0.972-1.323,2.319-2.364,4.044-3.124c1.723-0.76,3.704-1.14,5.942-1.14c3.039,0,5.547,0.588,7.523,1.762
			c1.978,1.175,3.276,2.639,3.897,4.394c0.62,1.754,0.931,4.482,0.931,8.185V1694.138z"/>
		<path style="fill:#4D5768;" d="M1415.074,1676.86l-7.523,25.315v14.361h-9.557v-14.361l-7.255-25.315h9.478
			c1.481,7.744,2.316,12.956,2.506,15.636c0.572-4.234,1.53-9.445,2.874-15.636H1415.074z"/>
		<path style="fill:#4D5768;" d="M1440.93,1694.138h-10.317v-6.896c0-2.004-0.11-3.256-0.331-3.754
			c-0.221-0.496-0.707-0.745-1.458-0.745c-0.85,0-1.389,0.302-1.618,0.906c-0.229,0.604-0.343,1.912-0.343,3.922v18.429
			c0,1.928,0.114,3.186,0.343,3.774c0.229,0.588,0.744,0.882,1.545,0.882c0.768,0,1.27-0.294,1.507-0.884
			c0.237-0.591,0.355-1.974,0.355-4.152v-4.987h10.317v1.546c0,4.107-0.29,7.02-0.87,8.736c-0.58,1.72-1.862,3.226-3.848,4.518
			c-1.985,1.293-4.432,1.938-7.34,1.938c-3.022,0-5.514-0.548-7.475-1.642c-1.961-1.095-3.26-2.61-3.896-4.547
			c-0.638-1.936-0.956-4.848-0.956-8.736v-11.592c0-2.859,0.098-5.003,0.294-6.433s0.78-2.806,1.753-4.13
			c0.972-1.323,2.319-2.364,4.043-3.124s3.705-1.14,5.943-1.14c3.039,0,5.547,0.588,7.523,1.762
			c1.977,1.175,3.275,2.639,3.896,4.394c0.621,1.754,0.932,4.482,0.932,8.185V1694.138z"/>
		<path style="fill:#4D5768;" d="M1454.947,1676.86v31.736h6.273v7.94h-16.591v-39.677H1454.947z"/>
		<path style="fill:#4D5768;" d="M1463.721,1676.86h17.203v7.94h-6.886v7.523h6.445v7.548h-6.445v8.725h7.573v7.94h-17.891V1676.86z
			"/>
	</g>
	<polygon style="fill:#4D5768;" points="1725.465,1687.289 1496.957,1687.289 1496.957,1676.86 1721.433,1676.86 	"/>
	<polygon style="fill:#4D5768;" points="1742.043,1715.59 1496.957,1715.59 1496.957,1705.161 1735.823,1705.161 	"/>
	<polygon style="opacity:0.23;fill:#FFFFFF;" points="1063.935,1690.429 1109.167,1690.512 1156.964,1645.184 1156.964,1618.302 	
		"/>
	<polygon style="opacity:0.23;fill:#FFFFFF;" points="1065.481,1611.355 1157.603,1573.274 1156.964,1592.315 1023.118,1660.145 	
		"/>
	<polygon style="opacity:0.23;fill:#FFFFFF;" points="1173.463,1596.794 1219.77,1573.274 1219.77,1589.625 1173.463,1621.437 	"/>
	<polygon style="opacity:0.23;fill:#FFFFFF;" points="1173.463,1658.85 1219.77,1624.35 1219.77,1641.6 1173.463,1676.027 
		1173.463,1660.145 	"/>
</g>
<g>
	<path style="fill:#3F48EF;" d="M1283.73,576.149c-0.874-1.748-16.607-1.529-18.792,0c-2.186,1.53-4.371,20.978-4.371,20.978h26.44
		C1287.008,597.127,1284.604,577.898,1283.73,576.149z"/>
	<polygon style="fill:#394458;" points="1466.412,648.916 1445.435,648.916 1445.435,865.905 1462.151,864.894 	"/>
	<path style="fill:#CE332F;" d="M1197.667,709.431c0,0-78.187,8.418-105.905,37.163c-17.699,18.356-9.506,119.311-9.506,119.311
		h363.179V606.767h-210.434c0,0-13.111-1.416-17.045,4.956c-3.933,6.373-3.933,6.373-3.933,6.373l20.322,0.708L1197.667,709.431z"/>
	<path style="fill:#CE332F;" d="M1462.151,630.233v234.661h427.75V668.559c0-19.916-16.437-35.905-36.346-35.357L1462.151,630.233z"
		/>
	<path style="fill:#892121;" d="M1197.667,793.414c-39.871,0-72.192,32.322-72.192,72.193h144.386
		C1269.86,825.735,1237.538,793.414,1197.667,793.414z"/>
	<g>
		<path style="fill:#383F4C;" d="M1262.967,871.411c0,36.306-29.433,65.738-65.739,65.738s-65.738-29.432-65.738-65.738
			c0-36.307,29.432-65.739,65.738-65.739S1262.967,835.104,1262.967,871.411z"/>
		<path d="M1236.362,818.588c13.739,12.049,22.415,29.729,22.415,49.439c0,36.307-29.433,65.739-65.739,65.739
			c-14.661,0-28.2-4.802-39.134-12.916c11.568,10.146,26.727,16.299,43.323,16.299c36.307,0,65.739-29.432,65.739-65.738
			C1262.967,849.767,1252.504,830.567,1236.362,818.588z"/>
		
			<ellipse transform="matrix(0.2298 -0.9732 0.9732 0.2298 74.0612 1836.4026)" style="fill:#4D5768;" cx="1197.228" cy="871.411" rx="51.398" ry="51.398"/>
		<path style="fill:#383F4C;" d="M1236.708,869.919c0,22.629-18.344,40.973-40.972,40.973c-22.629,0-40.973-18.344-40.973-40.973
			c0-22.628,18.344-40.973,40.973-40.973C1218.364,828.947,1236.708,847.291,1236.708,869.919z"/>
		
			<ellipse transform="matrix(0.0227 -0.9997 0.9997 0.0227 298.8527 2048.5405)" style="fill:#677589;" cx="1197.228" cy="871.411" rx="39.481" ry="39.48"/>
		
			<ellipse transform="matrix(0.9665 -0.2567 0.2567 0.9665 -183.5555 336.4819)" style="fill:#7A8BA0;" cx="1197.228" cy="871.411" rx="36.497" ry="36.497"/>
		<path style="opacity:0.22;fill:#FFFFFF;" d="M1174.67,853.365c-4.557,5.722-5.927,13.188-5.738,20.5
			c0.106,4.13,1.219,8.429,4.103,11.388c2.884,2.958,7.829,4.121,11.278,1.846c3.096-2.042,4.175-6.059,4.506-9.752
			c0.331-3.694,0.19-7.561,1.782-10.911c1.965-4.136,6.218-6.693,10.49-8.338c2.256-0.869,4.628-1.577,6.556-3.036
			c8.53-6.454,2.94-12.56-9.934-12.56C1188.527,842.502,1181.672,844.573,1174.67,853.365z"/>
	</g>
	<path style="fill:#892121;" d="M1796.846,793.025c-39.871,0-72.193,32.322-72.193,72.193h144.386
		C1869.038,825.348,1836.716,793.025,1796.846,793.025z"/>
	<g>
		
			<ellipse transform="matrix(0.331 -0.9436 0.9436 0.331 379.8612 2277.8484)" style="fill:#383F4C;" cx="1796.406" cy="871.023" rx="65.738" ry="65.739"/>
		<path d="M1835.54,818.2c13.739,12.049,22.415,29.73,22.415,49.439c0,36.307-29.433,65.738-65.738,65.738
			c-14.662,0-28.201-4.801-39.135-12.916c11.568,10.146,26.727,16.299,43.323,16.299c36.307,0,65.739-29.432,65.739-65.738
			C1862.145,849.378,1851.682,830.179,1835.54,818.2z"/>
		
			<ellipse transform="matrix(0.9436 -0.331 0.331 0.9436 -187.0485 643.7249)" style="fill:#4D5768;" cx="1796.405" cy="871.023" rx="51.398" ry="51.399"/>
		
			<ellipse transform="matrix(0.9665 -0.2567 0.2567 0.9665 -163.0507 489.8272)" style="fill:#383F4C;" cx="1794.914" cy="869.531" rx="40.973" ry="40.972"/>
		<path style="fill:#677589;" d="M1835.887,871.023c0,21.804-17.677,39.481-39.481,39.481s-39.48-17.676-39.48-39.481
			c0-21.805,17.676-39.481,39.48-39.481S1835.887,849.219,1835.887,871.023z"/>
		
			<ellipse transform="matrix(0.9436 -0.331 0.331 0.9436 -187.0486 643.7253)" style="fill:#7A8BA0;" cx="1796.405" cy="871.023" rx="36.497" ry="36.497"/>
		<path style="opacity:0.22;fill:#FFFFFF;" d="M1773.848,852.977c-4.557,5.722-5.926,13.188-5.738,20.5
			c0.106,4.13,1.22,8.429,4.103,11.388c2.884,2.958,7.829,4.12,11.278,1.846c3.096-2.042,4.175-6.059,4.506-9.753
			c0.332-3.693,0.19-7.561,1.781-10.911c1.966-4.136,6.219-6.692,10.491-8.338c2.256-0.869,4.628-1.577,6.556-3.036
			c8.53-6.455,2.94-12.561-9.934-12.56C1787.705,842.114,1780.85,844.185,1773.848,852.977z"/>
	</g>
	<polygon style="fill:#DBE4EB;" points="1296.068,618.804 1266.121,716.766 1266.121,826.244 1358.715,826.244 1357.056,618.804 	
		"/>
	<path style="fill:#394458;" d="M1234.346,618.804l-36.679,90.628h46.068c2.909,0,5.479-1.893,6.341-4.671l25.008-80.55
		c0.833-2.684-1.173-5.406-3.982-5.406H1234.346z"/>
	<path d="M1271.102,619.02h-36.756l-1.905,4.707h34.52c2.81,0,4.815,2.723,3.982,5.406l-24.862,80.082
		c1.874-0.709,3.377-2.243,3.996-4.238l25.008-80.55C1275.917,621.743,1273.911,619.02,1271.102,619.02z"/>
	<path style="fill:#394458;" d="M1425.699,709.431h-53.182c-3.055,0-5.531-2.477-5.531-5.531v-77.86
		c0-3.055,2.477-5.531,5.531-5.531h53.182c3.055,0,5.531,2.477,5.531,5.531v77.86
		C1431.23,706.955,1428.754,709.431,1425.699,709.431z"/>
	<path d="M1373.157,706.591v-77.859c0-3.055,2.477-5.531,5.532-5.531h52.001c-0.967-1.611-2.725-2.692-4.74-2.692h-53.182
		c-3.055,0-5.531,2.477-5.531,5.531v77.86c0,3.055,2.477,5.531,5.531,5.531h1.181C1373.449,708.6,1373.157,707.631,1373.157,706.591
		z"/>
	<path style="fill:#394458;" d="M1306.854,624.442h38.523c2.892,0,5.244,2.328,5.274,5.22l0.765,74.44
		c0.031,2.934-2.34,5.329-5.273,5.329h-62.235c-3.55,0-6.085-3.436-5.04-6.828l22.946-74.441
		C1302.495,625.951,1304.539,624.442,1306.854,624.442z"/>
	<path d="M1286.429,708.963l22.945-74.441c0.682-2.211,2.726-3.72,5.04-3.72h36.264l-0.012-1.14c-0.03-2.892-2.383-5.22-5.273-5.22
		h-38.524c-2.314,0-4.358,1.509-5.04,3.72l-22.946,74.441c-1.045,3.392,1.491,6.828,5.04,6.828h2.393
		C1286.348,709.275,1286.38,709.119,1286.429,708.963z"/>
	<path style="fill:#DBE4EB;" d="M1116.838,865.824h-43.596c-3.349,0-6.063-2.715-6.063-6.063v-27.454
		c0-3.349,2.715-6.064,6.063-6.064h43.596c3.349,0,6.063,2.714,6.063,6.064v27.454
		C1122.9,863.109,1120.187,865.824,1116.838,865.824z"/>
	<path style="fill:#CBD3D8;" d="M1116.407,826.244h-3.34v25.946c0,3.127-2.907,5.662-6.493,5.662h-39.396v2.31
		c0,3.127,2.907,5.662,6.493,5.662h42.735c3.586,0,6.493-2.535,6.493-5.662v-28.257
		C1122.9,828.779,1119.993,826.244,1116.407,826.244z"/>
	<rect x="1462.151" y="723.152" style="fill:#DBE4EB;" width="427.75" height="36.491"/>
	
		<rect x="1552.604" y="601.485" transform="matrix(0.9979 0.0643 -0.0643 0.9979 42.9549 -108.5615)" style="fill:#7A8BA0;" width="308.758" height="22.289"/>
	
		<rect x="1443.408" y="599.522" transform="matrix(0.9979 0.0643 -0.0643 0.9979 42.3139 -99.5864)" style="fill:#7A8BA0;" width="247.738" height="15.252"/>
	
		<rect x="1317.771" y="595.026" transform="matrix(0.9979 0.0643 -0.0643 0.9979 41.6575 -91.6526)" style="fill:#7A8BA0;" width="251.987" height="11.788"/>
	<polygon style="fill:#394458;" points="1553.642,591.575 1552.207,613.818 1563.377,614.538 1563.377,592.203 	"/>
	<polygon style="fill:#394458;" points="1444.155,591.567 1443.174,606.788 1453.701,607.833 1455.336,592.288 	"/>
	<polygon style="fill:#394458;" points="1318.411,586.931 1317.652,598.694 1328.917,599.421 1328.917,587.608 	"/>
	<g>
		<rect x="1469.083" y="652.686" style="fill:#4D5768;" width="404.202" height="6.524"/>
		<rect x="1469.083" y="702.907" style="fill:#4D5768;" width="404.202" height="6.524"/>
		<rect x="1492.031" y="655.948" style="fill:#4D5768;" width="4.484" height="50.221"/>
		<rect x="1531.811" y="655.948" style="fill:#4D5768;" width="4.484" height="50.221"/>
		<rect x="1571.589" y="655.948" style="fill:#4D5768;" width="4.485" height="50.221"/>
		<rect x="1611.368" y="655.948" style="fill:#4D5768;" width="4.485" height="50.221"/>
		<rect x="1651.147" y="655.948" style="fill:#4D5768;" width="4.485" height="50.221"/>
		<rect x="1690.927" y="655.948" style="fill:#4D5768;" width="4.485" height="50.221"/>
		<rect x="1730.706" y="659.21" style="fill:#4D5768;" width="4.485" height="50.221"/>
		<rect x="1770.485" y="659.21" style="fill:#4D5768;" width="4.485" height="50.221"/>
		<rect x="1810.265" y="659.21" style="fill:#4D5768;" width="4.485" height="50.221"/>
		<rect x="1850.043" y="659.21" style="fill:#4D5768;" width="4.486" height="50.221"/>
	</g>
	<g>
		<path style="fill:#892121;" d="M1622.106,854.455h-123.552c-5.581,0-10.122-4.54-10.122-10.122v-56.271
			c0-5.581,4.541-10.122,10.122-10.122h123.552c5.581,0,10.122,4.541,10.122,10.122v56.271
			C1632.229,849.915,1627.688,854.455,1622.106,854.455z M1498.555,781.059c-3.861,0-7.003,3.142-7.003,7.004v56.271
			c0,3.862,3.142,7.004,7.003,7.004h123.552c3.861,0,7.003-3.142,7.003-7.004v-56.271c0-3.862-3.142-7.004-7.003-7.004H1498.555z"/>
	</g>
	<rect x="1543.001" y="788.063" style="fill:#892121;" width="28.588" height="4.963"/>
	<rect x="1071.729" y="787.028" style="fill:#892121;" width="9.505" height="39.216"/>
	
		<rect x="1268.362" y="586.711" transform="matrix(-1.836970e-16 1 -1 -1.836970e-16 1874.9944 -671.2341)" style="fill:#892121;" width="9.505" height="30.338"/>
	<path style="fill:#DBE4EB;" d="M1071.729,790.956c0,0-11.745,0.454-12.305,14.611c-0.63,15.914,12.305,17.511,12.305,17.511
		V790.956z"/>
	<path style="fill:#FFFFFF;" d="M1062.31,800.671c-0.626,1.837-0.688,3.821-0.562,5.757c0.048,0.73,0.127,1.48,0.462,2.131
		c0.336,0.65,0.982,1.188,1.715,1.191c1.086,0.004,1.825-1.071,2.308-2.043c0.373-0.75,0.715-1.514,1.057-2.278
		c0.414-0.926,0.828-1.851,1.242-2.777c0.377-0.84,0.756-1.692,0.904-2.601c0.306-1.865-1.038-4.359-3.256-3.852
		C1064.321,796.625,1062.872,799.023,1062.31,800.671z"/>
	<path style="fill:#F43B3B;" d="M1098.81,751.183c0,0,7.054-8.195,61.921-14.914c42.291-5.179,99.236-3.523,99.236-3.523
		s1.793-9.587-11.341-14.013c-13.134-4.425-50.959-4.425-50.959-4.425s-45.79,7.375-66.178,14.75
		C1111.101,736.433,1098.81,751.183,1098.81,751.183z"/>
	<path style="fill:#F43B3B;" d="M1710.46,821.956h18.913c0,0,5.252-17.79,30.581-27.325c16.544-6.228,40.653-6.205,40.653-6.205
		l0.401-6.993c0,0-30.073-4.26-57.295,7.043C1720.825,797.979,1710.46,821.956,1710.46,821.956z"/>
	<path style="fill:#F43B3B;" d="M1112.473,814.068h18.913c0,0,5.252-17.79,30.581-27.325c16.544-6.228,40.653-6.206,40.653-6.206
		l0.401-6.993c0,0-30.074-4.26-57.296,7.043C1122.838,790.092,1112.473,814.068,1112.473,814.068z"/>
	<path style="fill:#F43B3B;" d="M1214.023,618.096l39.34,0.708c0,0-1.258-0.393,1.572-4.266c2.83-3.873,13.521-7.905,13.521-7.905
		s-40.024-1.834-46.85,1.2S1214.023,618.096,1214.023,618.096z"/>
	<path style="fill:#F43B3B;" d="M1864.017,648.916h-390.673c-2.344,0-4.261-1.917-4.261-4.261l0,0c0-2.344,1.917-4.261,4.261-4.261
		h390.673c2.344,0,4.261,1.918,4.261,4.261l0,0C1868.277,646.999,1866.36,648.916,1864.017,648.916z"/>
	<path style="fill:#F43B3B;" d="M1879.742,772.69H1474.13c-1.165,0-2.118-0.953-2.118-2.118v-0.024c0-1.165,0.953-2.119,2.118-2.119
		h405.612c1.165,0,2.118,0.954,2.118,2.119v0.024C1881.86,771.737,1880.907,772.69,1879.742,772.69z"/>
	<rect x="1269.86" y="862.791" style="fill:#7A8BA0;" width="91.499" height="10.817"/>
	<rect x="1269.86" y="871.723" style="fill:#4D5768;" width="91.499" height="6.392"/>
	<g>
		<path style="fill:#CE332F;" d="M1295.769,752.541h7.377v3.352h-3.021v3.176h2.69v3.187h-2.69v7.036h-4.355V752.541z"/>
		<path style="fill:#CE332F;" d="M1308.557,752.541v16.75h-4.355v-16.75H1308.557z"/>
		<path style="fill:#CE332F;" d="M1310.305,752.541h3.084c2.056,0,3.447,0.079,4.175,0.238s1.32,0.564,1.779,1.216
			c0.459,0.652,0.688,1.691,0.688,3.119c0,1.304-0.162,2.18-0.486,2.628c-0.324,0.449-0.963,0.718-1.914,0.807
			c0.862,0.214,1.441,0.5,1.738,0.859c0.296,0.358,0.48,0.688,0.553,0.988c0.072,0.3,0.109,1.126,0.109,2.477v4.418h-4.046v-5.566
			c0-0.896-0.07-1.452-0.212-1.666c-0.142-0.214-0.513-0.321-1.112-0.321v7.553h-4.356V752.541z M1314.661,755.406v3.725
			c0.489,0,0.833-0.067,1.029-0.202c0.196-0.134,0.295-0.571,0.295-1.309v-0.92c0-0.531-0.095-0.879-0.284-1.045
			C1315.511,755.489,1315.164,755.406,1314.661,755.406z"/>
		<path style="fill:#CE332F;" d="M1321.717,752.541h7.264v3.352h-2.907v3.176h2.721v3.187h-2.721v3.684h3.197v3.352h-7.554V752.541z
			"/>
		<path style="fill:#CE332F;" d="M1287.921,783.037h-4.046v-1.242c0-0.579-0.052-0.948-0.155-1.107
			c-0.103-0.159-0.275-0.238-0.517-0.238c-0.263,0-0.461,0.107-0.595,0.321c-0.135,0.214-0.202,0.539-0.202,0.973
			c0,0.56,0.076,0.98,0.227,1.263c0.145,0.283,0.555,0.624,1.231,1.024c1.938,1.151,3.16,2.095,3.663,2.833
			c0.504,0.738,0.756,1.928,0.756,3.569c0,1.193-0.14,2.073-0.419,2.639c-0.279,0.565-0.819,1.04-1.619,1.422
			c-0.801,0.383-1.731,0.574-2.794,0.574c-1.166,0-2.161-0.221-2.984-0.662c-0.824-0.441-1.364-1.003-1.619-1.687
			c-0.256-0.683-0.383-1.652-0.383-2.907v-1.097h4.045v2.038c0,0.628,0.057,1.031,0.171,1.21c0.113,0.18,0.315,0.27,0.604,0.27
			c0.29,0,0.506-0.114,0.647-0.342c0.141-0.228,0.212-0.565,0.212-1.014c0-0.986-0.135-1.631-0.404-1.935
			c-0.275-0.303-0.955-0.811-2.037-1.521c-1.083-0.717-1.801-1.238-2.152-1.562c-0.352-0.324-0.644-0.772-0.874-1.345
			c-0.231-0.572-0.347-1.304-0.347-2.193c0-1.283,0.163-2.221,0.491-2.814c0.327-0.593,0.856-1.057,1.588-1.392
			c0.731-0.334,1.614-0.502,2.648-0.502c1.132,0,2.096,0.183,2.893,0.548c0.796,0.366,1.324,0.826,1.583,1.381
			c0.258,0.555,0.388,1.498,0.388,2.83V783.037z"/>
		<path style="fill:#CE332F;" d="M1289.648,777.967h7.264v3.353h-2.908v3.176h2.722v3.187h-2.722v3.684h3.197v3.352h-7.553V777.967z
			"/>
		<path style="fill:#CE332F;" d="M1298.453,777.967h3.084c2.055,0,3.446,0.08,4.175,0.238c0.728,0.159,1.32,0.564,1.779,1.215
			c0.458,0.652,0.688,1.692,0.688,3.12c0,1.304-0.162,2.18-0.487,2.628c-0.324,0.448-0.962,0.717-1.913,0.807
			c0.861,0.214,1.441,0.5,1.737,0.859c0.297,0.358,0.481,0.688,0.554,0.988c0.072,0.3,0.109,1.126,0.109,2.478v4.418h-4.046v-5.566
			c0-0.897-0.071-1.452-0.212-1.666c-0.142-0.214-0.513-0.321-1.112-0.321v7.553h-4.356V777.967z M1302.81,780.833v3.725
			c0.489,0,0.833-0.067,1.029-0.202c0.196-0.135,0.295-0.571,0.295-1.309v-0.92c0-0.531-0.095-0.88-0.284-1.046
			C1303.659,780.916,1303.313,780.833,1302.81,780.833z"/>
		<path style="fill:#CE332F;" d="M1320.223,777.967l-2.217,16.751h-6.617l-2.517-16.751h4.594c0.534,4.615,0.915,8.518,1.144,11.712
			c0.225-3.228,0.464-6.094,0.717-8.597l0.302-3.115H1320.223z"/>
		<path style="fill:#CE332F;" d="M1325.313,777.967v16.751h-4.355v-16.751H1325.313z"/>
		<path style="fill:#CE332F;" d="M1337.231,785.262h-4.355v-2.912c0-0.846-0.047-1.375-0.14-1.585
			c-0.093-0.209-0.299-0.314-0.615-0.314c-0.359,0-0.587,0.127-0.684,0.383c-0.097,0.255-0.145,0.807-0.145,1.655v7.781
			c0,0.814,0.048,1.345,0.145,1.593c0.097,0.248,0.314,0.373,0.652,0.373c0.324,0,0.536-0.125,0.636-0.374
			c0.101-0.249,0.15-0.833,0.15-1.753v-2.105h4.355v0.653c0,1.734-0.122,2.963-0.367,3.688c-0.245,0.726-0.786,1.361-1.624,1.907
			s-1.871,0.818-3.1,0.818c-1.275,0-2.327-0.231-3.155-0.693c-0.827-0.462-1.376-1.102-1.645-1.919
			c-0.27-0.817-0.403-2.047-0.403-3.689v-4.894c0-1.207,0.041-2.112,0.124-2.716c0.083-0.603,0.329-1.185,0.739-1.743
			s0.979-0.999,1.707-1.319s1.564-0.481,2.51-0.481c1.282,0,2.341,0.249,3.176,0.744s1.383,1.114,1.645,1.854
			c0.263,0.741,0.394,1.892,0.394,3.456V785.262z"/>
		<path style="fill:#CE332F;" d="M1338.794,777.967h7.263v3.353h-2.907v3.176h2.722v3.187h-2.722v3.684h3.197v3.352h-7.553V777.967z
			"/>
	</g>
	<g>
		<path style="fill:#DBE4EB;" d="M1397.338,767.212v6.913c0,1.57-0.085,2.714-0.256,3.431c-0.17,0.717-0.524,1.387-1.063,2.01
			c-0.537,0.623-1.186,1.071-1.945,1.344s-1.608,0.41-2.547,0.41c-1.238,0-2.267-0.143-3.086-0.429
			c-0.819-0.286-1.472-0.731-1.958-1.337c-0.486-0.606-0.832-1.244-1.037-1.914c-0.205-0.669-0.308-1.734-0.308-3.194v-7.232
			c0-1.903,0.165-3.328,0.493-4.275c0.329-0.947,0.981-1.707,1.958-2.278c0.978-0.572,2.162-0.858,3.553-0.858
			c1.135,0,2.15,0.198,3.047,0.595c0.896,0.397,1.565,0.881,2.01,1.453c0.443,0.571,0.744,1.216,0.902,1.933
			C1397.26,764.498,1397.338,765.642,1397.338,767.212z M1392.167,765.471c0-1.101-0.054-1.79-0.16-2.067
			c-0.106-0.277-0.356-0.416-0.749-0.416c-0.384,0-0.638,0.147-0.762,0.441s-0.186,0.975-0.186,2.042v10.113
			c0,1.203,0.058,1.929,0.173,2.176c0.115,0.247,0.365,0.371,0.749,0.371s0.636-0.145,0.755-0.435c0.12-0.29,0.18-0.943,0.18-1.959
			V765.471z"/>
		<path style="fill:#DBE4EB;" d="M1410.344,777.389v3.533h-11.38l0.003-2.957c3.371-5.513,5.375-8.924,6.01-10.234
			c0.637-1.31,0.955-2.332,0.955-3.066c0-0.563-0.097-0.983-0.289-1.261c-0.192-0.277-0.485-0.416-0.877-0.416
			c-0.395,0-0.687,0.154-0.88,0.461c-0.191,0.307-0.288,0.917-0.288,1.831v1.971h-4.634v-0.755c0-1.161,0.06-2.076,0.179-2.746
			c0.12-0.67,0.414-1.33,0.884-1.978c0.47-0.648,1.079-1.139,1.831-1.472c0.75-0.333,1.65-0.5,2.7-0.5
			c2.058,0,3.612,0.51,4.667,1.53c1.054,1.02,1.58,2.311,1.58,3.872c0,1.187-0.297,2.441-0.89,3.764
			c-0.593,1.323-2.341,4.13-5.242,8.423H1410.344z"/>
		<path style="fill:#DBE4EB;" d="M1422.377,760.197v13.543h1.473v3.533h-1.473v3.648h-5.172v-3.648h-6.145v-3.533l4.468-13.543
			H1422.377z M1417.205,773.74v-8.819l-2.285,8.819H1417.205z"/>
		<path style="fill:#DBE4EB;" d="M1432.323,760.197v20.725h-5.172V769.81c0-1.604-0.038-2.569-0.115-2.893
			c-0.077-0.324-0.288-0.569-0.634-0.736s-1.115-0.249-2.311-0.249h-0.512v-2.417c2.501-0.538,4.399-1.644,5.697-3.318H1432.323z"/>
	</g>
	<path style="fill:#3792ED;" d="M1264.37,588.58c-0.199,0.892-0.369,1.921,0.196,2.638c0.344,0.437,0.89,0.652,1.408,0.85
		c1.208,0.458,2.728,0.863,3.662-0.029c0.478-0.455,0.652-1.134,0.793-1.778c0.619-2.841,2.921-10.239-0.896-11.731
		C1265.234,576.848,1264.936,586.044,1264.37,588.58z"/>
	<polygon style="opacity:0.23;fill:#FFFFFF;" points="1206.684,687.152 1262.898,619.02 1271.102,619.02 1203.021,709.431 
		1197.667,709.431 	"/>
	<polygon style="opacity:0.23;fill:#FFFFFF;" points="1218.854,709.431 1265.131,656.131 1261.099,669.473 1234.385,709.215 	"/>
	<polygon style="opacity:0.23;fill:#FFFFFF;" points="1293.812,654.17 1334.635,624.442 1345.393,624.442 1286.55,677.729 	"/>
	<polygon style="opacity:0.23;fill:#FFFFFF;" points="1291.969,709.431 1350.678,658.024 1351.417,676.776 1326.204,709.431 	"/>
	<path style="opacity:0.23;fill:#FFFFFF;" d="M1367.237,645.465l30.534-24.945l15.828-0.011c0,0-46.103,54.03-46.362,52.998
		C1366.977,672.475,1367.237,645.465,1367.237,645.465z"/>
	<path style="opacity:0.23;fill:#FFFFFF;" d="M1382.116,709.431l49.114-56.745c0,0.865,0,27.187,0,27.187l-18.319,29.559H1382.116z"
		/>
	<g>
		<path style="fill:#892121;" d="M1071.729,826.244v-39.216V826.244z"/>
		<path style="fill:#DBE4EB;" d="M1071.729,823.078v-32.122c0,0-11.745,0.454-12.305,14.611
			C1058.794,821.48,1071.729,823.078,1071.729,823.078L1071.729,823.078z"/>
		<path style="fill:#FFFFFF;" d="M1062.31,800.671c-0.626,1.837-0.688,3.821-0.562,5.757c0.048,0.73,0.127,1.48,0.462,2.131
			c0.336,0.65,0.982,1.188,1.715,1.191c1.086,0.004,1.825-1.071,2.308-2.043c0.373-0.75,0.715-1.514,1.057-2.278
			c0.414-0.926,0.828-1.851,1.242-2.777c0.377-0.84,0.756-1.692,0.904-2.601c0.306-1.865-1.038-4.359-3.256-3.852
			C1064.321,796.625,1062.872,799.023,1062.31,800.671z"/>
	</g>
</g>
<g>
	<path style="fill:#CBD3D8;" d="M1140.966,425.698h-52.2c-9.409,0-17.037-7.628-17.037-17.038V189.056
		c0-9.41,7.628-17.038,17.037-17.038h52.2V425.698z"/>
	<rect x="1080.307" y="204.528" style="fill:#892121;" width="9.506" height="47.78"/>
	<path style="fill:#DBE4EB;" d="M1080.307,209.314c0,0-11.745,0.553-12.305,17.801c-0.63,19.389,12.305,21.335,12.305,21.335
		V209.314z"/>
	<path style="fill:#FFFFFF;" d="M1070.888,221.151c-0.627,2.238-0.688,4.654-0.561,7.014c0.047,0.89,0.126,1.803,0.462,2.596
		c0.335,0.793,0.982,1.448,1.714,1.452c1.086,0.005,1.825-1.305,2.308-2.489c0.373-0.914,0.715-1.845,1.057-2.775
		c0.414-1.128,0.828-2.256,1.243-3.383c0.376-1.024,0.755-2.062,0.904-3.169c0.305-2.272-1.038-5.311-3.257-4.693
		C1072.899,216.221,1071.451,219.142,1070.888,221.151z"/>
	<g>
		<rect x="1080.248" y="339.357" style="fill:#892121;" width="9.506" height="47.781"/>
		<path style="fill:#DBE4EB;" d="M1080.248,344.143c0,0-11.745,0.554-12.305,17.801c-0.63,19.389,12.305,21.336,12.305,21.336
			V344.143z"/>
		<path style="fill:#FFFFFF;" d="M1070.83,355.981c-0.627,2.238-0.688,4.655-0.563,7.015c0.048,0.89,0.127,1.803,0.463,2.596
			c0.335,0.793,0.982,1.449,1.714,1.452c1.086,0.005,1.825-1.305,2.308-2.489c0.373-0.914,0.715-1.845,1.057-2.776
			c0.414-1.128,0.828-2.255,1.243-3.383c0.376-1.024,0.755-2.061,0.904-3.168c0.305-2.272-1.038-5.312-3.257-4.693
			C1072.841,351.051,1071.393,353.972,1070.83,355.981z"/>
	</g>
	<path style="fill:#F43B3B;" d="M1248.626,179.509h-133.221c-15.427,0-27.933,12.506-27.933,27.933v182.833
		c0,15.427,12.506,27.933,27.933,27.933h133.221V179.509z"/>
	<rect x="1462.151" y="162.479" style="fill:#CE332F;" width="427.75" height="272.759"/>
	<path style="fill:#394458;" d="M1258.219,184.309c0,0-66.976-4.328-68.965,41.627v140.497c2.74,41.594,66.616,47.082,66.616,47.082
		L1258.219,184.309z"/>
	<rect x="1445.435" y="198.964" style="fill:#394458;" width="16.717" height="199.788"/>
	<path style="fill:#CE332F;" d="M1446.66,179.509h-195.843c-18.396,0-33.309,14.913-33.309,33.308v172.082
		c0,18.396,14.913,33.308,33.309,33.308h195.843V179.509z"/>
	<path style="fill:#F43B3B;" d="M1231.444,386.605V221.438c0-20.305,13.51-36.766,30.176-36.766h185.04v-5.14h-198.976
		c-16.665,0-30.176,16.461-30.176,36.766v165.167c0,19.685,12.697,35.755,28.658,36.719
		C1237.351,411.766,1231.444,400.027,1231.444,386.605z"/>
	<path style="fill:#CE332F;" d="M1180.006,224.297c0,0-15.268-2.663-43.65,6.116c-22.853,7.068-34.429,27.592-34.429,27.592v40.853
		v0.154v40.853c0,0,11.576,20.523,34.429,27.592c28.383,8.779,43.65,6.115,43.65,6.115s-8.729-29.306-8.595-74.637
		C1171.276,253.604,1180.006,224.297,1180.006,224.297z"/>
	<g>
		<path style="fill:#892121;" d="M1284.303,235.988c0,11.248-7.484,20.367-16.716,20.367c-9.232,0-16.717-9.119-16.717-20.367
			c0-11.248,7.484-20.366,16.717-20.366C1276.818,215.622,1284.303,224.74,1284.303,235.988z"/>
		<path style="fill:#3F48EF;" d="M1280.148,235.988c0,8.453-5.624,15.306-12.562,15.306c-6.938,0-12.563-6.852-12.563-15.306
			c0-8.453,5.624-15.306,12.563-15.306C1274.524,220.683,1280.148,227.535,1280.148,235.988z"/>
	</g>
	<g>
		<g>
			<path style="fill:#892121;" d="M1287.916,363.248c0,11.248-7.483,20.366-16.716,20.366c-9.231,0-16.716-9.118-16.716-20.366
				c0-11.248,7.484-20.367,16.716-20.367C1280.433,342.881,1287.916,352,1287.916,363.248z"/>
			<path style="fill:#3F48EF;" d="M1283.763,363.248c0,8.453-5.624,15.305-12.563,15.305c-6.938,0-12.563-6.852-12.563-15.305
				c0-8.453,5.625-15.306,12.563-15.306C1278.139,347.942,1283.763,354.795,1283.763,363.248z"/>
		</g>
		<path style="fill:#3792ED;" d="M1272.496,353.637l-2.539-0.368c-2.162,1.012-4.266,2.433-5.663,4.619
			c-1.396,2.186-1.958,5.259-0.937,7.716c1.021,2.456,3.855,3.825,5.861,2.439c0.839-0.58,1.441-1.524,2.02-2.444
			c1.412-2.244,2.824-4.487,4.236-6.73c0.354-0.562,0.725-1.192,0.672-1.888C1276.003,355.097,1273.363,355.23,1272.496,353.637z"/>
	</g>
	<path style="fill:#3792ED;" d="M1263.826,226.903c-2.234,1.086-4.271,3.406-4.463,6.328c-0.191,2.921,2.239,5.94,4.511,4.976
		c2.407-1.021,2.811-5.097,4.814-7.016c0.809-0.774,1.83-1.144,2.678-1.852c0.849-0.708,1.537-2.009,1.163-3.176
		c-0.314-0.983-1.239-1.443-2.091-1.635c-2.236-0.503-4.632,0.159-6.472,1.788L1263.826,226.903z"/>
	<g>
		<rect x="1593.001" y="329.36" style="fill:#7A8BA0;" width="278.97" height="23.866"/>
		<rect x="1593.001" y="245.6" style="fill:#7A8BA0;" width="278.97" height="23.866"/>
		<g>
			<rect x="1638.388" y="269.465" style="fill:#7A8BA0;" width="5.54" height="59.895"/>
			<rect x="1674.236" y="269.465" style="fill:#7A8BA0;" width="5.541" height="59.895"/>
			<rect x="1710.086" y="269.465" style="fill:#7A8BA0;" width="5.54" height="59.895"/>
			<rect x="1745.935" y="269.465" style="fill:#7A8BA0;" width="5.54" height="59.895"/>
			<rect x="1781.783" y="269.465" style="fill:#7A8BA0;" width="5.541" height="59.895"/>
			<rect x="1817.633" y="269.465" style="fill:#7A8BA0;" width="5.54" height="59.895"/>
			<rect x="1853.481" y="269.465" style="fill:#7A8BA0;" width="5.541" height="59.895"/>
			<rect x="1602.538" y="269.465" style="fill:#7A8BA0;" width="5.541" height="59.895"/>
		</g>
		<rect x="1315.971" y="329.36" style="fill:#7A8BA0;" width="278.97" height="23.866"/>
		<rect x="1315.971" y="245.6" style="fill:#7A8BA0;" width="278.97" height="23.866"/>
		<g>
			<rect x="1361.357" y="269.465" style="fill:#7A8BA0;" width="5.541" height="59.895"/>
			<rect x="1397.206" y="269.465" style="fill:#7A8BA0;" width="5.541" height="59.895"/>
			<rect x="1433.056" y="269.465" style="fill:#7A8BA0;" width="5.54" height="59.895"/>
			<rect x="1468.904" y="269.465" style="fill:#7A8BA0;" width="5.541" height="59.895"/>
			<rect x="1504.754" y="269.465" style="fill:#7A8BA0;" width="5.54" height="59.895"/>
			<rect x="1540.603" y="269.465" style="fill:#7A8BA0;" width="5.54" height="59.895"/>
			<rect x="1576.451" y="269.465" style="fill:#7A8BA0;" width="5.541" height="59.895"/>
			<rect x="1325.508" y="269.465" style="fill:#7A8BA0;" width="5.541" height="59.895"/>
		</g>
	</g>
	<rect x="1462.151" y="179.532" style="fill:#F43B3B;" width="427.75" height="19.432"/>
	<rect x="1462.151" y="389.036" style="fill:#F43B3B;" width="427.75" height="19.432"/>
	<rect x="1315.971" y="251.301" style="fill:#CBD3D8;" width="556" height="10.755"/>
	<rect x="1315.971" y="335.061" style="fill:#CBD3D8;" width="556" height="10.755"/>
</g>
<g>
	<path style="fill:#797D7F;" d="M169.708,431.066H124.2c-8.7,0-15.752-7.053-15.752-15.752V183.645
		c0-8.7,7.052-15.752,15.752-15.752h45.509V431.066z"/>
	<path style="fill:#F43B3B;" d="M366.993,180.383H158.539c-19.119,0-34.618,15.499-34.618,34.618v173.836
		c0,19.119,15.499,34.618,34.618,34.618h208.455V180.383z"/>
	<path style="fill:#DBE4EB;" d="M356.04,180.272h-48.998c-26.414,1.346-70.338,31.207-70.338,44.677l-1.044,150.172
		c0,13.47,53.279,50.06,69.905,47.834l50.476,0.612V180.272z"/>
	<g>
		<rect x="113.031" y="347.499" style="fill:#892121;" width="10.325" height="42.595"/>
		<path style="fill:#DBE4EB;" d="M113.031,351.765c0,0-12.757,0.494-13.365,15.87c-0.684,17.285,13.365,19.02,13.365,19.02V351.765z
			"/>
		<path style="fill:#FFFFFF;" d="M102.801,362.318c-0.681,1.995-0.747,4.149-0.61,6.253c0.052,0.793,0.138,1.607,0.502,2.314
			c0.364,0.707,1.067,1.291,1.862,1.294c1.179,0.005,1.982-1.163,2.506-2.219c0.405-0.814,0.776-1.645,1.148-2.474
			c0.45-1.006,0.9-2.011,1.35-3.017c0.408-0.913,0.82-1.838,0.982-2.825c0.332-2.025-1.127-4.735-3.538-4.184
			C104.985,357.922,103.412,360.527,102.801,362.318z"/>
	</g>
	<g>
		<rect x="113.814" y="210.384" style="fill:#892121;" width="10.324" height="42.595"/>
		<path style="fill:#DBE4EB;" d="M113.814,214.65c0,0-12.757,0.493-13.365,15.87c-0.684,17.285,13.365,19.02,13.365,19.02V214.65z"
			/>
		<path style="fill:#FFFFFF;" d="M103.584,225.203c-0.681,1.995-0.747,4.149-0.61,6.253c0.052,0.794,0.138,1.607,0.502,2.314
			c0.364,0.707,1.067,1.292,1.863,1.294c1.179,0.005,1.982-1.163,2.506-2.219c0.405-0.814,0.776-1.645,1.147-2.475
			c0.45-1.005,0.9-2.011,1.35-3.016c0.409-0.913,0.821-1.838,0.982-2.825c0.332-2.025-1.128-4.735-3.538-4.184
			C105.769,220.808,104.195,223.412,103.584,225.203z"/>
	</g>
	<path style="fill:#394458;" d="M317.515,199.802c0,0-72.747-3.858-74.907,37.11v125.25c2.976,37.08,72.356,41.973,72.356,41.973
		L317.515,199.802z"/>
	<path style="fill:#DBE4EB;" d="M229.586,219.185c0,0-16.583-2.887-47.411,6.629c-24.821,7.662-37.395,29.909-37.395,29.909v44.283
		v0.168v44.283c0,0,12.574,22.247,37.395,29.909c30.829,9.516,47.411,6.629,47.411,6.629s-3.394-32.376-3.247-81.514
		C226.192,250.342,229.586,219.185,229.586,219.185z"/>
	<rect x="425.309" y="178.658" style="fill:#DBE4EB;" width="450.968" height="246.524"/>
	<rect x="416.315" y="207.663" style="fill:#394458;" width="9.315" height="188.513"/>
	<path style="fill:#CE332F;" d="M416.315,180.272h-96.158c-13.471,0-24.39,10.92-24.39,24.39v194.515
		c0,13.47,10.919,24.39,24.39,24.39h96.158V180.272z"/>
	<path style="fill:#F43B3B;" d="M303.335,411.637V217.122c0-13.47,10.92-24.39,24.39-24.39h88.59v-11.934h-96.158
		c-13.471,0-24.39,10.92-24.39,24.391v194.515c0,7.378,3.281,13.986,8.458,18.458C303.648,416.084,303.335,413.898,303.335,411.637z
		"/>
	<g>
		<g>
			
				<ellipse transform="matrix(0.2298 -0.9732 0.9732 0.2298 -110.6909 633.4445)" style="fill:#892121;" cx="344.851" cy="386.654" rx="18.156" ry="18.156"/>
			<path style="fill:#3F48EF;" d="M358.495,386.654c0,7.536-6.108,13.645-13.645,13.645c-7.536,0-13.645-6.109-13.645-13.645
				c0-7.536,6.109-13.645,13.645-13.645C352.387,373.01,358.495,379.119,358.495,386.654z"/>
		</g>
		<path style="fill:#3792ED;" d="M346.258,378.087l-2.757-0.329c-2.349,0.903-4.633,2.169-6.151,4.118
			c-1.518,1.949-2.127,4.689-1.018,6.879c1.109,2.19,4.188,3.41,6.366,2.173c0.912-0.517,1.565-1.359,2.194-2.179
			c1.533-2,3.067-4,4.601-6c0.384-0.5,0.787-1.063,0.729-1.683C350.067,379.388,347.2,379.507,346.258,378.087z"/>
	</g>
	<g>
		<g>
			
				<ellipse transform="matrix(0.7071 -0.7071 0.7071 0.7071 -60.5252 309.218)" style="fill:#892121;" cx="342.997" cy="227.669" rx="18.156" ry="18.156"/>
			<path style="fill:#3F48EF;" d="M356.641,227.669c0,7.536-6.109,13.645-13.645,13.645c-7.536,0-13.645-6.109-13.645-13.645
				c0-7.536,6.109-13.645,13.645-13.645C350.532,214.025,356.641,220.134,356.641,227.669z"/>
		</g>
		<path style="fill:#3792ED;" d="M344.403,219.102l-2.757-0.328c-2.349,0.902-4.633,2.169-6.151,4.118
			c-1.518,1.949-2.127,4.688-1.018,6.878c1.109,2.19,4.188,3.41,6.367,2.174c0.912-0.517,1.565-1.359,2.194-2.179
			c1.534-2,3.067-4,4.602-6c0.384-0.501,0.787-1.063,0.73-1.683C348.213,220.403,345.346,220.523,344.403,219.102z"/>
	</g>
	<polygon style="fill:#CE332F;" points="208.474,293.039 193.494,293.039 193.494,278.059 180.613,278.059 180.613,293.039 
		165.632,293.039 165.632,305.92 180.613,305.92 180.613,320.901 193.494,320.901 193.494,305.92 208.474,305.92 	"/>
	<polygon style="fill:#CE332F;" points="568.424,288.476 545.408,288.476 545.408,265.46 525.619,265.46 525.619,288.476 
		502.603,288.476 502.603,308.265 525.619,308.265 525.619,331.28 545.408,331.28 545.408,308.265 568.424,308.265 	"/>
	<g>
		<path style="fill:#CE332F;" d="M626.31,285.368l4.925,33.104h-8.796l-0.464-5.95h-3.081l-0.518,5.95h-8.898l4.393-33.104H626.31z
			 M621.75,306.653c-0.437-3.749-0.873-8.383-1.312-13.904c-0.876,6.339-1.428,10.974-1.653,13.904H621.75z"/>
		<path style="fill:#CE332F;" d="M659.257,285.368v33.104h-7.525l-0.01-22.349l-2.996,22.349h-5.337l-3.159-21.837l-0.01,21.837
			h-7.524v-33.104h11.137c0.331,1.99,0.671,4.336,1.023,7.037l1.224,8.421l1.979-15.458H659.257z"/>
		<path style="fill:#CE332F;" d="M662.713,285.368h8.588c2.713,0,4.768,0.211,6.165,0.634c1.397,0.422,2.525,1.276,3.384,2.564
			c0.859,1.287,1.288,3.36,1.288,6.221c0,1.936-0.303,3.283-0.91,4.047c-0.607,0.762-1.803,1.348-3.588,1.757
			c1.99,0.45,3.339,1.196,4.048,2.24c0.709,1.043,1.063,2.643,1.063,4.797v3.069c0,2.237-0.255,3.895-0.767,4.972
			c-0.511,1.079-1.326,1.814-2.443,2.21c-1.118,0.396-3.408,0.593-6.87,0.593h-9.958V285.368z M671.321,291.031v7.361
			c0.368-0.014,0.654-0.021,0.858-0.021c0.846,0,1.384-0.208,1.616-0.624c0.232-0.416,0.348-1.605,0.348-3.568
			c0-1.036-0.095-1.762-0.287-2.177c-0.19-0.416-0.439-0.678-0.746-0.788C672.804,291.106,672.207,291.045,671.321,291.031z
			 M671.321,303.545v9.263c1.213-0.041,1.987-0.232,2.321-0.573c0.334-0.341,0.501-1.179,0.501-2.515v-3.087
			c0-1.418-0.15-2.276-0.45-2.576C673.393,303.757,672.602,303.586,671.321,303.545z"/>
		<path style="fill:#CE332F;" d="M705.407,285.368v22.124c0,2.508-0.082,4.27-0.246,5.286c-0.164,1.016-0.647,2.058-1.452,3.128
			c-0.805,1.07-1.864,1.881-3.18,2.433c-1.315,0.552-2.866,0.828-4.652,0.828c-1.976,0-3.721-0.327-5.234-0.982
			c-1.513-0.654-2.644-1.506-3.394-2.556c-0.75-1.05-1.192-2.157-1.329-3.323c-0.137-1.165-0.205-3.616-0.205-7.351v-19.588h8.608
			v24.823c0,1.445,0.079,2.368,0.235,2.771c0.157,0.402,0.474,0.603,0.951,0.603c0.545,0,0.896-0.222,1.053-0.665
			c0.157-0.443,0.235-1.489,0.235-3.139v-24.393H705.407z"/>
		<path style="fill:#CE332F;" d="M717.348,285.368v26.479h5.235v6.625H708.74v-33.104H717.348z"/>
		<path style="fill:#CE332F;" d="M740.59,285.368l4.925,33.104h-8.796l-0.463-5.95h-3.081l-0.518,5.95h-8.898l4.393-33.104H740.59z
			 M736.03,306.653c-0.436-3.749-0.872-8.383-1.312-13.904c-0.876,6.339-1.428,10.974-1.653,13.904H736.03z"/>
		<path style="fill:#CE332F;" d="M766.197,285.368v33.104h-7.545l-4.478-15.049v15.049h-7.197v-33.104h7.197L759,300.273v-14.906
			H766.197z"/>
		<path style="fill:#CE332F;" d="M789.752,299.783h-8.608v-5.754c0-1.671-0.092-2.716-0.276-3.132
			c-0.184-0.414-0.59-0.622-1.217-0.622c-0.709,0-1.159,0.252-1.35,0.756c-0.19,0.504-0.286,1.595-0.286,3.272v15.376
			c0,1.608,0.096,2.658,0.286,3.149c0.191,0.491,0.62,0.736,1.288,0.736c0.641,0,1.06-0.245,1.258-0.738
			c0.198-0.493,0.296-1.646,0.296-3.464v-4.161h8.608v1.29c0,3.427-0.242,5.856-0.726,7.29c-0.484,1.435-1.554,2.69-3.21,3.769
			c-1.656,1.079-3.698,1.617-6.124,1.617c-2.522,0-4.601-0.457-6.236-1.37c-1.636-0.913-2.72-2.177-3.252-3.793
			c-0.532-1.615-0.797-4.045-0.797-7.289v-9.672c0-2.385,0.082-4.175,0.246-5.367c0.164-1.193,0.651-2.341,1.462-3.446
			c0.811-1.104,1.936-1.973,3.374-2.607c1.439-0.634,3.091-0.951,4.959-0.951c2.535,0,4.627,0.491,6.277,1.471
			c1.649,0.979,2.733,2.201,3.251,3.665c0.518,1.463,0.777,3.74,0.777,6.83V299.783z"/>
		<path style="fill:#CE332F;" d="M792.84,285.368h14.354v6.625h-5.746v6.277h5.378v6.297h-5.378v7.279h6.318v6.625H792.84V285.368z"
			/>
	</g>
	<g>
		<path style="fill:#CE332F;" d="M535.514,350.923c-28.978,0-52.553-23.575-52.553-52.553c0-28.977,23.575-52.553,52.553-52.553
			c28.978,0,52.553,23.575,52.553,52.553C588.066,327.348,564.491,350.923,535.514,350.923z M535.514,248.71
			c-27.383,0-49.661,22.277-49.661,49.66c0,27.383,22.277,49.661,49.661,49.661c27.383,0,49.66-22.277,49.66-49.661
			C585.174,270.987,562.896,248.71,535.514,248.71z"/>
	</g>
	<path style="fill:#FFFFFF;" d="M858.918,201.868H449.896c-2.418,0-4.396-1.978-4.396-4.396v-2.771c0-2.418,1.978-4.396,4.396-4.396
		h409.023c2.418,0,4.396,1.978,4.396,4.396v2.771C863.314,199.89,861.336,201.868,858.918,201.868z"/>
	<path style="fill:#FFFFFF;" d="M861.282,414.015H452.26c-2.418,0-4.396-1.978-4.396-4.396v-2.771c0-2.418,1.978-4.396,4.396-4.396
		h409.022c2.417,0,4.396,1.978,4.396,4.396v2.771C865.678,412.037,863.7,414.015,861.282,414.015z"/>
</g>
<g>
	<path style="fill:#FFA039;" d="M982.07,1403.832h30.873v-317.087H982.07c-6.368,0-11.529,5.162-11.529,11.529v294.028
		C970.541,1398.67,975.703,1403.832,982.07,1403.832z"/>
	<g>
		<rect x="977.433" y="1322.7" style="fill:#E57B07;" width="10.628" height="53.946"/>
		<path style="fill:#DBE4EB;" d="M977.433,1328.104c0,0-13.132,0.625-13.758,20.099c-0.704,21.891,13.758,24.089,13.758,24.089
			V1328.104z"/>
		<path style="fill:#FFFFFF;" d="M966.901,1341.469c-0.701,2.527-0.769,5.256-0.628,7.92c0.053,1.005,0.142,2.035,0.517,2.931
			c0.374,0.896,1.099,1.636,1.917,1.64c1.214,0.006,2.04-1.474,2.581-2.811c0.416-1.031,0.799-2.083,1.181-3.134
			c0.463-1.273,0.926-2.547,1.389-3.82c0.421-1.155,0.845-2.328,1.011-3.577c0.341-2.565-1.161-5.997-3.642-5.3
			C969.15,1335.902,967.531,1339.2,966.901,1341.469z"/>
	</g>
	<g>
		<rect x="976.497" y="1106.789" style="fill:#E57B07;" width="10.639" height="53.946"/>
		<path style="fill:#DBE4EB;" d="M976.497,1112.192c0,0-13.146,0.625-13.772,20.099c-0.705,21.891,13.772,24.089,13.772,24.089
			V1112.192z"/>
		<path style="fill:#FFFFFF;" d="M965.955,1125.559c-0.702,2.526-0.77,5.255-0.628,7.919c0.053,1.005,0.142,2.036,0.517,2.931
			c0.375,0.896,1.1,1.636,1.919,1.64c1.215,0.006,2.042-1.474,2.583-2.811c0.417-1.031,0.8-2.083,1.183-3.134
			c0.463-1.273,0.927-2.547,1.391-3.82c0.421-1.155,0.846-2.327,1.012-3.577c0.341-2.565-1.162-5.997-3.645-5.299
			C968.206,1119.991,966.585,1123.29,965.955,1125.559z"/>
	</g>
	<rect x="1255.709" y="1086.745" style="fill:#FF8E06;" width="474.002" height="311.886"/>
	<rect x="1709.515" y="1071" style="fill:#E57B07;" width="20.413" height="343.377"/>
	<rect x="1869.488" y="1071.245" style="fill:#E57B07;" width="20.413" height="343.377"/>
	<rect x="1245.376" y="1108.094" style="fill:#4D5768;" width="10.966" height="261.194"/>
	<path style="fill:#FF8E06;" d="M1011.688,1398.631h233.384v-307.015H998.214c-6.342,0-11.483,5.142-11.483,11.483v270.574
		C986.731,1387.457,997.905,1398.631,1011.688,1398.631z"/>
	<path style="fill:#FFA039;" d="M1132.203,1121.117c0-4.929,3.252-8.925,7.262-8.925h105.911v-20.576h-119.717
		c-4.011,0-7.262,3.996-7.262,8.925v278.692c0,9.889,6.024,18.032,13.806,19.229V1121.117z"/>
	<path style="fill:#394458;" d="M1118.397,1381.728h-87.313c-6.749,0-12.22-6.725-12.22-15.02v-243.595
		c0-8.295,5.471-15.02,12.22-15.02h87.313V1381.728z"/>
	<rect x="1126.18" y="1151.005" style="fill:#FFA039;" width="118.893" height="18.1"/>
	<rect x="1126.18" y="1220.186" style="fill:#FFA039;" width="118.893" height="18.1"/>
	<rect x="1125.855" y="1289.366" style="fill:#FFA039;" width="118.893" height="18.1"/>
	<rect x="1125.855" y="1358.547" style="fill:#FFA039;" width="118.893" height="18.1"/>
	<rect x="1729.928" y="1086.745" style="fill:#FF8E06;" width="139.561" height="311.886"/>
	<rect x="1848.697" y="1086.745" style="fill:#E57B07;" width="7.363" height="311.886"/>
	<rect x="1723.982" y="1098.898" style="fill:#E57B07;" width="128.396" height="9.05"/>
	<rect x="1723.982" y="1129.12" style="fill:#E57B07;" width="128.396" height="9.05"/>
	<rect x="1723.982" y="1159.342" style="fill:#E57B07;" width="128.396" height="9.051"/>
	<rect x="1723.982" y="1189.564" style="fill:#E57B07;" width="128.396" height="9.05"/>
	<rect x="1723.982" y="1219.786" style="fill:#E57B07;" width="128.396" height="9.05"/>
	<rect x="1720.301" y="1250.009" style="fill:#E57B07;" width="128.396" height="9.05"/>
	<rect x="1720.301" y="1280.23" style="fill:#E57B07;" width="128.396" height="9.05"/>
	<rect x="1720.301" y="1310.452" style="fill:#E57B07;" width="128.396" height="9.05"/>
	<rect x="1720.301" y="1340.675" style="fill:#E57B07;" width="128.396" height="9.05"/>
	<rect x="1720.301" y="1370.896" style="fill:#E57B07;" width="128.396" height="9.05"/>
	<polygon style="fill:#E57B07;" points="1292.313,1212.656 1292.313,1119.315 1685.71,1119.315 1667.309,1138.048 
		1309.801,1138.048 1309.801,1189.564 	"/>
	<polygon style="fill:#E57B07;" points="1293.464,1284.828 1293.464,1378.17 1686.861,1378.17 1668.459,1359.437 1310.951,1359.437 
		1310.951,1307.921 	"/>
	<polygon style="opacity:0.23;fill:#FFFFFF;" points="1018.865,1160.055 1076.018,1108.094 1105.931,1108.094 1018.865,1217.747 	
		"/>
	<polygon style="opacity:0.23;fill:#FFFFFF;" points="1018.865,1273.742 1118.397,1148.177 1118.397,1188.9 1018.865,1328.104 	"/>
	<polygon style="opacity:0.23;fill:#FFFFFF;" points="1041.963,1381.728 1117.436,1279.964 1118.356,1325.778 1082.921,1381.728 	
		"/>
	<g>
		<g>
			<path style="fill:#E57B07;" d="M1195.16,1335.888c0,12.74-8.403,23.067-18.77,23.067c-10.365,0-18.769-10.327-18.769-23.067
				s8.403-23.068,18.769-23.068C1186.757,1312.819,1195.16,1323.147,1195.16,1335.888z"/>
			<path style="fill:#3F48EF;" d="M1190.496,1335.888c0,9.574-6.315,17.336-14.105,17.336s-14.104-7.762-14.104-17.336
				s6.314-17.336,14.104-17.336S1190.496,1326.313,1190.496,1335.888z"/>
		</g>
		<path style="fill:#3792ED;" d="M1177.846,1325.002l-2.85-0.417c-2.429,1.146-4.791,2.756-6.359,5.232
			c-1.569,2.477-2.198,5.957-1.052,8.739s4.328,4.332,6.581,2.762c0.942-0.657,1.618-1.727,2.268-2.769
			c1.586-2.541,3.172-5.082,4.757-7.622c0.396-0.637,0.813-1.351,0.754-2.139
			C1181.784,1326.655,1178.819,1326.807,1177.846,1325.002z"/>
	</g>
	<g>
		<g>
			<path style="fill:#E57B07;" d="M1194.423,1138.048c0,12.74-8.403,23.068-18.77,23.068c-10.365,0-18.769-10.328-18.769-23.068
				s8.403-23.067,18.769-23.067C1186.02,1114.98,1194.423,1125.308,1194.423,1138.048z"/>
			<path style="fill:#3F48EF;" d="M1189.759,1138.048c0,9.574-6.315,17.336-14.105,17.336s-14.104-7.762-14.104-17.336
				s6.314-17.336,14.104-17.336S1189.759,1128.474,1189.759,1138.048z"/>
		</g>
		<path style="fill:#3792ED;" d="M1177.108,1127.162l-2.851-0.417c-2.428,1.147-4.789,2.756-6.358,5.232s-2.198,5.957-1.052,8.739
			s4.328,4.332,6.581,2.762c0.942-0.657,1.618-1.727,2.268-2.768c1.586-2.541,3.172-5.082,4.757-7.623
			c0.396-0.636,0.813-1.351,0.754-2.138C1181.047,1128.816,1178.082,1128.968,1177.108,1127.162z"/>
	</g>
</g>
<g>
	<path style="fill:#385459;" d="M673.012,1160.037c17.372,1.927,30.86,4.48,37.436,7.854
		c24.924,12.794,23.142,119.324,23.142,119.324c0.381,18.32,0.988,104.478-20.92,116.25c-6.847,3.68-21.458,6.563-40.242,8.822
		l-0.005,2.334c29.439-2.497,53.523-6.051,62.938-11.11c21.908-11.772,21.301-97.929,20.92-116.249
		c0,0,1.782-106.531-23.142-119.324c-9.223-4.734-32.045-7.853-60.122-9.89L673.012,1160.037z"/>
	<path style="fill:#B7B6A5;" d="M208.106,1151.802c-34.496-0.07-64.652,21.948-80.951,34.505
		c-15.565,11.991-13.757,93.971-13.563,101.33c-0.229,7.357-2.417,89.329,13.093,101.384c16.24,12.623,46.294,34.766,80.79,34.836
		c34.496,0.071,280.016,0.574,280.02,0.574l0,0c0.003,0,206.358,0.423,238.778-17.381c21.909-12.032,21.306-100.074,20.926-118.796
		c0,0,1.787-108.862-23.136-121.935c-30.477-15.985-209.431-13.94-235.939-13.547l0.001-0.396
		C488.125,1152.376,242.602,1151.873,208.106,1151.802z"/>
	<path style="fill:#231F20;" d="M725.551,1166.944c-15.962-8.373-72.658-11.799-126.847-13.106
		c0.209,7.657,10.594,12.684,10.303,23.651c-0.19,7.165-5.359,10.039-6.546,16.607c-1.069,5.911,1.999,14.099,2.947,20.12
		c2.156,13.694,1.587,28.467,1.554,42.859c-0.075,32.281-2.009,63.913-2.083,96.205c-0.017,7.288-4.318,15.986-4.333,23.275
		c-0.018,8.415,6.294,11.404,8.676,18.909c2.588,8.154,1.015,20.169-5.552,27.278c53.419-2.219,108.602-6.564,124.09-15.069
		c21.909-12.032,21.307-100.074,20.926-118.796C748.687,1288.879,750.475,1180.017,725.551,1166.944z"/>
	<g>
		<path style="fill:#385459;" d="M113.436,1186.574c-15.565,11.991-13.757,93.972-13.563,101.33
			c-0.229,7.357-2.417,89.329,13.093,101.385c16.241,12.623,46.295,34.765,80.79,34.836c4.665,0.009,13.196,0.026,24.451,0.05
			c-34.496-0.071-64.549-22.213-80.79-34.836c-15.509-12.055-13.321-94.026-13.093-101.385
			c-0.194-7.358-2.002-89.339,13.563-101.329c16.299-12.557,46.455-34.575,80.951-34.505c-11.255-0.023-19.786-0.04-24.451-0.05
			C159.891,1151.999,129.734,1174.018,113.436,1186.574z"/>
	</g>
	<path style="fill:#231F20;" d="M110.175,1287.284c-0.229,7.358-2.416,89.33,13.092,101.385
		c16.241,12.623,46.294,34.766,80.79,34.836c11.547,0.023,46.743,0.096,88.458,0.182c-18.199-20.394-28.089-47.212-31.096-74.063
		c-5.005-44.693-5.513-77.948-3.495-97.383c2.87-27.642,11.962-78.108,31.524-100.616c-40.086-0.082-73.555-0.15-84.76-0.174
		c-34.496-0.07-64.652,21.948-80.951,34.505C108.173,1197.946,109.98,1279.926,110.175,1287.284z"/>
	<path style="fill:#FFFFFF;" d="M339.482,1205.254c-10.121,9.832-10.459,155.816-0.384,165.69
		c11.813,11.576,208.111,6.026,218.733-2.701c8.35-6.861,8.688-152.496,0.369-159.392
		C547.62,1200.08,351.349,1193.726,339.482,1205.254z"/>
	<path style="fill:#363D49;" d="M172.231,1201.572c-41.596,10.816-40.301,86.143-40.301,86.143s-1.645,75.32,39.901,86.308
		c22.075,5.838,98.825,12.894,98.825,12.894s-4.321-18.536-10.138-52.791c-3.573-21.043-3.457-71.264,0.214-92.292
		c5.976-34.23,10.381-52.832,10.381-52.832S194.332,1195.825,172.231,1201.572z"/>
	<path style="fill:#363D49;" d="M607.882,1196.012c0,0,7.417,28.58,8.21,43.38c1.164,21.718,2.483,48.935,2.483,48.935
		s-1.445,27.212-2.71,48.925c-0.862,14.796-8.412,43.346-8.412,43.346s96.55,0.698,106.655-3.958
		c20.306-9.355,20.488-88.074,20.488-88.074s0.182-78.72-20.08-88.158C704.435,1195.71,607.882,1196.012,607.882,1196.012z"/>
	<path style="fill:#385459;" d="M279.207,1386.547c3.845,5.495,50.115-12.717,50.115-12.717s-5.227-56.724-5.169-81.858
		c0.165-71.073,9.456-84.548,5.565-88.89c-3.891-4.342-44.397-16.59-48.079-14.446c-8.165,4.756-15.073,51.604-15.354,97.201
		C265.958,1339.202,272.528,1376.999,279.207,1386.547z"/>
	<path style="fill:#385459;" d="M564.459,1205.189c0.011,7.965,2.777,18.59,4.478,41.601c1.615,21.847,2.095,42.08,2.095,42.08
		s-0.574,20.23-2.29,42.07c-1.807,23.004-4.623,33.617-4.671,41.581c-0.049,8.202,34.35,18.352,37.649,13.555
		c1.512-2.198,5.765-21.987,8.651-43.325c3.412-25.226,3.194-53.794,3.194-53.794s0.351-28.567-2.945-53.807
		c-2.787-21.35-6.948-41.156-8.45-43.36C598.894,1186.98,564.448,1196.988,564.459,1205.189z"/>
	<g>
		<path style="fill:#385459;" d="M286.912,1408.039c2.076,4.418,134.016,1.608,148.128,1.637c4.735,0.01,6.63-22.599,0.712-23.637
			c-5.917-1.038-96.701-4.503-106.546-3.101C302.754,1386.709,284.293,1402.467,286.912,1408.039z"/>
		<path style="fill:#385459;" d="M449.143,1408.543c-4.836-3.063-2.953-20.81,0.05-21.534c3.002-0.726,106.874-6.239,113.209-3.899
			c6.334,2.34,42.936,15.857,38.69,20.797C596.845,1408.846,455.998,1412.887,449.143,1408.543z"/>
	</g>
	<g>
		<path style="fill:#385459;" d="M287.467,1168.328c2.097-4.41,134.022-1.06,148.133-1.031c4.735,0.01,6.525,22.627,0.603,23.641
			c-5.922,1.014-96.721,4.106-106.56,2.663C303.211,1189.723,284.823,1173.889,287.467,1168.328z"/>
		<path style="fill:#385459;" d="M449.699,1168.488c-4.849,3.044-3.049,20.797-0.05,21.535c2.999,0.737,106.844,6.677,113.19,4.363
			c6.345-2.314,43.01-15.682,38.786-20.639S456.574,1164.174,449.699,1168.488z"/>
	</g>
	<g>
		<path style="fill:#385459;" d="M132.679,1222.752c-3.264-0.343-8.73-0.594-10.384-4.344c-1.731-3.924-0.681-10.627-0.245-14.951
			c1.005-9.958,7.343-17.014,15.487-21.137c3.665-1.856,22.678-6.07,21.259,2.46l0.543,0.587c-1.912,2.669-5.941,4.312-8.427,6.787
			c-2.745,2.735-4.681,5.762-6.286,9.299c-2.099,4.625-3.893,8.351-4.379,13.469
			C139.682,1220.869,138.725,1223.389,132.679,1222.752z"/>
		<path style="fill:#CECDB6;" d="M135.936,1224.518c-3.264-0.344-8.73-0.595-10.384-4.344c-1.732-3.925-0.681-10.628-0.245-14.951
			c1.005-9.959,7.343-17.015,15.487-21.138c3.665-1.856,22.678-6.07,21.259,2.46l0.542,0.588c-1.912,2.668-5.941,4.311-8.426,6.787
			c-2.745,2.734-4.681,5.76-6.287,9.298c-2.099,4.625-3.893,8.351-4.379,13.469C142.938,1222.633,141.981,1225.153,135.936,1224.518
			z"/>
		<path style="opacity:0.5;fill:#FFFFFF;" d="M130.352,1198.2c1.309-0.654,5.177-0.354,6.194,1.179
			c1.115,1.681,0.102,5.328-0.22,7.038c-0.698,3.703,0.17,10.874-3.849,12.524c-5.819,2.391-5.479-5.098-5.142-8.734
			c0.269-2.904,0.907-9.791,2.942-11.794c0.344-0.338,1.333-0.498,1.163-0.503L130.352,1198.2z"/>
	</g>
	<g>
		<path style="fill:#385459;" d="M132.377,1352.98c-3.266,0.33-8.732,0.559-10.404,4.301c-1.75,3.917-0.73,10.625-0.314,14.95
			c0.959,9.963,7.265,17.044,15.389,21.2c3.657,1.871,22.65,6.164,21.27-2.373l0.545-0.585c-1.899-2.677-5.921-4.335-8.395-6.821
			c-2.732-2.746-4.654-5.78-6.243-9.324c-2.078-4.634-3.855-8.366-4.317-13.486C139.371,1354.893,138.426,1352.369,132.377,1352.98z
			"/>
		<path style="fill:#CECDB6;" d="M135.643,1351.229c-3.266,0.33-8.732,0.559-10.404,4.302c-1.75,3.917-0.73,10.624-0.313,14.949
			c0.958,9.963,7.264,17.044,15.389,21.201c3.657,1.871,22.65,6.163,21.27-2.373l0.545-0.585c-1.899-2.677-5.921-4.335-8.395-6.822
			c-2.732-2.746-4.654-5.779-6.243-9.323c-2.077-4.634-3.854-8.366-4.317-13.487
			C142.636,1353.142,141.691,1350.618,135.643,1351.229z"/>
		<path style="opacity:0.5;fill:#FFFFFF;" d="M129.936,1377.522c1.306,0.659,5.176,0.376,6.199-1.152
			c1.123-1.677,0.128-5.328-0.187-7.04c-0.681-3.706,0.221-10.873-3.791-12.54c-5.808-2.414-5.503,5.075-5.183,8.713
			c0.256,2.906,0.862,9.795,2.888,11.807c0.342,0.34,1.33,0.503,1.16,0.508L129.936,1377.522z"/>
	</g>
	<path style="fill:#F71E1E;" d="M736.067,1364.55c-6.47,0.503-7.095,2.876-8.906,8.341c-1.677,5.058-4.388,10.088-6.036,15.124
		c-1.256,3.842-4.515,11.484-1.854,15.389c1.351,1.981,4.467,2.837,7.622,3.21c8.685-5.449,13.727-23.088,16.625-43.328
		C740.801,1363.579,737.806,1364.415,736.067,1364.55z"/>
	<path style="fill:#F71E1E;" d="M734.454,1209.206c-6.468-0.529-7.081-2.904-8.868-8.377c-1.653-5.064-4.341-10.105-5.965-15.148
		c-1.239-3.847-4.462-11.503-1.783-15.396c1.36-1.976,4.48-2.818,7.637-3.179c8.66,5.484,13.62,23.145,16.424,43.396
		C739.184,1210.196,736.192,1209.349,734.454,1209.206z"/>
	<polygon style="opacity:0.2;fill:#CECDB6;" points="267.476,1326.594 326.976,1345.746 325.891,1330.792 266.468,1304.863 	"/>
	<polygon style="opacity:0.2;fill:#CECDB6;" points="324.503,1306.437 266.318,1270.245 267.995,1247.815 324.207,1284.384 	"/>
	<polygon style="opacity:0.2;fill:#CECDB6;" points="325.141,1256.349 270.432,1225.811 271.731,1217.482 325.698,1247.934 	"/>
	<polygon style="opacity:0.2;fill:#CECDB6;" points="269.493,1347.894 329.322,1373.83 328.74,1367.274 268.494,1338.89 	"/>
	<path style="fill:#4848CC;" d="M400.647,1221.535c4.174,0.009,7.55,3.197,7.541,7.123l-0.273,118.141
		c-0.009,3.925-3.4,7.1-7.574,7.091l-19.038-0.039c-4.174-0.009-7.55-3.197-7.541-7.122l0.274-118.141
		c0.009-3.925,3.4-7.1,7.574-7.091L400.647,1221.535z"/>
	
		<rect x="321.657" y="1284.015" transform="matrix(0.0023 -1 1 0.0023 -905.7988 1666.8484)" style="fill:#2974E2;" width="121.602" height="6.718"/>
	<path style="fill:#F71E1E;" d="M374.034,1228.879l-0.132,57.127l34.153,0.069l0.132-57.126c0.009-3.925-3.367-7.113-7.542-7.122
		l-19.037-0.039C377.435,1221.779,374.043,1224.954,374.034,1228.879z"/>
	
		<rect x="361.596" y="1244.745" transform="matrix(0.0023 -1 1 0.0023 -866.1324 1628.4457)" style="fill:#F46F62;" width="42.91" height="7.103"/>
	
		<rect x="369.457" y="1270.617" transform="matrix(0.0023 -1 1 0.0023 -897.6202 1675.6862)" style="fill:#B7B6A5;" width="43.035" height="34.153"/>
	<g>
		<path style="fill:#FFFFFF;" d="M185.241,1357.052l0.03-13.021c0.004-1.978,0.814-3.684,2.43-5.118
			c1.615-1.435,3.752-2.15,6.409-2.145c0.12-0.024,0.232-0.038,0.336-0.038c0.105,0,0.232,0,0.381,0.001
			c0.508,0.001,1.074,0.048,1.702,0.138c0.626,0.092,1.253,0.24,1.879,0.447c1.403,0.44,2.677,1.168,3.824,2.185
			c1.147,1.017,1.718,2.437,1.714,4.261l-0.022,9.707l14.106,0.029l-0.009,3.621L185.241,1357.052z M200.385,1353.462l0.022-9.399
			c0-0.077-0.111-0.296-0.334-0.656c-0.223-0.359-0.558-0.746-1.004-1.157c-0.506-0.515-1.177-0.972-2.012-1.372
			c-0.835-0.399-1.819-0.563-2.955-0.487c-1.403,0.151-2.524,0.599-3.362,1.342c-0.837,0.743-1.258,1.718-1.261,2.925l-0.021,8.783
			L200.385,1353.462z"/>
		<path style="fill:#FFFFFF;" d="M198.888,1333.08c-0.522-0.052-1.052-0.13-1.589-0.233c-3.073-0.597-5.898-2.035-8.476-4.313
			c-2.577-2.278-3.861-5.305-3.853-9.08c0.001-0.462,0.024-0.924,0.07-1.387c0.046-0.462,0.129-0.924,0.25-1.386
			c0.574-2.644,2.139-5.081,4.697-7.31c2.558-2.229,6.539-3.402,11.943-3.52c4.598,0.009,8.617,1.23,12.06,3.665
			c3.442,2.434,5.158,6.078,5.147,10.932c-0.01,4.237-1.764,7.419-5.262,9.543c-3.497,2.125-7.978,3.181-13.442,3.17
			C199.925,1333.16,199.41,1333.133,198.888,1333.08z M204.965,1329.24c0.866-0.126,1.747-0.329,2.644-0.61
			c1.792-0.535,3.459-1.431,4.999-2.687c1.54-1.255,2.433-3.09,2.677-5.503c0.031-0.18,0.054-0.353,0.068-0.521
			c0.016-0.166,0.023-0.34,0.024-0.52c0.006-2.543-1.25-4.818-3.769-6.826c-2.518-2.009-6.344-2.94-11.48-2.797
			c-2.985,0.147-5.615,1.08-7.888,2.796c-2.272,1.716-3.413,4.013-3.419,6.888c-0.001,0.335,0.021,0.669,0.064,1.002
			c0.044,0.334,0.111,0.669,0.199,1.002c0.473,2.005,1.783,3.844,3.928,5.518c2.145,1.674,5.339,2.514,9.578,2.522
			C203.308,1329.456,204.099,1329.368,204.965,1329.24z"/>
		<path style="fill:#FFFFFF;" d="M185.369,1301.85l0.009-3.93l28.884,0.06l0.032-13.676l3.896,0.009l-0.04,17.604L185.369,1301.85z"
			/>
		<path style="fill:#FFFFFF;" d="M185.421,1279.43l0.008-3.66l32.78,0.067l-0.008,3.66L185.421,1279.43z"/>
		<path style="fill:#FFFFFF;" d="M200.465,1270.813c-0.642-0.065-1.29-0.15-1.948-0.254c-3.193-0.521-6.153-1.708-8.881-3.563
			c-2.727-1.855-4.236-4.798-4.524-8.831c0.001-0.642,0.085-1.373,0.251-2.195c0.166-0.821,0.459-1.668,0.879-2.541
			c0.69-1.333,1.797-2.603,3.323-3.807c1.525-1.204,3.692-2.085,6.5-2.645l-0.009,3.929c-2.39,0.561-4.169,1.514-5.336,2.859
			s-1.753,2.789-1.756,4.33c-0.001,0.104-0.001,0.199-0.001,0.289c0,0.09,0.015,0.174,0.044,0.25c0.174,2.03,1.327,3.9,3.458,5.613
			c2.131,1.712,5.196,2.624,9.196,2.734c4.807,0.01,8.28-0.844,10.418-2.56c2.139-1.717,3.226-3.602,3.26-5.656
			c0-0.025,0-0.045,0-0.059c0-0.012,0-0.031,0-0.058c0.005-2.003-0.819-3.854-2.472-5.552c-1.653-1.698-3.853-2.628-6.599-2.788
			l0.009-3.929c0.388,0.053,0.783,0.111,1.186,0.176c0.403,0.065,0.814,0.149,1.231,0.253c2.656,0.674,5.086,1.97,7.29,3.887
			c2.206,1.918,3.304,4.328,3.297,7.229c0.139,4.392-1.503,7.663-4.927,9.813c-3.423,2.15-7.419,3.221-11.986,3.211
			C201.741,1270.925,201.107,1270.879,200.465,1270.813z"/>
		<path style="fill:#FFFFFF;" d="M185.51,1240.908l0.045-19.416l3.493,0.008l-0.036,15.755l10.613,0.022l0.035-15.178l3.851,0.008
			l-0.035,15.178l10.927,0.021l0.038-16.371l3.896,0.008l-0.046,20.031L185.51,1240.908z"/>
	</g>
	<g>
		<path style="fill:#FFFFFF;" d="M680.753,1221.006l-0.029,12.382c-0.004,1.88-0.81,3.502-2.417,4.866
			c-1.606,1.364-3.731,2.044-6.373,2.039c-0.119,0.023-0.231,0.036-0.334,0.035c-0.104,0-0.23,0-0.378,0
			c-0.505-0.001-1.068-0.046-1.692-0.132c-0.623-0.087-1.246-0.229-1.869-0.425c-1.395-0.419-2.663-1.111-3.803-2.078
			c-1.141-0.967-1.709-2.317-1.705-4.051l0.021-9.23l-14.029-0.029l0.008-3.443L680.753,1221.006z M665.691,1224.419l-0.021,8.938
			c0,0.073,0.11,0.281,0.333,0.624c0.222,0.342,0.555,0.709,1,1.101c0.503,0.489,1.17,0.924,2.001,1.305
			c0.83,0.38,1.81,0.534,2.938,0.464c1.396-0.144,2.51-0.569,3.343-1.275c0.833-0.707,1.251-1.634,1.254-2.781l0.019-8.352
			L665.691,1224.419z"/>
		<path style="fill:#FFFFFF;" d="M667.183,1243.799c0.519,0.05,1.046,0.124,1.581,0.223c3.056,0.568,5.866,1.936,8.43,4.102
			c2.563,2.167,3.841,5.045,3.832,8.635c-0.001,0.439-0.024,0.879-0.07,1.318c-0.046,0.439-0.129,0.879-0.248,1.318
			c-0.57,2.514-2.127,4.83-4.67,6.95c-2.543,2.119-6.503,3.233-11.877,3.346c-4.572-0.01-8.57-1.172-11.994-3.486
			c-3.424-2.315-5.13-5.78-5.12-10.396c0.009-4.029,1.753-7.054,5.232-9.073c3.478-2.021,7.934-3.024,13.368-3.014
			C666.151,1243.723,666.664,1243.749,667.183,1243.799z M661.14,1247.449c-0.862,0.12-1.738,0.313-2.629,0.581
			c-1.783,0.509-3.44,1.36-4.972,2.554c-1.532,1.193-2.419,2.938-2.662,5.232c-0.03,0.171-0.053,0.335-0.068,0.495
			c-0.016,0.158-0.023,0.323-0.023,0.494c-0.006,2.417,1.243,4.581,3.748,6.491c2.504,1.91,6.31,2.797,11.417,2.66
			c2.969-0.141,5.584-1.026,7.845-2.657c2.26-1.632,3.394-3.815,3.4-6.55c0-0.318-0.021-0.636-0.065-0.953
			c-0.043-0.317-0.11-0.636-0.198-0.952c-0.471-1.906-1.773-3.655-3.907-5.246c-2.134-1.593-5.31-2.392-9.525-2.4
			C662.788,1247.245,662.001,1247.328,661.14,1247.449z"/>
		<path style="fill:#FFFFFF;" d="M680.631,1273.497l-0.009,3.736l-28.726-0.06l-0.03,13.004l-3.875-0.008l0.039-16.74
			L680.631,1273.497z"/>
		<path style="fill:#FFFFFF;" d="M680.581,1294.814l-0.008,3.48l-32.6-0.066l0.008-3.48L680.581,1294.814z"/>
		<path style="fill:#FFFFFF;" d="M665.621,1303.007c0.638,0.063,1.284,0.144,1.937,0.242c3.175,0.495,6.12,1.625,8.832,3.389
			c2.712,1.764,4.212,4.563,4.501,8.396c-0.001,0.61-0.085,1.307-0.25,2.088c-0.166,0.781-0.457,1.586-0.874,2.416
			c-0.686,1.268-1.787,2.475-3.304,3.619c-1.517,1.145-3.672,1.982-6.463,2.515l0.008-3.736c2.377-0.533,4.146-1.438,5.306-2.719
			c1.161-1.279,1.743-2.651,1.746-4.116c0-0.099,0-0.189,0.001-0.275c0-0.086-0.015-0.165-0.044-0.237
			c-0.174-1.931-1.321-3.709-3.439-5.338c-2.12-1.628-5.168-2.495-9.146-2.601c-4.781-0.01-8.234,0.801-10.36,2.433
			c-2.126,1.632-3.207,3.424-3.241,5.378c0,0.024,0,0.042,0,0.056c-0.001,0.012-0.001,0.03-0.001,0.055
			c-0.004,1.904,0.815,3.664,2.46,5.279c1.644,1.615,3.831,2.499,6.563,2.651l-0.009,3.736c-0.386-0.05-0.779-0.106-1.18-0.168
			c-0.4-0.062-0.809-0.142-1.224-0.24c-2.642-0.641-5.058-1.873-7.251-3.696c-2.193-1.824-3.286-4.115-3.279-6.875
			c-0.139-4.176,1.494-7.286,4.898-9.33c3.404-2.045,7.378-3.063,11.92-3.053C664.352,1302.9,664.982,1302.944,665.621,1303.007z"/>
		<path style="fill:#FFFFFF;" d="M680.497,1331.443l-0.042,18.462l-3.474-0.007l0.035-14.981l-10.555-0.021l-0.034,14.432
			l-3.83-0.008l0.034-14.432l-10.867-0.022l-0.036,15.567l-3.875-0.008l0.044-19.048L680.497,1331.443z"/>
	</g>
</g>
</svg>
