<svg width="87" height="204" viewBox="0 0 87 204" fill="none" xmlns="http://www.w3.org/2000/svg">
<path d="M-3.51496e-06 18.3753L-2.99328e-06 6.44051C-2.89354e-06 4.15888 2.32823 2.30944 5.1998 2.30944L81.6747 2.30945C84.5466 2.30945 86.8745 4.15888 86.8745 6.44052L86.8745 18.3756L-3.51497e-06 18.3756L-3.51496e-06 18.3753Z" fill="#797D7F"/>
<path d="M82.7517 70.1147L82.7517 15.4462C82.7517 10.4321 77.6354 6.36737 71.3242 6.36737L13.9402 6.36737C7.62892 6.36737 2.51264 10.4321 2.51264 15.4462L2.51264 70.1149L82.7517 70.1147Z" fill="#F43B3B"/>
<path d="M82.7881 67.2422L82.7881 54.3921C82.3438 47.4649 72.4865 35.9455 68.04 35.9455L18.4676 35.6717C14.0211 35.6717 1.94262 49.6445 2.67743 54.0048L2.4754 67.2424L82.7881 67.2422Z" fill="#DBE4EB"/>
<path d="M27.5859 6.21922L27.5859 3.51141L13.5252 3.51141L13.5252 6.21922L27.5859 6.21922Z" fill="#892121"/>
<path d="M26.1775 3.51141C26.1775 3.51141 26.0144 0.165796 20.9387 0.00634366C15.2329 -0.17304 14.6602 3.51141 14.6602 3.51141L26.1775 3.51141Z" fill="#DBE4EB"/>
<path d="M22.6937 0.828512C22.0352 0.649915 21.3241 0.632606 20.6296 0.668535C20.3678 0.682173 20.0991 0.704726 19.8657 0.800188C19.6323 0.895649 19.4396 1.08002 19.4386 1.28851C19.4369 1.59771 19.8225 1.8083 20.1711 1.94572C20.4398 2.05194 20.7141 2.14924 20.9878 2.2468C21.3198 2.36481 21.6516 2.48283 21.9837 2.60084C22.2851 2.70784 22.5904 2.81589 22.9162 2.85838C23.5847 2.94545 24.4793 2.56282 24.2974 1.93051C24.1449 1.40128 23.285 0.988751 22.6937 0.828512Z" fill="white"/>
<path d="M72.8481 6.42428L72.8481 3.71674L58.7874 3.71674L58.7874 6.42427L72.8481 6.42428Z" fill="#892121"/>
<path d="M71.4399 3.71673C71.4399 3.71673 71.2772 0.371118 66.2012 0.211666C60.4953 0.032282 59.9226 3.71673 59.9226 3.71673L71.4399 3.71673Z" fill="#DBE4EB"/>
<path d="M67.9562 1.03383C67.2976 0.855237 66.5866 0.837928 65.8921 0.873857C65.63 0.887495 65.3616 0.910049 65.1282 1.00551C64.8948 1.10097 64.7017 1.28534 64.701 1.49409C64.6994 1.8033 65.0849 2.01389 65.4335 2.15131C65.7022 2.25753 65.9766 2.35482 66.2505 2.45212C66.5823 2.57013 66.9144 2.68815 67.2461 2.80617C67.5475 2.91343 67.8529 3.02148 68.1787 3.0637C68.8471 3.15077 69.7417 2.76788 69.5598 2.13584C69.407 1.60687 68.5474 1.19407 67.9562 1.03383Z" fill="white"/>
<path d="M76.3413 57.1387C76.3413 57.1387 77.6148 38.0603 64.0911 37.4938L22.7456 37.4938C10.5053 38.2743 8.89012 56.4697 8.89012 56.4697L76.3413 57.1387Z" fill="#394458"/>
<path d="M69.943 34.0788C69.943 34.0788 70.896 29.7298 67.7547 21.6449C65.2254 15.1354 57.8816 11.8378 57.8816 11.8378L43.2636 11.8378L43.2081 11.8378L28.5901 11.8378C28.5901 11.8378 21.2463 15.1354 18.7171 21.6449C15.5758 29.73 16.5288 34.0788 16.5288 34.0788C16.5288 34.0788 27.2163 33.1887 43.4369 33.2272C59.6579 33.1887 69.943 34.0788 69.943 34.0788Z" fill="#DBE4EB"/>
<path d="M83.321 203.678L83.321 85.4084L1.94244 85.4084L1.94244 203.678L83.321 203.678Z" fill="#DBE4EB"/>
<path d="M73.7463 85.4926L73.7463 83.0497L11.5174 83.0497L11.5174 85.4926L73.7463 85.4926Z" fill="#394458"/>
<path d="M82.7881 83.0497L82.7881 57.8316C82.7881 54.2988 79.1833 51.4352 74.7368 51.4352L10.5266 51.4352C6.08014 51.4352 2.4754 54.2988 2.4754 57.8316L2.4754 83.0497L82.7881 83.0497Z" fill="#CE332F"/>
<path d="M6.41359 53.4199L70.6238 53.4199C75.0703 53.4199 78.675 56.2838 78.675 59.8164L78.675 83.0497L82.6145 83.0497L82.6145 57.8316C82.6145 54.2988 79.0098 51.4352 74.5629 51.4352L10.3527 51.4352C7.91721 51.4352 5.73589 52.2956 4.25966 53.6533C4.94562 53.502 5.66722 53.4199 6.41359 53.4199Z" fill="#F43B3B"/>
<path d="M13.272 68.9409C16.4934 69.5452 19.7214 67.9604 20.4821 65.4011C21.2427 62.8419 19.2479 60.2773 16.0266 59.673C12.8053 59.0687 9.57722 60.6535 8.81657 63.2127C8.05592 65.772 10.0507 68.3365 13.272 68.9409Z" fill="#892121"/>
<path d="M14.6605 67.8861C12.1729 67.8861 10.1562 66.2842 10.1562 64.3076C10.1562 62.3312 12.1729 60.7291 14.6605 60.7291C17.1482 60.7291 19.1648 62.3312 19.1648 64.3076C19.1645 66.2842 17.1479 67.8861 14.6605 67.8861Z" fill="#3F48EF"/>
<path d="M17.4888 64.6768L17.5974 63.9538C17.2993 63.3377 16.8814 62.7387 16.238 62.3406C15.5947 61.9425 14.6902 61.7828 13.9673 62.0736C13.2443 62.3645 12.8416 63.172 13.2499 63.7432C13.4206 63.9824 13.6986 64.1536 13.9692 64.3186C14.6294 64.7206 15.2897 65.1229 15.9499 65.5252C16.1149 65.6259 16.3008 65.7316 16.5054 65.7164C17.0593 65.6757 17.0201 64.9239 17.4888 64.6768Z" fill="#3792ED"/>
<path d="M62.9044 67.1873C65.245 69.0468 69.0397 69.0468 71.3802 67.1873C73.7208 65.3278 73.7208 62.313 71.3802 60.4536C69.0397 58.5941 65.245 58.5941 62.9044 60.4536C60.5639 62.313 60.5639 65.3278 62.9044 67.1873Z" fill="#892121"/>
<path d="M67.1425 67.3998C64.6548 67.3998 62.6382 65.7977 62.6382 63.8213C62.6382 61.8449 64.6548 60.2428 67.1425 60.2428C69.6301 60.2428 71.6467 61.8449 71.6467 63.8213C71.6464 65.7977 69.6298 67.3998 67.1425 67.3998Z" fill="#3F48EF"/>
<path d="M69.9706 64.1903L70.0789 63.4673C69.7811 62.8512 69.3629 62.2522 68.7195 61.8541C68.0761 61.456 67.172 61.2963 66.449 61.5871C65.7261 61.878 65.3234 62.6855 65.7314 63.2569C65.902 63.4961 66.18 63.6674 66.4507 63.8323C67.1109 64.2346 67.7711 64.6367 68.4313 65.0392C68.5967 65.1399 68.7822 65.2456 68.9869 65.2307C69.5411 65.1895 69.5015 64.4376 69.9706 64.1903Z" fill="#3792ED"/>
<path d="M45.5633 28.542L45.5633 24.6134L50.5083 24.6134L50.5083 21.2353L45.5633 21.2353L45.5633 17.3064L41.3113 17.3064L41.3113 21.2353L36.366 21.2353L36.366 24.6134L41.3113 24.6134L41.3113 28.542L45.5633 28.542Z" fill="#CE332F"/>
<path d="M47.0696 122.941L47.0696 116.905L54.6672 116.905L54.6672 111.715L47.0696 111.715L47.0696 105.679L40.5371 105.679L40.5371 111.715L32.9398 111.715L32.9398 116.905L40.5371 116.905L40.5371 122.941L47.0696 122.941Z" fill="#CE332F"/>
<path d="M48.0955 138.122L37.1677 139.414L37.1677 137.107L39.1318 136.985L39.1318 136.177L37.1677 136.042L37.1677 133.708L48.0955 134.86L48.0955 138.122ZM41.0692 136.926C42.3068 136.812 43.8365 136.698 45.659 136.582C43.5664 136.353 42.0364 136.208 41.0692 136.149L41.0692 136.926Z" fill="#CE332F"/>
<path d="M48.0955 146.763L37.1677 146.763L37.1677 144.789L44.5452 144.787L37.1677 144.001L37.1677 142.601L44.3762 141.773L37.1677 141.77L37.1677 139.797L48.0955 139.797L48.0955 142.718C47.4386 142.805 46.6641 142.894 45.7725 142.986L42.9927 143.307L48.0955 143.826L48.0955 146.763Z" fill="#CE332F"/>
<path d="M48.0955 147.669L48.0955 149.922C48.0955 150.633 48.0258 151.172 47.8862 151.538C47.7469 151.905 47.465 152.201 47.0398 152.426C46.6149 152.651 45.9306 152.764 44.9862 152.764C44.3471 152.764 43.9025 152.684 43.6503 152.525C43.3987 152.366 43.2053 152.052 43.0703 151.584C42.9217 152.106 42.6755 152.46 42.3309 152.646C41.9866 152.832 41.4584 152.924 40.7473 152.924L39.7343 152.924C38.9958 152.924 38.4485 152.858 38.093 152.723C37.7368 152.589 37.4942 152.376 37.3634 152.083C37.2327 151.789 37.1677 151.189 37.1677 150.281L37.1677 147.669L48.0955 147.669ZM46.2261 149.927L43.7962 149.927C43.8008 150.023 43.8031 150.098 43.8031 150.152C43.8031 150.374 43.8718 150.515 44.0091 150.576C44.1464 150.636 44.5389 150.667 45.1869 150.667C45.5289 150.667 45.7686 150.642 45.9055 150.592C46.0429 150.542 46.1294 150.477 46.1657 150.396C46.2013 150.316 46.2215 150.159 46.2261 149.927ZM42.0952 149.927L39.0374 149.927C39.0509 150.245 39.114 150.448 39.2266 150.536C39.3391 150.623 39.6157 150.667 40.0568 150.667L41.0758 150.667C41.5439 150.667 41.8271 150.628 41.9261 150.549C42.0252 150.47 42.0816 150.263 42.0952 149.927Z" fill="#CE332F"/>
<path d="M48.0956 158.866L40.7924 158.866C39.9645 158.866 39.3828 158.845 39.0475 158.802C38.7121 158.759 38.3681 158.632 38.0149 158.421C37.6617 158.21 37.394 157.932 37.2118 157.587C37.0295 157.242 36.9384 156.835 36.9384 156.367C36.9384 155.849 37.0464 155.391 37.2626 154.994C37.4785 154.597 37.7597 154.301 38.1063 154.104C38.4529 153.907 38.8184 153.791 39.2033 153.755C39.5878 153.72 40.3969 153.702 41.6299 153.702L48.0959 153.702L48.0959 155.959L39.9018 155.959C39.4248 155.959 39.1201 155.98 38.9871 156.021C38.8544 156.062 38.788 156.145 38.788 156.27C38.788 156.413 38.8613 156.505 39.0075 156.546C39.1538 156.588 39.499 156.608 40.0437 156.608L48.0959 156.608L48.0959 158.866L48.0956 158.866Z" fill="#CE332F"/>
<path d="M48.0955 161.998L39.3546 161.998L39.3546 163.371L37.1677 163.371L37.1677 159.74L48.0955 159.74L48.0955 161.998Z" fill="#CE332F"/>
<path d="M48.0955 168.093L37.1677 169.385L37.1677 167.078L39.1318 166.956L39.1318 166.148L37.1677 166.013L37.1677 163.679L48.0955 164.831L48.0955 168.093ZM41.0692 166.897C42.3068 166.783 43.8365 166.668 45.659 166.553C43.5664 166.323 42.0364 166.179 41.0692 166.12L41.0692 166.897Z" fill="#CE332F"/>
<path d="M48.0956 174.809L37.1679 174.809L37.1679 172.83L42.1356 171.656L37.1679 171.656L37.1679 169.768L48.0956 169.768L48.0956 171.656L43.1754 172.921L48.0959 172.921L48.0959 174.809L48.0956 174.809Z" fill="#CE332F"/>
<path d="M43.3372 180.986L43.3372 178.729L45.2367 178.729C45.7883 178.729 46.1332 178.705 46.2705 178.656C46.4072 178.608 46.4759 178.502 46.4759 178.337C46.4759 178.151 46.3927 178.033 46.2263 177.983C46.0599 177.933 45.6998 177.908 45.1462 177.908L40.0705 177.908C39.5397 177.908 39.1931 177.933 39.031 177.983C38.8689 178.033 38.7881 178.146 38.7881 178.321C38.7881 178.489 38.8689 178.599 39.0317 178.651C39.1944 178.703 39.575 178.728 40.1752 178.728L41.5487 178.728L41.5487 180.986L41.1229 180.986C39.9916 180.986 39.1898 180.922 38.7164 180.795C38.2427 180.669 37.8285 180.388 37.4723 179.954C37.1161 179.519 36.9385 178.984 36.9385 178.348C36.9385 177.686 37.0894 177.141 37.3907 176.712C37.6921 176.283 38.1094 175.999 38.6428 175.859C39.1759 175.72 39.9781 175.65 41.049 175.65L44.2417 175.65C45.029 175.65 45.6199 175.672 46.0134 175.715C46.4072 175.758 46.7862 175.886 47.1509 176.098C47.5154 176.311 47.8022 176.606 48.0115 176.983C48.2208 177.36 48.3254 177.794 48.3254 178.284C48.3254 178.948 48.1634 179.497 47.8399 179.93C47.5167 180.362 47.1133 180.647 46.63 180.782C46.1471 180.918 45.3954 180.986 44.3754 180.986L43.3372 180.986Z" fill="#CE332F"/>
<path d="M48.0955 181.796L48.0955 185.56L45.9085 185.56L45.9085 184.053L43.8365 184.053L43.8365 185.464L41.7578 185.464L41.7578 184.053L39.355 184.053L39.355 185.71L37.168 185.71L37.168 181.796L48.0955 181.796Z" fill="#CE332F"/>
<path d="M26.4554 114.31C26.4554 106.711 34.2376 100.528 43.8034 100.528C53.3688 100.528 61.1514 106.711 61.1514 114.31C61.1514 121.91 53.3692 128.093 43.8034 128.093C34.2376 128.093 26.4554 121.91 26.4554 114.31ZM60.1964 114.31C60.1964 107.129 52.8426 101.287 43.8034 101.287C34.7642 101.287 27.4101 107.129 27.4101 114.31C27.4101 121.492 34.7638 127.334 43.8034 127.334C52.8426 127.334 60.1964 121.492 60.1964 114.31Z" fill="#CE332F"/>
<path d="M75.6593 199.125L75.6593 91.8566C75.6593 91.2224 76.3123 90.7037 77.1105 90.7037L78.0252 90.7037C78.8234 90.7037 79.4763 91.2224 79.4763 91.8566L79.4763 199.126C79.4763 199.76 78.8234 200.279 78.0252 200.279L77.1105 200.279C76.3123 200.278 75.6593 199.76 75.6593 199.125Z" fill="white"/>
<path d="M5.6288 199.745L5.6288 92.4765C5.6288 91.8424 6.28175 91.3236 7.07995 91.3236L7.99466 91.3236C8.79286 91.3236 9.4458 91.8424 9.4458 92.4765L9.4458 199.745C9.4458 200.379 8.79285 200.898 7.99466 200.898L7.07994 200.898C6.28175 200.898 5.6288 200.379 5.6288 199.745Z" fill="white"/>
</svg>
