<svg width="97" height="189" viewBox="0 0 97 189" fill="none" xmlns="http://www.w3.org/2000/svg">
<path d="M86.8878 39.789C86.8878 21.143 85.8158 10.985 80.9728 6.14204C76.1298 1.29904 56.8258 0.386047 48.6558 0.386047C40.4858 0.386047 21.1828 1.29904 16.3388 6.14204C11.4958 10.985 10.4238 20.2 10.4238 39.789C10.4238 66.62 7.16678 174.518 15.5098 181.262C23.8538 188.005 40.2608 188.275 48.6548 188.275C57.0498 188.275 73.4568 188.005 81.7998 181.262C90.1448 174.519 86.8878 66.62 86.8878 39.789Z" fill="#3C8FDF"/>
<path d="M83.6018 44.0171C83.6018 25.9671 82.6228 19.295 78.1958 14.868C73.7688 10.441 56.1238 8.62805 48.6558 8.62805C41.1878 8.62805 23.5438 10.441 19.1168 14.868C14.6898 19.295 13.7108 23.9721 13.7108 44.0171C13.7108 48.1891 14.1948 54.4701 15.4578 60.6631C17.8198 65.9181 19.0888 74.6071 19.9718 83.0691C18.9628 84.4481 18.3688 87.1701 18.3688 90.0501C17.0338 93.9851 18.0308 107.511 18.3688 112.64C18.3868 112.921 18.3508 113.813 18.3688 114.093C18.3688 114.093 17.5708 131.808 18.3688 139.627C18.5618 141.519 19.0028 144.138 19.3398 144.725C19.6168 147.127 16.2938 157.151 16.6398 158.996C17.3338 162.7 17.2918 173.386 18.3598 174.25C25.9868 180.414 40.9838 180.661 48.6568 180.661C56.3298 180.661 71.3268 180.414 78.9538 174.25C80.0218 173.387 79.9788 162.7 80.6738 158.996C81.0198 157.151 77.6958 147.126 77.9738 144.725C78.4938 143.338 78.7528 141.519 78.9458 139.627C79.7438 131.808 78.9458 114.093 78.9458 114.093C78.9638 113.813 78.9278 112.921 78.9458 112.64C79.2838 107.511 80.2808 93.9841 78.9458 90.0501C78.9458 87.1701 78.3518 84.4481 77.3428 83.0691C78.2248 74.6071 79.4938 65.9181 81.8558 60.6631C83.1178 54.4701 83.6018 48.1891 83.6018 44.0171Z" fill="#54A6EF"/>
<path d="M59.8988 24.134L66.5248 59.174L64.0168 59.557L59.8988 24.134Z" fill="#3C8FDF"/>
<path d="M37.4128 24.134L33.2958 59.557L30.7868 59.174L37.4128 24.134Z" fill="#3C8FDF"/>
<path d="M18.3678 112.641V89.187L13.2818 62.449C12.2658 72.042 12.1908 95.876 12.3858 112.641H18.3678Z" fill="#282F3A"/>
<path d="M12.4038 114.094C12.6258 131.629 13.1268 146.756 13.1268 146.756L18.3688 139.628V114.094H12.4038Z" fill="#282F3A"/>
<path d="M48.6558 49.847C48.6558 49.847 29.2678 49.609 14.9428 59.72L19.5258 82.126C19.5258 82.126 27.4088 75.659 48.6558 75.659C69.9028 75.659 77.7858 82.126 77.7858 82.126L82.3688 59.72C68.0448 49.609 48.6558 49.847 48.6558 49.847Z" fill="#3C8FDF"/>
<path d="M48.6558 50.79C48.6558 50.79 29.5628 50.552 15.4568 60.663L19.9698 83.069C19.9698 83.069 27.7318 76.602 48.6548 76.602C69.5778 76.602 77.3398 83.069 77.3398 83.069L81.8528 60.663C67.7488 50.552 48.6558 50.79 48.6558 50.79Z" fill="#282F3A"/>
<path d="M78.9438 112.641V89.187L84.0298 62.449C85.0458 72.042 85.1208 95.876 84.9258 112.641H78.9438Z" fill="#3A454F"/>
<path d="M84.9088 114.094C84.6868 131.629 84.1858 146.756 84.1858 146.756L78.9438 139.628V114.094H84.9088Z" fill="#3A454F"/>
<path d="M77.9728 144.725C70.8578 146.627 26.4548 146.627 19.3398 144.725C19.3398 144.725 15.9888 153.361 16.6398 158.996C21.4568 161.859 31.6578 165.497 48.6568 165.497C65.6558 165.497 75.8568 161.859 80.6738 158.996C81.3238 153.362 77.9728 144.725 77.9728 144.725Z" fill="#282F3A"/>
<path d="M77.3408 83.069L81.8538 60.663C67.7478 50.552 48.6548 50.79 48.6548 50.79V76.602C69.5788 76.602 77.3408 83.069 77.3408 83.069Z" fill="#3A454F"/>
<path d="M77.9728 144.725C77.7328 144.789 77.4728 144.846 77.1998 144.898C77.1268 144.912 77.0338 144.925 76.9568 144.938C76.7958 144.966 76.6398 144.995 76.4688 145.019C71.5858 145.774 60.1308 146.152 48.6558 146.152V165.498C65.6548 165.498 75.8558 161.86 80.6728 158.997C81.3238 153.362 77.9728 144.725 77.9728 144.725Z" fill="#3A454F"/>
<path d="M62.2898 3.07904C63.0138 2.45904 63.7668 1.85705 64.5308 1.26305C58.5448 0.581046 52.4198 0.386047 48.6568 0.386047C44.8938 0.386047 38.7688 0.581046 32.7828 1.26305C33.5468 1.85605 34.2988 2.45804 35.0238 3.07904C35.4678 3.45904 61.8448 3.45904 62.2898 3.07904Z" fill="#282F3A"/>
<path d="M13.6388 10.1231C13.7068 10.6631 14.0588 11.1481 14.6068 11.3391C14.7178 11.3771 14.8308 11.4021 14.9438 11.4131C15.6098 11.4811 16.2988 11.0991 16.4888 10.4271C18.2878 4.05706 26.9718 3.32906 27.7248 3.01406C28.1848 2.82106 28.4078 2.16606 28.1128 1.91306C22.9098 2.78506 18.3618 4.12006 16.3398 6.14306C15.2578 7.22406 14.3738 8.53906 13.6388 10.1231Z" fill="#BDD6DB"/>
<path d="M17.9578 7.63106C17.4618 6.92206 16.9078 6.54006 16.2578 6.23206C15.2148 7.29706 14.3548 8.58006 13.6388 10.1221C13.7068 10.6621 14.0588 11.1471 14.6068 11.3381C14.7178 11.3761 14.8308 11.4011 14.9438 11.4121C15.6098 11.4801 16.2988 11.0981 16.4888 10.4261C16.7968 9.33406 17.3188 8.41806 17.9578 7.63106Z" fill="#EC9100"/>
<path d="M82.7408 11.338C83.2478 11.162 83.5748 10.731 83.6778 10.242C82.9418 8.59203 82.0558 7.22503 80.9728 6.14203C80.8238 5.99303 80.6598 5.84703 80.4838 5.70503C80.4798 5.70203 80.4768 5.69903 80.4728 5.69603C79.9418 5.27003 79.2938 4.87703 78.5488 4.51403C78.5268 4.50303 78.5028 4.49203 78.4808 4.48203C78.0188 4.26003 77.5188 4.04903 76.9878 3.85003C76.9368 3.83103 76.8868 3.81103 76.8358 3.79303C76.0048 3.48703 75.0978 3.20803 74.1348 2.95203C74.0108 2.91903 73.8838 2.88703 73.7578 2.85503C73.2598 2.72803 72.7478 2.60703 72.2228 2.49203C72.0468 2.45403 71.8708 2.41503 71.6928 2.37803C71.3918 2.31503 71.0888 2.25303 70.7818 2.19403C70.3878 2.11803 69.9888 2.04603 69.5848 1.97603C69.4688 1.95603 69.3498 1.93703 69.2328 1.91803C68.9448 2.17403 69.1658 2.82103 69.6238 3.01303C70.3768 3.32803 79.0598 4.05603 80.8598 10.426C81.0498 11.098 81.7388 11.479 82.4038 11.412C82.5158 11.401 82.6288 11.376 82.7408 11.338Z" fill="#BDD6DB"/>
<path d="M83.2828 10.979C83.3098 10.951 83.3408 10.928 83.3658 10.899C83.4408 10.808 83.5038 10.7081 83.5548 10.6011C83.5558 10.5981 83.5578 10.596 83.5598 10.593C83.6128 10.482 83.6518 10.3641 83.6778 10.2421C82.9638 8.64105 82.1048 7.31205 81.0658 6.24405C80.4268 6.55005 79.8798 6.93005 79.3908 7.63005C79.6408 7.93805 79.8678 8.27005 80.0738 8.62305C80.1648 8.77705 80.2528 8.93405 80.3348 9.09705C80.3928 9.21505 80.4498 9.33305 80.5028 9.45605C80.6388 9.76505 80.7618 10.085 80.8588 10.427C80.9538 10.763 81.1728 11.026 81.4528 11.197C81.7318 11.368 82.0708 11.446 82.4038 11.413C82.5168 11.402 82.6298 11.3771 82.7408 11.3391C82.8708 11.2941 82.9888 11.23 83.0948 11.154C83.1658 11.103 83.2238 11.041 83.2828 10.979Z" fill="#EC9100"/>
<path d="M48.6558 188.275C52.3948 188.275 57.7248 188.217 63.2228 187.562C63.1978 187.43 63.1728 187.299 63.1478 187.167C62.9268 186.011 61.8348 185.147 60.6998 185.205C52.6758 185.619 44.6358 185.619 36.6118 185.205C35.4768 185.147 34.3848 186.011 34.1638 187.167C34.1388 187.299 34.1138 187.43 34.0888 187.562C39.5868 188.218 44.9168 188.275 48.6558 188.275Z" fill="#282F3A"/>
<path d="M29.3008 186.042C29.3028 186.032 29.3048 186.023 29.3068 186.013C29.4788 185.232 28.9898 184.468 28.2108 184.283C25.8938 183.734 23.5938 183.09 21.3168 182.351C20.5558 182.104 19.7398 182.503 19.4808 183.259C19.4778 183.268 19.4738 183.278 19.4708 183.287C19.4238 183.424 19.4228 183.562 19.4168 183.7C22.2468 185.096 25.5128 186.066 28.8918 186.74C29.0818 186.549 29.2388 186.323 29.3008 186.042Z" fill="#DD3E3E"/>
<path d="M77.8308 183.259C77.5718 182.502 76.7558 182.104 75.9948 182.351C73.7168 183.09 71.4178 183.734 69.1008 184.283C68.3228 184.468 67.8328 185.232 68.0048 186.013C68.0068 186.023 68.0088 186.032 68.0108 186.042C68.0728 186.323 68.2298 186.549 68.4188 186.741C71.7978 186.067 75.0638 185.097 77.8938 183.701C77.8878 183.563 77.8868 183.424 77.8398 183.288C77.8368 183.278 77.8338 183.269 77.8308 183.259Z" fill="#DD3E3E"/>
<path d="M10.9448 65.157L10.7158 68.421C10.6958 68.699 10.8288 68.966 11.0618 69.119L11.6908 69.531L12.3448 63.997L11.3478 64.534C11.1148 64.658 10.9628 64.893 10.9448 65.157Z" fill="#282F3A"/>
<path d="M10.7428 67.354L2.02478 69.453C1.34878 69.616 0.742779 68.972 0.972779 68.316C1.37778 67.158 2.52777 65.583 5.71777 64.695C8.93677 63.798 10.5368 64.778 11.3068 65.735C11.7728 66.313 11.4648 67.18 10.7428 67.354Z" fill="#54A6EF"/>
<path d="M86.8188 65.157L87.0478 68.421C87.0678 68.699 86.9348 68.966 86.7018 69.119L86.0728 69.531L85.4188 63.997L86.4158 64.534C86.6478 64.658 86.7998 64.893 86.8188 65.157Z" fill="#282F3A"/>
<path d="M87.0208 67.354L95.7388 69.453C96.4148 69.616 97.0208 68.972 96.7908 68.316C96.3858 67.158 95.2358 65.583 92.0458 64.695C88.8268 63.798 87.2268 64.778 86.4568 65.735C85.9898 66.313 86.2978 67.18 87.0208 67.354Z" fill="#54A6EF"/>
<path d="M29.3008 186.042C29.3028 186.032 29.3048 186.023 29.3068 186.013C29.4788 185.232 28.9898 184.468 28.2108 184.283C27.6368 184.147 27.0678 183.987 26.4958 183.84L26.3088 186.157C27.1588 186.372 28.0218 186.567 28.8928 186.741C29.0818 186.549 29.2388 186.323 29.3008 186.042Z" fill="#FFA312"/>
<path d="M68.0048 186.013C68.0068 186.023 68.0088 186.032 68.0108 186.042C68.0728 186.323 68.2298 186.549 68.4188 186.741C69.2898 186.567 70.1518 186.372 71.0028 186.157L70.8158 183.84C70.2438 183.988 69.6748 184.147 69.1008 184.283C68.3218 184.467 67.8328 185.232 68.0048 186.013Z" fill="#FFA312"/>
<path d="M62.2108 122.037H35.1018C33.8208 122.037 32.7828 120.999 32.7828 119.718V99.669C32.7828 98.388 33.8208 97.35 35.1018 97.35H62.2108C63.4918 97.35 64.5298 98.388 64.5298 99.669V119.718C64.5298 120.999 63.4918 122.037 62.2108 122.037Z" fill="#3C8FDF"/>
<path d="M61.4578 121.187H35.8538C34.6438 121.187 33.6628 120.22 33.6628 119.027V100.358C33.6628 99.1651 34.6438 98.1981 35.8538 98.1981H61.4578C62.6678 98.1981 63.6478 99.1651 63.6478 100.358V119.027C63.6478 120.22 62.6678 121.187 61.4578 121.187Z" fill="#282F3A"/>
<path d="M61.4578 98.199H48.6558V121.187H61.4578C62.6678 121.187 63.6478 120.22 63.6478 119.027V100.358C63.6478 99.166 62.6678 98.199 61.4578 98.199Z" fill="#3A454F"/>
<path d="M9.87778 104.196H9.86478C9.50078 104.196 9.20677 103.901 9.20677 103.538V99.618C9.20677 99.254 9.50178 98.9601 9.86478 98.9601H9.87778C10.2418 98.9601 10.5358 99.255 10.5358 99.618V103.538C10.5358 103.902 10.2418 104.196 9.87778 104.196Z" fill="#282F3A"/>
<path d="M9.87778 118.769H9.86478C9.50078 118.769 9.20677 118.474 9.20677 118.111V114.191C9.20677 113.828 9.50178 113.533 9.86478 113.533H9.87778C10.2418 113.533 10.5358 113.828 10.5358 114.191V118.111C10.5358 118.474 10.2418 118.769 9.87778 118.769Z" fill="#282F3A"/>
<path d="M87.4468 104.196H87.4338C87.0698 104.196 86.7758 103.901 86.7758 103.538V99.618C86.7758 99.254 87.0708 98.9601 87.4338 98.9601H87.4468C87.8098 98.9601 88.1048 99.255 88.1048 99.618V103.538C88.1058 103.902 87.8108 104.196 87.4468 104.196Z" fill="#282F3A"/>
<path d="M87.4468 118.769H87.4338C87.0698 118.769 86.7758 118.474 86.7758 118.111V114.191C86.7758 113.828 87.0708 113.533 87.4338 113.533H87.4468C87.8098 113.533 88.1048 113.828 88.1048 114.191V118.111C88.1058 118.474 87.8108 118.769 87.4468 118.769Z" fill="#282F3A"/>
</svg>
