<svg width="461" height="414" viewBox="0 0 461 414" fill="none" xmlns="http://www.w3.org/2000/svg">
<path d="M79.8357 35.4461C76.1547 37.4911 72.4926 40.308 71.3886 44.37C70.5566 47.43 71.3226 50.675 71.2076 53.844C70.8656 63.306 62.9066 70.666 54.8186 75.591C46.7316 80.515 37.5966 84.4621 31.9096 92.0321C26.2226 99.6021 26.1675 112.511 34.6165 116.784C15.0335 124.579 2.6546 145.286 0.280604 166.231C-1.3164 180.319 3.66158 197.86 17.5006 200.943C19.9566 201.49 22.7296 201.613 24.5216 203.379C26.7546 205.58 26.3946 209.233 25.6776 212.286C21.5976 229.681 11.3716 245.093 6.72457 262.346C2.07757 279.598 5.21462 301.478 21.0246 309.803C29.0546 314.032 39.2026 314.097 46.0576 320.044C51.5656 324.822 53.6736 332.319 55.6076 339.35C59.2146 352.465 64.0846 366.73 75.8746 373.512C89.8246 381.537 107.549 375.847 123.346 378.919C138.411 381.848 150.684 392.509 164.786 398.563C178.259 404.345 193.548 405.806 207.871 402.681C216.641 400.768 225.213 397.17 234.184 397.44C245.768 397.788 256.046 404.463 266.817 408.743C288.887 417.512 317.326 414.679 332.029 396.03C344.101 380.716 347.814 355.521 366.85 351.291C380.747 348.202 394.818 359.312 408.767 356.475C425.345 353.103 431.865 332.725 431.795 315.807C431.778 311.607 431.575 307.266 433.125 303.363C437.002 293.595 449.708 290.713 456.089 282.364C461.921 274.734 461.362 263.863 458.119 254.824C454.876 245.785 449.331 237.744 445.657 228.871C438.927 212.615 438.892 193.701 445.563 177.421C451.038 164.063 461.008 150.297 456.301 136.65C451.839 123.712 436.087 117.978 429.844 105.798C424.748 95.8551 426.738 82.9841 420.099 73.9961C412.867 64.2051 398.223 62.8471 390.056 53.8221C382.282 45.2321 380.767 30.3021 369.813 26.5291C365.932 25.1921 361.697 25.695 357.602 25.992C333.586 27.738 309.064 21.621 288.683 8.79905C282.03 4.61305 275.091 -0.474926 267.248 0.0530741C259.383 0.583074 252.84 6.72204 245.021 7.73404C239.235 8.48304 233.281 6.33806 227.583 7.59006C215.869 10.1611 208.993 26.017 197.052 24.922C193.289 24.577 189.951 22.493 186.622 20.706C169.233 11.369 148.042 9.39806 129.135 14.9311C120.346 17.5031 115.192 23.2311 107.554 26.8221C98.6876 30.9901 88.7317 30.5031 79.8357 35.4461Z" fill="#7EBB15"/>
<path d="M0.000488281 172.196C0.0144883 172.997 0.0465625 173.8 0.101562 174.604C0.153563 173.783 0.130488 172.97 0.000488281 172.196Z" fill="#78A015"/>
<path d="M458.112 254.823C454.868 245.784 449.325 237.743 445.651 228.87C438.921 212.614 438.886 193.7 445.557 177.42C451.032 164.062 461.002 150.296 456.295 136.649C452.166 124.678 438.378 118.87 431.394 108.422C432.007 120.035 424.117 131.676 419.467 143.023C412.796 159.303 412.83 178.217 419.561 194.473C423.235 203.346 428.78 211.387 432.024 220.426C435.267 229.465 435.825 240.336 429.994 247.967C423.613 256.316 410.906 259.198 407.029 268.965C405.479 272.869 405.682 277.21 405.7 281.41C405.768 298.327 399.25 318.706 382.672 322.078C368.722 324.915 354.651 313.806 340.755 316.893C321.718 321.124 318.004 346.318 305.932 361.632C291.23 380.282 262.791 383.115 240.722 374.346C229.951 370.067 219.673 363.391 208.089 363.043C199.117 362.773 190.544 366.37 181.776 368.284C167.452 371.409 152.164 369.947 138.691 364.165C124.587 358.112 112.315 347.451 97.2505 344.522C83.8285 341.913 69.0185 345.623 56.3115 341.877C59.8615 354.258 64.8325 367.162 75.8695 373.511C89.8185 381.536 107.543 375.846 123.34 378.918C138.405 381.847 150.678 392.508 164.781 398.562C178.254 404.344 193.541 405.805 207.865 402.68C216.635 400.767 225.207 397.169 234.178 397.439C245.762 397.787 256.04 404.462 266.811 408.742C288.88 417.511 317.321 414.678 332.023 396.029C344.096 380.715 347.809 355.52 366.845 351.29C380.741 348.201 394.812 359.311 408.762 356.474C425.34 353.102 431.859 332.724 431.789 315.806C431.771 311.606 431.57 307.265 433.12 303.362C436.997 293.594 449.703 290.712 456.084 282.363C461.915 274.733 461.355 263.862 458.112 254.823Z" fill="#78A015"/>
<path d="M306.682 49.87C304.414 47.67 301.569 45.6431 298.282 45.7001C295.807 45.7421 293.505 46.9621 291.087 47.5381C283.87 49.2591 276.749 45.111 271.442 40.367C266.136 35.622 261.364 29.9281 254.528 27.4441C247.693 24.9611 237.926 27.6011 236.353 34.5141C226.625 22.1671 208.551 17.6401 192.257 20.2961C181.298 22.0831 169.017 29.2751 169.399 39.7831C169.467 41.6481 169.917 43.6501 168.934 45.2951C167.708 47.3451 164.876 47.846 162.43 47.969C148.485 48.671 134.832 44.5791 120.885 44.8471C106.936 45.1161 91.016 51.8961 87.822 64.8981C86.2 71.5031 88.139 78.7521 84.987 84.8771C82.456 89.7961 77.203 92.8561 72.269 95.6951C63.064 100.991 53.2389 107.425 50.4229 117.241C47.0909 128.855 54.8629 140.312 55.6369 152.215C56.3749 163.566 50.7229 174.531 48.9119 185.845C47.1819 196.653 49.0719 207.859 54.2409 217.424C57.4049 223.28 61.803 228.646 63.357 235.1C65.364 243.433 62.3329 252.149 61.2099 260.717C58.9069 278.276 66.6189 297.968 83.5939 304.579C97.5329 310.009 117.3 307.425 124.227 320.121C129.284 329.39 123.645 341.73 128.523 351.089C134.319 362.21 150.997 362.628 163.768 359.066C166.939 358.182 170.18 357.136 173.433 357.431C181.575 358.167 186.242 366.629 193.802 369.447C200.71 372.021 208.817 369.366 215.012 365.176C221.207 360.986 226.199 355.363 232.184 350.9C243.151 342.725 257.437 338.773 271.047 340.15C282.215 341.28 294.57 345.533 303.962 339.343C312.865 333.474 314.112 321.051 322.093 314.071C328.609 308.372 338.726 307.118 344.217 300.517C350.199 293.328 348.357 282.603 353.576 274.905C358.545 267.578 369.531 263.397 370.236 254.803C370.486 251.758 369.276 248.842 368.249 245.984C362.225 229.222 362.042 210.464 367.738 193.268C369.598 187.655 372.084 181.65 370.148 176.167C368.207 170.668 362.285 167.277 359.989 161.912C358.29 157.942 358.743 153.25 356.681 149.447C352.443 141.628 339.113 140.017 337.601 131.274C337.124 128.519 338.045 125.706 338.744 122.961C342.394 108.623 339.73 93.101 331.846 80.768C328.18 75.034 322.841 72.5481 318.631 67.8481C313.743 62.3891 312.161 55.188 306.682 49.87Z" fill="#7EBB15"/>
<path d="M187.695 21.334C187.092 21.51 186.492 21.6999 185.895 21.9059C186.526 21.7729 187.136 21.588 187.695 21.334Z" fill="#78A015"/>
<path d="M215.011 365.172C221.206 360.982 226.198 355.359 232.183 350.897C243.149 342.721 257.436 338.77 271.046 340.147C282.213 341.277 294.569 345.529 303.961 339.338C312.198 333.908 313.886 322.87 320.413 315.721C311.757 318.57 301.414 315.361 291.928 314.401C278.318 313.024 264.032 316.975 253.065 325.151C247.08 329.613 242.088 335.236 235.893 339.427C229.698 343.616 221.591 346.272 214.682 343.697C207.122 340.881 202.455 332.418 194.314 331.681C191.06 331.387 187.82 332.432 184.649 333.317C171.878 336.879 155.2 336.462 149.404 325.339C144.526 315.981 150.165 303.641 145.108 294.371C138.181 281.675 118.415 284.259 104.475 278.83C87.4999 272.218 79.7879 252.526 82.0899 234.968C83.2139 226.399 86.245 217.683 84.238 209.35C82.683 202.897 78.2859 197.531 75.1219 191.675C69.9529 182.11 68.0619 170.904 69.7929 160.096C71.6039 148.782 77.2559 137.817 76.5179 126.466C75.8609 116.353 70.1559 106.562 70.4969 96.7229C61.8359 101.825 53.0579 108.05 50.4219 117.238C47.0909 128.852 54.8629 140.309 55.6369 152.212C56.3749 163.563 50.7229 174.528 48.9119 185.842C47.1819 196.65 49.0719 207.856 54.2409 217.421C57.4049 223.277 61.803 228.643 63.357 235.096C65.364 243.429 62.3329 252.145 61.2089 260.714C58.9069 278.273 66.6189 297.965 83.5939 304.576C97.5319 310.005 117.3 307.422 124.227 320.118C129.284 329.387 123.645 341.726 128.523 351.086C134.319 362.207 150.997 362.625 163.768 359.063C166.939 358.178 170.179 357.133 173.433 357.427C181.574 358.163 186.242 366.626 193.802 369.443C200.71 372.016 208.816 369.361 215.011 365.172Z" fill="#78A015"/>
<path d="M136.529 108.82C134.949 110.734 133.541 113.089 133.794 115.652C133.983 117.582 135.086 119.298 135.691 121.148C137.499 126.669 134.699 132.501 131.317 136.956C127.934 141.41 123.772 145.511 122.259 151.01C120.746 156.509 123.437 163.96 128.955 164.733C119.894 173.14 117.492 187.548 120.609 200.092C122.706 208.53 129.123 217.643 137.338 216.653C138.795 216.477 140.336 215.994 141.688 216.654C143.373 217.475 143.946 219.653 144.198 221.555C145.634 232.395 143.293 243.322 144.389 254.193C145.485 265.063 151.811 277.046 162.206 278.682C167.486 279.514 173.047 277.523 178.048 279.579C182.066 281.231 184.798 285.131 187.336 288.796C192.072 295.633 197.74 302.879 205.614 304.431C214.929 306.267 223.419 299.446 232.7 298.058C241.553 296.734 250.507 300.424 259.491 301.093C268.074 301.733 276.738 299.519 283.908 294.854C288.299 291.999 292.226 288.212 297.186 286.574C303.591 284.459 310.617 286.252 317.405 286.564C331.316 287.206 346.264 279.888 350.369 266.202C353.74 254.964 350.461 239.703 359.973 233.459C366.917 228.901 376.951 232.491 383.977 228.067C392.328 222.81 391.596 209.763 387.993 200.027C387.098 197.61 386.073 195.149 386.097 192.589C386.158 186.186 392.495 181.984 394.223 175.898C395.802 170.335 393.206 164.182 389.529 159.621C385.85 155.061 381.125 151.535 377.248 147.156C370.143 139.133 366.138 128.241 366.352 117.526C366.529 108.734 369.078 98.8081 363.628 91.8841C358.462 85.3201 348.644 85.1651 342.665 79.3941C337.784 74.6831 336.158 66.8681 330.636 63.0161C324.619 58.8201 316.329 60.9641 309.963 57.3961C303.903 54.0001 299.929 45.6991 293.146 45.7141C290.744 45.7191 288.534 46.8561 286.359 47.8461C273.601 53.6531 258.907 55.0301 245.065 51.7161C240.546 50.6341 235.681 49.0881 231.506 50.9611C227.318 52.8391 225.035 57.6851 220.976 59.8311C217.971 61.4191 214.265 61.3731 211.413 63.2331C205.554 67.0561 205.137 77.5681 198.379 79.3241C196.249 79.8781 193.985 79.3441 191.79 78.9791C180.317 77.0741 168.319 80.1751 159.15 87.1431C154.888 90.3821 153.278 94.7131 149.861 98.3101C145.894 102.484 140.35 104.193 136.529 108.82Z" fill="#7EBB15"/>
<path d="M121.714 203.585C121.891 204.044 122.077 204.501 122.277 204.953C122.131 204.468 121.948 204.004 121.714 203.585Z" fill="#78A015"/>
<path d="M389.526 159.622C385.848 155.062 381.123 151.536 377.245 147.157C370.14 139.135 366.135 128.242 366.35 117.527C366.527 108.734 369.076 98.8091 363.626 91.8851C358.847 85.8121 350.086 85.2212 344.066 80.5972C346.849 87.1662 344.99 95.4521 344.839 102.921C344.624 113.636 348.629 124.529 355.734 132.551C359.613 136.93 364.338 140.456 368.016 145.016C371.694 149.577 374.289 155.729 372.71 161.292C370.982 167.379 364.645 171.58 364.584 177.983C364.56 180.543 365.585 183.004 366.48 185.421C370.084 195.156 370.815 208.203 362.464 213.461C355.438 217.885 345.405 214.295 338.46 218.853C328.946 225.096 332.228 240.357 328.856 251.595C324.751 265.282 309.803 272.599 295.891 271.958C289.103 271.645 282.078 269.853 275.672 271.968C270.712 273.606 266.784 277.393 262.395 280.248C255.224 284.912 246.56 287.126 237.977 286.487C228.993 285.818 220.038 282.128 211.186 283.451C203.3 284.631 195.987 289.728 188.252 290.11C192.801 296.536 198.238 302.978 205.608 304.43C214.924 306.266 223.413 299.445 232.695 298.057C241.547 296.734 250.502 300.424 259.486 301.093C268.068 301.732 276.732 299.518 283.903 294.854C288.293 291.998 292.22 288.211 297.181 286.573C303.585 284.458 310.611 286.251 317.4 286.563C331.311 287.205 346.259 279.887 350.364 266.201C353.735 254.963 350.455 239.702 359.968 233.459C366.912 228.9 376.945 232.49 383.972 228.066C392.322 222.809 391.591 209.762 387.988 200.027C387.093 197.61 386.068 195.149 386.092 192.589C386.153 186.186 392.49 181.985 394.219 175.897C395.8 170.336 393.204 164.183 389.526 159.622Z" fill="#78A015"/>
<path d="M299.086 218.296C300.736 217.162 302.338 215.675 302.656 213.754C302.895 212.308 302.364 210.862 302.255 209.404C301.932 205.05 305.351 201.252 308.954 198.563C312.558 195.874 316.714 193.576 319.037 189.803C321.36 186.03 320.723 180.113 316.473 178.608C325.413 173.988 330.253 163.837 330.309 154.115C330.346 147.575 327.07 139.804 320.31 139.133C319.11 139.014 317.782 139.106 316.835 138.392C315.657 137.503 315.642 135.81 315.825 134.373C316.878 126.185 320.963 118.576 322.292 110.422C323.622 102.269 321.001 92.4121 313.031 89.4441C308.983 87.9361 304.139 88.4502 300.563 86.0922C297.69 84.1972 296.299 80.8761 295.015 77.7581C292.619 71.9421 289.564 65.6671 283.59 63.1911C276.524 60.2611 268.361 63.8161 260.668 63.2551C253.332 62.7191 246.93 58.4921 239.891 56.4741C233.167 54.5461 225.8 54.6952 219.127 56.8942C215.043 58.2402 211.139 60.3472 206.846 60.7042C201.302 61.1642 196.056 58.6561 190.699 57.2721C179.72 54.4361 166.301 57.2561 160.246 66.5881C155.275 74.2511 154.8 85.9931 145.936 88.9501C139.466 91.1091 132.183 86.7721 125.675 88.8191C117.941 91.2521 115.878 100.937 116.781 108.684C117.006 110.608 117.325 112.586 116.787 114.457C115.439 119.14 109.527 121.14 106.913 125.307C104.523 129.115 105.349 134.066 107.36 138.034C109.373 142.002 112.43 145.389 114.639 149.258C118.685 156.345 119.674 165.009 117.329 172.825C115.404 179.239 111.356 186.079 114.304 192.08C117.097 197.769 124.906 199.553 128.51 204.799C131.452 209.081 131.165 215.086 134.794 218.848C138.747 222.947 145.802 222.785 150.162 226.483C154.312 230.002 155.802 236.761 161.222 237.904C163.142 238.309 165.136 237.852 167.074 237.496C178.44 235.41 190.452 236.9 200.834 241.684C204.223 243.246 207.794 245.205 211.508 244.543C215.233 243.88 218.038 240.717 221.715 239.834C224.437 239.182 227.387 239.845 230.041 238.967C235.495 237.162 237.96 229.529 243.713 229.392C245.526 229.348 247.225 230.124 248.904 230.765C257.678 234.113 267.888 233.88 276.623 230.333C280.684 228.685 282.848 225.784 286.306 223.729C290.322 221.347 295.096 221.038 299.086 218.296Z" fill="#7EBB15"/>
<path d="M330.135 151.368C330.087 151.002 330.031 150.636 329.963 150.27C329.981 150.649 330.033 151.02 330.135 151.368Z" fill="#78A015"/>
<path d="M107.364 138.037C109.376 142.005 112.434 145.392 114.643 149.261C118.689 156.349 119.678 165.012 117.333 172.829C115.408 179.242 111.36 186.083 114.307 192.084C116.893 197.347 123.768 199.27 127.637 203.683C126.746 198.395 129.911 192.639 131.546 187.191C133.891 179.375 132.902 170.711 128.856 163.623C126.648 159.754 123.589 156.367 121.578 152.399C119.565 148.431 118.74 143.481 121.13 139.672C123.744 135.505 129.657 133.504 131.004 128.821C131.542 126.949 131.223 124.971 130.999 123.048C130.096 115.301 132.157 105.615 139.892 103.182C146.401 101.135 153.684 105.472 160.154 103.313C169.017 100.355 169.492 88.6131 174.464 80.9511C180.518 71.6191 193.938 68.7991 204.916 71.6351C210.273 73.0191 215.52 75.5281 221.063 75.0671C225.357 74.7101 229.26 72.6031 233.345 71.2571C240.017 69.0581 247.385 68.9091 254.109 70.8381C261.148 72.8561 267.549 77.0841 274.886 77.6191C281.422 78.0961 288.296 75.6031 294.55 76.6391C292.22 71.1571 289.185 65.5101 283.594 63.1921C276.528 60.2621 268.365 63.8181 260.672 63.2571C253.335 62.7211 246.934 58.4941 239.895 56.4751C233.171 54.5471 225.804 54.6961 219.132 56.8951C215.047 58.2411 211.143 60.3481 206.85 60.7051C201.306 61.1661 196.06 58.6571 190.703 57.2731C179.724 54.4371 166.305 57.2571 160.25 66.5891C155.279 74.2521 154.804 85.9941 145.941 88.9511C139.47 91.1101 132.187 86.7731 125.679 88.8201C117.945 91.2531 115.883 100.939 116.785 108.686C117.009 110.609 117.329 112.587 116.791 114.459C115.443 119.142 109.531 121.142 106.917 125.31C104.527 129.119 105.352 134.069 107.364 138.037Z" fill="#78A015"/>
<path d="M222.367 80.4241C220.855 80.5101 219.192 80.8721 218.037 82.1121C217.167 83.0461 216.734 84.3201 216.056 85.4161C214.031 88.6881 210.163 89.9091 206.753 90.2501C203.343 90.5911 199.819 90.4092 196.586 92.0952C193.353 93.7812 190.711 98.3151 192.358 101.273C184.94 100.647 177.042 105.806 172.076 112.769C168.736 117.453 166.651 124.484 170.146 127.951C170.766 128.566 171.567 129.086 171.742 130.016C171.96 131.175 171.109 132.399 170.275 133.35C165.522 138.77 159.342 142.436 154.45 147.709C149.557 152.982 146.043 161.223 149.058 166.874C150.589 169.745 153.599 171.514 154.431 174.787C155.1 177.416 154.203 180.418 153.35 183.225C151.757 188.462 150.307 194.321 152.439 198.737C154.962 203.962 161.398 205.009 165.478 208.809C169.37 212.433 170.857 218.297 173.827 222.854C176.664 227.208 180.921 230.353 185.822 231.717C188.823 232.553 192.108 232.762 194.725 234.4C198.104 236.516 199.808 240.634 202.146 243.995C206.936 250.879 215.983 254.775 224.154 250.741C230.864 247.428 237.093 239.199 243.624 240.985C248.392 242.289 250.323 248.621 255.055 250.023C260.679 251.688 266.764 245.637 270.184 239.67C271.033 238.189 271.855 236.626 273.111 235.519C276.252 232.748 280.623 233.92 284.221 232.079C287.509 230.396 289.554 226.474 290.426 222.734C291.298 218.994 291.281 215.21 291.991 211.455C293.293 204.575 297.129 197.912 302.427 193.329C306.774 189.569 312.542 186.44 313.916 180.826C315.218 175.504 311.692 170.775 312.31 165.414C312.814 161.037 316.024 156.849 315.874 152.543C315.711 147.852 311.626 144.854 311.028 140.272C310.46 135.911 313.045 130.395 310.549 127.182C309.664 126.044 308.301 125.492 307.021 124.892C299.513 121.374 293.454 115.001 289.99 106.981C288.86 104.363 287.828 101.378 285.385 100.214C282.935 99.0472 279.738 100.082 277.203 99.0922C275.327 98.3602 273.99 96.5811 272.038 96.0411C268.026 94.9301 262.755 99.3291 259.421 96.8881C258.37 96.1191 257.8 94.8111 257.171 93.6091C253.892 87.3301 247.981 82.9901 241.224 81.6841C238.083 81.0771 235.383 82.2061 232.378 82.1561C228.888 82.0991 226.022 80.2151 222.367 80.4241Z" fill="#7EBB15"/>
<path d="M170.78 114.82C170.621 115.104 170.467 115.393 170.32 115.685C170.503 115.405 170.662 115.115 170.78 114.82Z" fill="#78A015"/>
<path d="M290.423 222.733C291.295 218.993 291.279 215.209 291.989 211.454C293.29 204.574 297.126 197.911 302.424 193.328C306.771 189.568 312.54 186.439 313.913 180.825C315.117 175.901 312.191 171.484 312.236 166.605C310.057 170.798 305.34 173.538 301.648 176.732C296.349 181.315 292.513 187.978 291.212 194.858C290.502 198.613 290.519 202.398 289.646 206.137C288.774 209.877 286.73 213.799 283.441 215.482C279.843 217.323 275.472 216.151 272.332 218.921C271.076 220.028 270.254 221.591 269.405 223.073C265.985 229.039 259.899 235.091 254.275 233.425C249.544 232.024 247.612 225.692 242.845 224.387C236.315 222.601 230.085 230.83 223.375 234.143C215.204 238.178 206.157 234.281 201.367 227.397C199.029 224.038 197.325 219.919 193.946 217.803C191.328 216.164 188.044 215.955 185.043 215.12C180.141 213.755 175.885 210.61 173.048 206.256C170.078 201.698 168.591 195.834 164.699 192.211C161.232 188.983 156.066 187.74 153.044 184.235C151.583 189.204 150.44 194.602 152.436 198.735C154.959 203.96 161.395 205.007 165.476 208.807C169.367 212.431 170.854 218.295 173.824 222.852C176.661 227.206 180.918 230.35 185.819 231.716C188.82 232.552 192.105 232.761 194.722 234.399C198.102 236.515 199.805 240.633 202.143 243.994C206.933 250.878 215.98 254.774 224.151 250.74C230.862 247.427 237.09 239.197 243.621 240.984C248.389 242.288 250.32 248.62 255.052 250.022C260.676 251.687 266.762 245.636 270.181 239.669C271.03 238.187 271.853 236.625 273.108 235.518C276.25 232.746 280.62 233.919 284.218 232.079C287.507 230.396 289.551 226.473 290.423 222.733Z" fill="#78A015"/>
<path d="M286.31 143.246C284.635 137.832 281.613 132.95 278.622 128.136C276.947 125.441 275.274 122.746 273.6 120.051C272.354 118.046 271.092 116.021 269.425 114.348C267.033 111.948 263.913 110.387 260.694 109.329C250.614 106.015 239.064 107.516 230.167 113.297C228.201 114.574 226.168 116.108 223.824 116.056C222.255 116.021 220.808 115.267 219.36 114.664C211.671 111.461 202.378 112.453 195.537 117.207C188.697 121.961 184.527 130.325 184.848 138.649C177.797 139.391 171.381 144.458 169.027 151.146C165.901 160.024 174.267 185.465 187.005 182.617C193.909 181.072 197.941 173.147 197.167 166.115C202.548 167.533 208.503 162.243 207.73 156.733C207.42 154.531 206.268 152.55 205.581 150.436C203.906 145.29 205.223 139.285 208.896 135.311C211.715 140.246 218.566 142.384 223.692 139.928C227.182 138.256 231.159 134.796 234.23 137.151C236.805 139.127 235.677 143.125 235.92 146.362C236.344 152.01 241.831 156.211 247.421 157.119C253.011 158.027 258.67 156.425 264.107 154.839C261.914 160.066 266.188 166.525 271.768 167.521C277.348 168.517 283.082 164.877 285.637 159.817C288.19 154.759 287.985 148.66 286.31 143.246Z" fill="#94D31A"/>
<path d="M84.8409 157.218C85.9529 154.835 87.5819 152.674 88.2919 150.142C91.0199 140.411 79.3569 130.405 83.1719 121.046C84.1879 118.553 86.2209 116.53 86.9659 113.943C88.3319 109.197 85.0399 104.516 83.6929 99.764C81.3149 91.383 85.8789 81.598 93.8279 78.033C96.2799 76.933 98.98 76.368 101.263 74.949C105.619 72.238 107.585 67.052 109.961 62.505C113.155 56.389 118.229 50.499 125.058 49.505C131.886 48.511 139.57 55.158 137.269 61.664C134.558 69.332 122.259 69.362 118.88 76.761C117.988 78.715 117.866 80.952 116.966 82.901C114.332 88.606 106.429 89.672 102.491 94.569C100.512 97.03 99.7349 100.221 99.0979 103.314C93.2799 131.533 94.6899 161.212 103.157 188.753C90.8589 191.712 80.6109 166.283 84.8409 157.218Z" fill="#94D31A"/>
<path d="M289.011 97.4291C294.761 100.186 299.49 106.132 298.765 112.467C298.579 114.088 298.086 115.874 298.968 117.247C299.962 118.795 302.109 118.938 303.928 119.212C315.119 120.898 321.992 135.555 316.132 145.236C326.135 147.523 330.482 160.185 328.092 170.164C325.702 180.143 318.772 188.284 313.205 196.905C310.968 200.369 308.854 204.282 309.306 208.381C309.757 212.48 313.974 216.333 317.833 214.881C321.437 213.524 322.328 208.982 324.143 205.585C329.261 196.003 343.8 193.82 347.455 183.59C350.088 176.221 345.7 168.12 346.59 160.346C347.163 155.339 349.922 150.53 349.162 145.549C348.135 138.821 341.307 134.749 337.687 128.986C332.986 121.501 333.981 111.579 329.708 103.84C324.028 93.5491 311.123 90.1671 299.615 87.7721C291.622 86.1081 283.477 84.4361 275.355 85.2571C270.562 85.7411 265.698 89.3271 270.155 93.7241C273.024 96.5551 284.761 95.3911 289.011 97.4291Z" fill="#94D31A"/>
<path d="M229.585 35.6011C234.939 32.6551 241.526 33.885 247.495 35.193C265.891 39.224 284.387 43.2861 301.849 50.3351C304.912 51.5711 308.095 53.0221 309.997 55.7221C312.89 59.8281 312.153 65.8841 315.569 69.5651C320.158 74.5101 328.175 71.8031 334.798 70.5191C345.991 68.3491 358.132 71.7901 366.522 79.5121C374.913 87.2341 379.347 99.048 378.111 110.383C377.772 113.488 377.037 116.634 377.641 119.699C378.245 122.764 380.741 125.773 383.862 125.628C386.108 125.523 387.979 123.849 389.288 122.02C395.842 112.856 392.449 100.222 388.811 89.5591C386.311 82.2301 383.761 74.7971 379.371 68.4191C374.981 62.0401 368.439 56.7381 360.777 55.6131C353.931 54.6071 346.261 56.8271 340.448 53.0731C335.728 50.0251 333.846 43.9331 329.467 40.4151C321.355 33.9001 309.09 38.7861 299.14 35.7461C289.975 32.9461 283.974 23.7921 274.991 20.4541C267.841 17.7971 259.901 19.2001 252.41 20.6351C242.604 22.5131 217.792 22.4041 212.335 31.8071C210.556 34.8741 209.781 39.4351 213.045 41.7531C218.726 45.7881 225.223 37.7821 229.585 35.6011Z" fill="#94D31A"/>
<path d="M106.36 234.377C107.061 234.796 107.844 235.197 108.213 235.927C108.701 236.894 108.282 238.055 107.822 239.035C105.437 244.129 101.886 249.734 104.084 254.911C106.203 259.904 112.485 261.408 117.897 261.782C123.307 262.156 129.397 262.333 133.092 266.303C135.342 268.72 136.629 272.463 139.824 273.295C141.492 273.729 143.258 273.202 144.975 273.341C148.803 273.649 151.613 277.148 153.055 280.707C154.498 284.267 155.089 288.183 157.025 291.501C158.961 294.818 162.944 297.469 166.553 296.155C169.492 295.086 171.023 291.886 171.939 288.895C173.753 282.968 174.316 276.524 172.581 270.573C170.846 264.623 166.604 259.248 160.823 257.012C157.562 255.751 153.764 255.401 151.256 252.966C145.801 247.671 150.06 236.351 143.692 232.198C141.871 231.011 139.61 230.8 137.491 230.315C132.29 229.125 127.541 226.049 124.327 221.79C122.931 219.939 121.799 217.858 120.09 216.291C104.977 202.441 90.9895 225.208 106.36 234.377Z" fill="#94D31A"/>
<path d="M28.3594 239.411C27.4634 241.415 26.5465 243.578 26.9505 245.736C27.3125 247.672 28.6964 249.299 29.0534 251.235C29.9184 255.927 24.8675 259.25 21.8365 262.933C17.7825 267.856 17.1084 275.189 19.8454 280.949C22.5814 286.71 28.4544 290.752 34.7674 291.66C36.2534 291.874 37.7894 291.934 39.1774 292.51C43.0724 294.123 44.2884 298.885 46.2144 302.636C49.3614 308.765 55.2354 312.942 60.8914 316.876C63.2474 318.514 65.7154 320.198 68.5534 320.617C71.3924 321.036 74.7014 319.764 75.6404 317.053C76.7984 313.71 74.0005 310.375 71.2835 308.111C66.7615 304.342 61.7764 301.106 57.6404 296.916C53.5054 292.727 50.1954 287.298 50.1474 281.412C50.1264 278.904 50.6535 276.195 49.3785 274.036C47.3935 270.674 42.1905 270.555 39.9865 267.332C45.3665 262.502 50.8215 255.627 48.5335 248.769C47.6465 246.114 45.6804 243.925 44.7774 241.276C43.0504 236.209 48.7594 222.331 41.2304 221.335C34.6644 220.464 30.0884 235.541 28.3594 239.411Z" fill="#94D31A"/>
<path d="M17.7387 145.744C15.6687 151.969 15.6608 158.664 15.6748 165.224C15.6778 167.112 15.7528 169.192 17.0298 170.582C18.9128 172.63 22.5087 172.206 24.4167 174.231C26.8557 176.823 25.1067 181.823 27.8717 184.065C30.4237 186.136 34.2738 183.792 35.9978 180.995C39.4228 175.434 39.0777 167.794 35.1657 162.565C33.0657 159.759 29.9517 157.382 29.4537 153.913C29.0397 151.027 30.6267 148.211 32.5847 146.05C36.0227 142.254 47.3247 129.71 35.6167 128.124C28.3657 127.142 19.5407 140.328 17.7387 145.744Z" fill="#94D31A"/>
<path d="M141.385 37.21C143.177 37.383 145.091 37.663 146.415 38.882C148.041 40.379 148.287 42.8 148.977 44.9C150.612 49.88 155.479 53.623 160.711 53.925C165.944 54.227 171.208 51.069 173.405 46.31C174.843 43.195 175.052 39.55 176.918 36.671C177.674 35.504 178.714 34.423 178.881 33.044C179.251 29.976 175.427 28.338 172.399 27.724C166.964 26.622 161.528 25.52 156.091 24.418C153.087 23.809 150.05 23.197 146.987 23.304C143.974 23.41 141.034 24.206 138.126 24.999C131.076 26.92 68.8555 37.738 86.6845 52.408C93.6465 58.137 102.595 44.759 109.333 41.663C119.226 37.12 130.657 36.172 141.385 37.21Z" fill="#94D31A"/>
<path d="M139.018 133.385C138.939 129.584 140.67 125.487 144.126 123.904C146.186 122.962 148.547 123.016 150.75 122.491C153.3 121.884 155.592 120.514 157.838 119.164C161.333 117.062 164.828 114.961 168.323 112.86C170.463 111.573 172.666 110.23 174.106 108.19C177.114 103.931 176.05 97.7922 178.92 93.4402C180.384 91.2212 182.728 89.7192 185.177 88.6852C188.747 87.1772 192.979 86.5792 196.43 88.3422C199.882 90.1052 201.911 94.8192 199.838 98.0932C197.548 101.709 192.106 101.706 189.012 104.664C186.291 107.266 186.017 111.481 184.188 114.771C181.592 119.438 176.171 121.781 172.815 125.935C170.11 129.284 168.723 133.822 165.127 136.188C163.416 137.313 161.34 137.834 159.732 139.103C156.931 141.312 156.187 145.27 156.389 148.831C156.591 152.402 157.363 155.734 157.059 159.272C145.149 162.19 139.203 142.192 139.018 133.385Z" fill="#94D31A"/>
<path d="M217.957 83.307C214.089 85.148 211.358 89.177 211.081 93.45C211.021 94.374 211.078 95.343 211.527 96.152C213.433 99.582 218.974 96.76 222.548 98.383C223.713 98.912 224.593 99.901 225.595 100.697C230.152 104.315 237.195 103.503 241.734 99.864C246.272 96.224 248.58 90.387 249.275 84.611C249.421 83.405 249.445 82.021 248.579 81.17C247.898 80.503 246.871 80.373 245.921 80.3C236.12 79.55 226.149 81.148 217.073 84.922L217.957 83.307Z" fill="#94D31A"/>
</svg>
