<svg width="93" height="178" viewBox="0 0 93 178" fill="none" xmlns="http://www.w3.org/2000/svg">
<path d="M83.6055 34.718C84.0205 16.073 83.3635 10.908 78.6785 6.067C74.0195 1.226 54.7095 0.314011 46.5375 0.314011C38.3655 0.314011 19.0565 1.226 14.3995 6.067C9.71346 10.908 9.03745 15.13 9.48345 34.718C10.9604 61.55 6.22446 163.972 13.6145 170.694C21.6955 177.434 38.1534 177.704 46.5384 177.704C54.9234 177.704 71.3814 177.435 79.4654 170.694C86.8644 163.972 82.1455 61.55 83.6055 34.718Z" fill="#A2999A"/>
<path d="M80.3405 38.946C80.3405 24.374 79.9645 17.46 75.6925 13.034C71.4465 8.60901 53.9565 6.79601 46.5395 6.79601C39.1225 6.79601 21.6335 8.60801 17.3895 13.034C13.1155 17.46 12.7505 24.589 12.7505 38.946C12.7505 43.119 13.4005 49.399 14.6845 55.594C17.0155 60.85 18.2995 69.541 19.1685 78.005C18.2105 79.384 17.6525 82.107 17.6555 84.988C16.3975 88.924 17.3215 102.347 17.6045 107.477C17.6205 107.758 17.5805 108.65 17.5955 108.93C17.6095 108.93 14.7445 131.525 17.3305 142.325L18.1925 147.92C17.5225 151.988 15.1185 156.358 15.3045 157.558C15.3045 157.558 15.6025 159.356 16.6305 160.218C24.0005 166.38 38.9285 166.626 46.5395 166.626C54.1505 166.626 69.0785 166.379 76.4515 160.218C77.4795 159.355 77.7825 157.558 77.7825 157.558C77.9785 156.292 75.5535 152.053 74.8975 147.92L75.7605 142.325C77.0345 133.353 75.4855 108.93 75.4995 108.93C75.5155 108.65 75.4745 107.758 75.4905 107.477C75.7745 102.347 76.6985 88.923 75.4405 84.988C75.4445 82.107 74.8855 79.385 73.9275 78.005C74.7955 69.541 76.0795 60.85 78.4095 55.594C79.6925 49.399 80.2635 43.119 80.3405 38.946Z" fill="#C3CCC7"/>
<path d="M56.9725 54.702C57.5405 54.594 58.1085 54.487 58.6765 54.379C57.2845 44.882 55.8975 39.292 54.4905 30.088C54.3965 29.475 53.8705 29.011 53.2505 29.011H39.8355C39.2155 29.011 38.6885 29.475 38.5945 30.088C37.1905 39.292 35.8055 44.882 34.4145 54.379C34.9825 54.487 35.5505 54.594 36.1185 54.702C36.9365 45.482 38.1335 39.855 38.9795 31.179C39.0425 30.536 39.5805 30.035 40.2275 30.035H52.7355C53.3815 30.035 53.9195 30.534 53.9825 31.177C54.8415 39.855 56.1535 45.482 56.9725 54.702Z" fill="#A2999A"/>
<path d="M46.5455 45.719C46.5565 45.719 28.1035 45.481 14.6835 55.594C16.2155 63.064 17.7065 70.534 19.1675 78.005C19.1675 78.005 26.5505 71.536 46.5475 71.536C66.5435 71.536 73.9275 78.005 73.9275 78.005C75.3885 70.534 76.8785 63.064 78.4095 55.594C64.9885 45.481 46.5345 45.72 46.5455 45.719Z" fill="#282F3A"/>
<path d="M17.6045 107.477C17.6505 99.657 17.6665 91.943 17.6535 84.123C16.0215 75.208 14.3495 66.293 12.6175 57.379C11.7845 66.974 11.8515 90.708 11.8885 107.477C13.7935 107.477 15.6995 107.477 17.6045 107.477Z" fill="#282F3A"/>
<path d="M11.8945 108.93C11.9785 126.469 12.1415 149.455 12.1445 149.454C13.8825 147.078 15.6115 144.702 17.3305 142.325C17.4535 133.813 17.5425 117.443 17.5955 108.93C15.6955 108.93 13.7945 108.93 11.8945 108.93Z" fill="#282F3A"/>
<path d="M75.4905 107.477C75.4455 99.657 75.4295 91.943 75.4415 84.123C77.0735 75.208 78.7445 66.293 80.4755 57.379C81.3105 66.974 81.2445 90.708 81.2065 107.477C79.3015 107.477 77.3965 107.477 75.4905 107.477Z" fill="#3A454F"/>
<path d="M81.2005 108.93C81.1155 126.469 80.9485 149.455 80.9455 149.454C79.2075 147.078 77.4795 144.702 75.7605 142.325C75.6395 133.813 75.5525 117.443 75.4995 108.93C77.3995 108.93 79.3005 108.93 81.2005 108.93Z" fill="#3A454F"/>
<path d="M74.8975 147.921C68.0525 149.206 25.0365 149.206 18.1925 147.921C18.1995 147.921 14.8035 153.754 15.3045 157.559C19.9325 159.493 29.8645 161.949 46.5425 161.949C63.2205 161.949 73.1535 159.493 77.7825 157.559C78.2845 153.754 74.8905 147.921 74.8975 147.921Z" fill="#282F3A"/>
<path d="M73.9275 78.005C75.3885 70.534 76.8785 63.064 78.4095 55.594C64.9875 45.481 46.5345 45.72 46.5455 45.719C46.5465 54.324 46.5475 62.929 46.5475 71.535C66.5445 71.536 73.9275 78.005 73.9275 78.005Z" fill="#3A454F"/>
<path d="M74.8975 147.921C74.6665 147.964 74.4155 148.003 74.1525 148.037C74.0825 148.046 73.9925 148.055 73.9175 148.064C73.7625 148.083 73.6115 148.103 73.4465 148.118C68.7355 148.628 57.6505 148.884 46.5445 148.884C46.5435 153.239 46.5425 157.594 46.5415 161.948C63.2195 161.948 73.1525 159.492 77.7815 157.558C78.2845 153.754 74.8905 147.921 74.8975 147.921Z" fill="#3A454F"/>
<path d="M46.5375 175.075C50.2765 175.075 55.6095 175.017 61.0945 174.362C61.0675 174.231 61.0405 174.099 61.0135 173.968C60.7765 172.813 59.6765 171.949 58.5455 172.007C50.5495 172.421 42.5235 172.421 34.5285 172.007C33.3985 171.949 32.2975 172.812 32.0595 173.968C32.0325 174.099 32.0055 174.231 31.9785 174.362C37.4665 175.018 42.7985 175.075 46.5375 175.075Z" fill="#C3CCC7"/>
<path d="M27.2255 175.472C27.2275 175.462 27.2295 175.453 27.2325 175.443C27.4185 174.662 26.9445 173.898 26.1725 173.714C23.8755 173.165 21.6005 172.521 19.3545 171.783C18.6045 171.536 17.7825 171.934 17.5035 172.691C17.5005 172.7 17.4965 172.71 17.4935 172.719C17.4435 172.856 17.4385 172.994 17.4285 173.132C20.2075 174.528 23.4425 175.497 26.8045 176.17C26.9975 175.978 27.1575 175.752 27.2255 175.472Z" fill="#DD3E3E"/>
<path d="M75.5734 172.691C75.2954 171.935 74.4735 171.537 73.7235 171.783C71.4775 172.521 69.2015 173.165 66.9045 173.714C66.1325 173.898 65.6585 174.662 65.8445 175.443C65.8465 175.453 65.8495 175.462 65.8515 175.472C65.9185 175.753 66.0794 175.979 66.2714 176.17C69.6334 175.497 72.8685 174.528 75.6485 173.132C75.6385 172.994 75.6345 172.856 75.5835 172.719C75.5805 172.709 75.5764 172.7 75.5734 172.691Z" fill="#DD3E3E"/>
<path d="M10.4085 60.088C10.3475 61.176 10.2865 62.264 10.2245 63.353C10.2085 63.631 10.3385 63.898 10.5625 64.051C10.7645 64.188 10.9665 64.326 11.1685 64.463C11.3595 62.618 11.5485 60.773 11.7365 58.928C11.4205 59.107 11.1035 59.286 10.7875 59.465C10.5665 59.589 10.4235 59.825 10.4085 60.088Z" fill="#282F3A"/>
<path d="M10.2395 62.286C7.46448 62.986 4.69049 63.686 1.91749 64.385C1.27249 64.548 0.684461 63.904 0.896461 63.248C1.26946 62.09 2.34847 60.514 5.39347 59.626C8.46747 58.729 10.0135 59.71 10.7625 60.666C11.2155 61.244 10.9295 62.112 10.2395 62.286Z" fill="#A2999A"/>
<path d="M83.1175 60.088C83.1785 61.176 83.2395 62.264 83.3015 63.353C83.3175 63.631 83.1885 63.898 82.9635 64.051C82.7615 64.188 82.5595 64.326 82.3575 64.463C82.1665 62.618 81.9775 60.773 81.7895 58.928C82.1055 59.107 82.4225 59.286 82.7385 59.465C82.9605 59.589 83.1035 59.825 83.1175 60.088Z" fill="#282F3A"/>
<path d="M83.2865 62.286C86.0615 62.986 88.8354 63.686 91.6084 64.385C92.2534 64.548 92.8404 63.904 92.6304 63.248C92.2574 62.09 91.1785 60.514 88.1325 59.626C85.0585 58.729 83.5124 59.71 82.7634 60.666C82.3104 61.244 82.5975 62.112 83.2865 62.286Z" fill="#A2999A"/>
<path d="M27.2255 175.472C27.2275 175.462 27.2305 175.453 27.2325 175.443C27.4185 174.662 26.9445 173.898 26.1725 173.714C25.6035 173.578 25.0395 173.418 24.4735 173.271C24.3955 174.043 24.3165 174.815 24.2375 175.587C25.0815 175.802 25.9385 175.997 26.8045 176.171C26.9975 175.978 27.1575 175.752 27.2255 175.472Z" fill="#FFA312"/>
<path d="M65.8445 175.443C65.8465 175.453 65.8495 175.462 65.8515 175.472C65.9185 175.753 66.0795 175.979 66.2715 176.17C67.1385 175.996 67.9945 175.802 68.8395 175.586C68.7605 174.814 68.6825 174.042 68.6045 173.27C68.0385 173.417 67.4745 173.577 66.9055 173.713C66.1325 173.898 65.6585 174.662 65.8445 175.443Z" fill="#FFA312"/>
<path d="M9.54047 106.29C9.53647 106.29 9.53247 106.29 9.52747 106.29C9.18047 106.29 8.90046 105.995 8.90146 105.631C8.90646 104.324 8.91045 103.017 8.91345 101.71C8.91445 101.346 9.19648 101.051 9.54248 101.052C9.54648 101.052 9.55148 101.052 9.55548 101.052C9.90248 101.052 10.1825 101.347 10.1825 101.71C10.1795 103.017 10.1755 104.324 10.1715 105.631C10.1695 105.995 9.88747 106.29 9.54047 106.29Z" fill="#282F3A"/>
<path d="M9.43849 115.356C9.43449 115.356 9.43049 115.356 9.42549 115.356C9.07749 115.356 8.79847 115.061 8.80247 114.698C8.81547 113.391 8.82748 112.084 8.83748 110.777C8.84048 110.413 9.12448 110.118 9.47148 110.119C9.47548 110.119 9.48048 110.119 9.48448 110.119C9.83148 110.119 10.1115 110.414 10.1085 110.777C10.0985 112.084 10.0865 113.391 10.0745 114.698C10.0715 115.061 9.78649 115.356 9.43849 115.356Z" fill="#282F3A"/>
<path d="M83.5685 106.29C83.5645 106.29 83.5605 106.29 83.5555 106.29C83.2085 106.29 82.9265 105.995 82.9245 105.631C82.9195 104.324 82.9165 103.017 82.9135 101.71C82.9125 101.346 83.1935 101.051 83.5405 101.052C83.5445 101.052 83.5485 101.052 83.5535 101.052C83.9005 101.052 84.1815 101.347 84.1825 101.71C84.1855 103.017 84.1895 104.324 84.1945 105.631C84.1945 105.995 83.9155 106.29 83.5685 106.29Z" fill="#282F3A"/>
<path d="M83.6685 115.356C83.6645 115.356 83.6604 115.356 83.6554 115.356C83.3074 115.356 83.0225 115.061 83.0195 114.698C83.0075 113.391 82.9955 112.084 82.9855 110.777C82.9825 110.413 83.2625 110.118 83.6095 110.119C83.6135 110.119 83.6175 110.119 83.6225 110.119C83.9705 110.119 84.2545 110.414 84.2565 110.777C84.2675 112.084 84.2785 113.391 84.2915 114.698C84.2955 115.061 84.0165 115.356 83.6685 115.356Z" fill="#282F3A"/>
<path d="M62.2655 90.036H31.2605C30.4985 83.698 30.7415 85.722 29.9795 79.384C41.0165 76.779 52.5095 76.779 63.5465 79.384C62.7845 85.722 63.0275 83.698 62.2655 90.036Z" fill="#282F3A"/>
<path d="M62.2655 90.036C63.0275 83.698 62.7845 85.722 63.5465 79.384C58.0275 78.082 52.3955 77.431 46.7635 77.431V90.037H62.2655V90.036Z" fill="#3A454F"/>
<path d="M15.5245 10.164C15.4035 10.275 15.2865 10.379 15.1715 10.476C15.2865 10.379 15.4045 10.275 15.5245 10.164Z" fill="#BDD6DB"/>
<path d="M13.7435 6.774C14.7845 7.242 15.6335 8.281 16.0685 9.645C15.9085 9.803 15.7545 9.95099 15.6045 10.091C16.3195 9.42199 17.1405 8.53999 18.1225 7.65099C20.5675 5.43799 23.0985 4.00699 22.1345 2.62099C18.6675 3.45499 15.8355 4.57299 14.3985 6.06599C14.1705 6.30299 13.9535 6.538 13.7435 6.774Z" fill="#BDD6DB"/>
<path d="M15.6045 10.091C15.5775 10.116 15.5515 10.139 15.5245 10.164C15.5515 10.14 15.5775 10.116 15.6045 10.091Z" fill="#EC9100"/>
<path d="M13.7435 6.774C13.1965 7.387 12.7115 8.00301 12.2845 8.65401C12.2775 8.70301 12.2695 8.75399 12.2645 8.80199C12.2495 8.96499 12.2445 9.12501 12.2505 9.27901C12.2535 9.35801 12.2535 9.43799 12.2615 9.51399C12.2855 9.71699 12.3325 9.908 12.3985 10.089C12.4185 10.145 12.4415 10.199 12.4655 10.252C12.5545 10.446 12.6585 10.631 12.8015 10.789C12.9025 10.901 13.0055 10.983 13.1095 11.052C13.1385 11.071 13.1685 11.087 13.1975 11.103C13.2805 11.149 13.3655 11.182 13.4505 11.202C13.4745 11.208 13.4985 11.217 13.5235 11.221C13.6315 11.239 13.7415 11.239 13.8545 11.221C13.8765 11.218 13.8995 11.209 13.9215 11.205C14.0165 11.185 14.1125 11.154 14.2105 11.112C14.2425 11.099 14.2735 11.085 14.3055 11.07C14.4195 11.015 14.5355 10.95 14.6555 10.87C14.6615 10.866 14.6665 10.864 14.6725 10.86C14.8015 10.773 14.9355 10.669 15.0725 10.557C15.1045 10.531 15.1375 10.502 15.1705 10.474C15.2855 10.377 15.4025 10.273 15.5235 10.162C15.5505 10.138 15.5765 10.114 15.6035 10.089C15.7535 9.948 15.9075 9.79999 16.0675 9.64299C15.6335 8.28099 14.7855 7.242 13.7435 6.774Z" fill="#EC9100"/>
<path d="M74.9705 7.65199C75.9525 8.54099 76.7735 9.423 77.4885 10.092C77.3385 9.951 77.1845 9.80301 77.0245 9.64601C77.4575 8.28901 78.2995 7.253 79.3335 6.782C79.1235 6.542 78.9065 6.30401 78.6775 6.06801C77.2425 4.57701 74.4155 3.45999 70.9545 2.62599C69.9985 4.00999 72.5285 5.44099 74.9705 7.65199Z" fill="#BDD6DB"/>
<path d="M79.3335 6.78099C78.2995 7.25299 77.4575 8.288 77.0245 9.645C77.1845 9.803 77.3385 9.95099 77.4885 10.091C77.5155 10.116 77.5415 10.139 77.5685 10.164C77.6895 10.275 77.8065 10.379 77.9215 10.476C77.9545 10.504 77.9875 10.532 78.0195 10.559C78.1565 10.671 78.2905 10.775 78.4195 10.862C78.4255 10.866 78.4305 10.868 78.4365 10.872C78.5565 10.952 78.6725 11.017 78.7865 11.072C78.8185 11.087 78.8495 11.101 78.8815 11.114C78.9795 11.156 79.0765 11.187 79.1715 11.207C79.1935 11.212 79.2165 11.22 79.2385 11.223C79.3515 11.241 79.4615 11.24 79.5695 11.223C79.5945 11.219 79.6175 11.209 79.6425 11.204C79.7285 11.183 79.8125 11.15 79.8955 11.105C79.9245 11.089 79.9545 11.074 79.9835 11.054C80.0875 10.985 80.1905 10.903 80.2915 10.791C80.4345 10.632 80.5395 10.448 80.6275 10.254C80.6515 10.201 80.6745 10.147 80.6945 10.091C80.7605 9.90999 80.8075 9.71901 80.8315 9.51601C80.8405 9.44001 80.8395 9.35999 80.8425 9.28099C80.8485 9.12699 80.8435 8.967 80.8285 8.804C80.8275 8.797 80.8265 8.789 80.8255 8.782C80.3905 8.079 79.8945 7.42099 79.3335 6.78099Z" fill="#EC9100"/>
</svg>
