<svg width="93" height="178" viewBox="0 0 93 178" fill="none" xmlns="http://www.w3.org/2000/svg">
<path d="M84.5897 39.403C84.5897 20.757 83.5177 10.599 78.6747 5.756C73.8317 0.912997 54.5277 0 46.3577 0C38.1877 0 18.8847 0.912997 14.0407 5.756C9.19765 10.599 8.12565 19.814 8.12565 39.403C8.12565 66.234 4.86865 163.441 13.2117 170.184C21.5557 176.927 37.9627 177.197 46.3567 177.197C54.7517 177.197 71.1586 176.927 79.5016 170.184C87.8466 163.441 84.5897 66.234 84.5897 39.403Z" fill="#8E8C75"/>
<path d="M81.3036 43.631C81.3036 25.581 80.3247 18.909 75.8977 14.482C71.4707 10.055 53.8257 8.242 46.3577 8.242C38.8897 8.242 21.2457 10.055 16.8187 14.482C12.3917 18.909 11.4127 23.586 11.4127 43.631C11.4127 47.803 11.8967 54.084 13.1597 60.277C15.5217 65.532 16.7907 74.221 17.6737 82.683C16.6647 84.062 16.0707 86.784 16.0707 89.664C14.7357 93.599 15.7327 101.911 16.0707 107.04C16.0897 107.321 16.0527 108.213 16.0707 108.493C16.0707 108.493 15.2737 126.207 16.0707 134.027C16.2637 135.919 16.7057 138.538 17.0417 139.125C17.3187 141.527 13.9957 151.551 14.3417 153.397C15.0357 157.1 14.9937 162.31 16.0617 163.173C23.6887 169.337 38.6857 169.584 46.3587 169.584C54.0317 169.584 69.0287 169.337 76.6557 163.173C77.7237 162.31 77.6817 157.1 78.3757 153.397C78.7217 151.552 75.3977 141.527 75.6757 139.125C76.1957 137.738 76.4547 135.919 76.6477 134.027C77.4457 126.208 76.6477 108.493 76.6477 108.493C76.6657 108.213 76.6287 107.321 76.6477 107.04C76.9857 101.91 77.9827 93.598 76.6477 89.664C76.6477 86.784 76.0537 84.062 75.0447 82.683C75.9267 74.221 77.1956 65.532 79.5576 60.277C80.8196 54.084 81.3036 47.803 81.3036 43.631Z" fill="#AAAE8B"/>
<path d="M16.0707 107.04V88.8L10.9847 62.062C9.96966 71.655 9.89365 90.275 10.0887 107.04H16.0707Z" fill="#282F3A"/>
<path d="M10.1057 108.494C10.3277 126.029 10.8287 141.156 10.8287 141.156L16.0707 134.028V108.494H10.1057Z" fill="#282F3A"/>
<path d="M46.3577 50.404C46.3577 50.404 27.2647 50.166 13.1587 60.277L17.6717 82.683C17.6717 82.683 25.4337 76.216 46.3567 76.216C67.2797 76.216 75.0417 82.683 75.0417 82.683L79.5547 60.277C65.4507 50.166 46.3577 50.404 46.3577 50.404Z" fill="#282F3A"/>
<path d="M76.6467 107.04V88.8L81.7327 62.062C82.7487 71.655 82.8237 90.275 82.6287 107.04H76.6467Z" fill="#3A454F"/>
<path d="M82.6107 108.494C82.3887 126.029 81.8876 141.156 81.8876 141.156L76.6457 134.028V108.494H82.6107Z" fill="#3A454F"/>
<path d="M75.6747 139.125C68.5597 141.027 24.1567 141.027 17.0417 139.125C17.0417 139.125 13.6907 147.761 14.3417 153.397C19.1587 156.26 29.3597 159.898 46.3587 159.898C63.3577 159.898 73.5587 156.26 78.3757 153.397C79.0257 147.762 75.6747 139.125 75.6747 139.125Z" fill="#282F3A"/>
<path d="M9.21266 67.091L1.28866 68.999C0.572661 69.172 -0.10534 68.566 0.0136598 67.839C0.24366 66.423 1.07966 64.39 3.89866 63.606C8.41266 62.348 9.21266 67.091 9.21266 67.091Z" fill="#AAAE8B"/>
<path d="M83.5037 67.091L91.4286 68.999C92.1446 69.172 92.8227 68.566 92.7037 67.839C92.4737 66.423 91.6376 64.39 88.8186 63.606C84.3036 62.348 83.5037 67.091 83.5037 67.091Z" fill="#AAAE8B"/>
<path d="M32.6337 8.89899C32.6337 8.89899 32.7047 9.43699 32.8297 10.379C32.8917 10.85 32.9677 11.422 33.0547 12.078C33.1507 12.73 33.2507 13.469 33.2487 14.325C33.2677 15.166 33.2877 16.078 33.3087 17.042C33.3667 18.01 33.2537 19.001 33.1927 20.034C33.1057 21.064 33.0887 22.134 32.9377 23.207C32.7777 24.278 32.6157 25.365 32.4537 26.452C32.3307 27.544 32.0117 28.603 31.7907 29.659C31.5377 30.709 31.3347 31.751 30.9787 32.721C30.6577 33.696 30.3487 34.639 30.0547 35.533C29.7547 36.423 29.3497 37.224 29.0417 37.982C28.6967 38.726 28.4647 39.442 28.1127 40.013C27.7767 40.588 27.4827 41.088 27.2417 41.501C26.7617 42.321 26.4867 42.789 26.4867 42.789C26.4867 42.789 26.7097 42.293 27.1007 41.425C27.2947 40.994 27.5307 40.47 27.8007 39.869C28.0887 39.279 28.2737 38.548 28.5507 37.79C28.7947 37.018 29.1287 36.207 29.3537 35.308C29.5717 34.408 29.8027 33.459 30.0407 32.477C30.3197 31.508 30.4147 30.46 30.6107 29.422C30.7687 28.376 31.0237 27.331 31.0827 26.255C31.1817 25.187 31.2797 24.12 31.3777 23.069C31.4657 22.019 31.4227 20.978 31.4517 19.978C31.4547 18.978 31.5117 18.003 31.4037 17.108C31.3357 16.209 31.2707 15.358 31.2107 14.573C31.1907 13.796 31.0627 13.06 30.9407 12.406C30.8287 11.754 30.7307 11.186 30.6507 10.718C30.4897 9.78199 30.3977 9.24699 30.3977 9.24699L32.6337 8.89899Z" fill="#8E8C75"/>
<path d="M62.3157 9.24299C62.3157 9.24299 62.2236 9.77799 62.0626 10.714C61.9826 11.182 61.8847 11.75 61.7727 12.402C61.6507 13.056 61.5226 13.792 61.5026 14.569C61.4426 15.354 61.3777 16.204 61.3097 17.104C61.2017 18 61.2587 18.974 61.2617 19.974C61.2907 20.975 61.2476 22.015 61.3356 23.065C61.4326 24.116 61.5317 25.184 61.6307 26.251C61.6897 27.327 61.9447 28.372 62.1027 29.418C62.2987 30.456 62.3946 31.504 62.6726 32.473C62.9106 33.455 63.1406 34.404 63.3596 35.304C63.5846 36.204 63.9187 37.014 64.1627 37.786C64.4397 38.545 64.6247 39.275 64.9127 39.865C65.1827 40.466 65.4186 40.99 65.6126 41.421C66.0036 42.289 66.2266 42.785 66.2266 42.785C66.2266 42.785 65.9526 42.317 65.4716 41.497C65.2296 41.085 64.9367 40.584 64.6007 40.009C64.2487 39.438 64.0167 38.723 63.6717 37.978C63.3637 37.22 62.9587 36.419 62.6587 35.529C62.3647 34.635 62.0546 33.692 61.7346 32.717C61.3796 31.747 61.1767 30.705 60.9237 29.655C60.7027 28.599 60.3836 27.54 60.2606 26.448C60.0986 25.361 59.9367 24.273 59.7767 23.203C59.6267 22.13 59.6086 21.061 59.5216 20.03C59.4606 18.997 59.3476 18.005 59.4056 17.038C59.4266 16.074 59.4476 15.163 59.4656 14.321C59.4646 13.466 59.5646 12.726 59.6596 12.074C59.7466 11.418 59.8217 10.846 59.8847 10.375C60.0087 9.43299 60.0807 8.89499 60.0807 8.89499L62.3157 9.24299Z" fill="#8E8C75"/>
<path d="M75.0437 82.683L79.5567 60.277C65.4507 50.166 46.3577 50.404 46.3577 50.404V76.216C67.2807 76.216 75.0437 82.683 75.0437 82.683Z" fill="#3A454F"/>
<path d="M75.6747 139.125C75.4347 139.189 75.1747 139.246 74.9017 139.298C74.8287 139.312 74.7357 139.325 74.6587 139.338C74.4977 139.365 74.3417 139.395 74.1707 139.419C69.2877 140.174 57.8327 140.552 46.3577 140.552V159.898C63.3567 159.898 73.5576 156.26 78.3746 153.397C79.0256 147.762 75.6747 139.125 75.6747 139.125Z" fill="#3A454F"/>
<path d="M55.6507 3.15601L56.9317 0.538006C56.9547 0.491006 56.9627 0.442004 56.9797 0.395004C52.8497 0.0980043 49.0137 0.00100708 46.3577 0.00100708C43.7017 0.00100708 39.8667 0.0990043 35.7357 0.395004C35.7527 0.443004 35.7607 0.491006 35.7837 0.538006L37.0647 3.15601C37.2957 3.62801 37.7757 3.92801 38.3017 3.92801H54.4127C54.9397 3.92801 55.4197 3.62801 55.6507 3.15601Z" fill="#282F3A"/>
<path d="M13.5837 14.027C13.4787 14.027 13.3717 14.015 13.2657 13.99C12.5287 13.815 12.0727 13.076 12.2477 12.339C13.3817 7.56099 17.0707 4.84399 23.8587 3.78599C24.5997 3.67499 25.3077 4.18199 25.4247 4.93099C25.5417 5.67899 25.0287 6.37999 24.2797 6.49699C17.0767 7.61999 15.4917 10.547 14.9167 12.973C14.7667 13.603 14.2047 14.027 13.5837 14.027Z" fill="#BDD6DB"/>
<path d="M13.5857 9.13599C12.9747 10.079 12.5307 11.145 12.2477 12.339C12.0727 13.076 12.5287 13.816 13.2657 13.99C13.3717 14.015 13.4787 14.027 13.5837 14.027C14.2047 14.027 14.7667 13.603 14.9167 12.972C15.1047 12.179 15.4067 11.332 15.9717 10.511C15.2867 9.68999 14.4257 9.29699 13.5857 9.13599Z" fill="#EC9100"/>
<path d="M79.1327 14.027C79.2377 14.027 79.3446 14.015 79.4506 13.99C80.1876 13.815 80.6437 13.076 80.4687 12.339C79.3347 7.56099 75.6456 4.84399 68.8576 3.78599C68.1166 3.67499 67.4087 4.18199 67.2917 4.93099C67.1747 5.67899 67.6877 6.37999 68.4367 6.49699C75.6397 7.61999 77.2246 10.547 77.7996 12.973C77.9496 13.603 78.5117 14.027 79.1327 14.027Z" fill="#BDD6DB"/>
<path d="M79.1307 9.13599C79.7417 10.079 80.1857 11.145 80.4687 12.339C80.6437 13.076 80.1877 13.816 79.4507 13.99C79.3447 14.015 79.2377 14.027 79.1327 14.027C78.5117 14.027 77.9497 13.603 77.7997 12.972C77.6117 12.179 77.3097 11.332 76.7447 10.511C77.4297 9.68999 78.2907 9.29699 79.1307 9.13599Z" fill="#EC9100"/>
<path d="M46.3577 176.306C50.1517 176.306 55.5827 176.244 61.1647 175.562C61.0597 175.012 60.9547 174.462 60.8497 173.911C60.6287 172.755 59.5367 171.891 58.4017 171.949C50.3777 172.363 42.3377 172.363 34.3137 171.949C33.1787 171.891 32.0867 172.755 31.8657 173.911C31.7617 174.461 31.6567 175.012 31.5507 175.562C37.1337 176.244 42.5647 176.306 46.3577 176.306Z" fill="#AAAE8B"/>
<path d="M27.0037 174.964C27.0057 174.954 27.0077 174.945 27.0097 174.935C27.1817 174.154 26.6927 173.39 25.9137 173.205C23.5967 172.656 21.2967 172.012 19.0197 171.273C18.2587 171.026 17.4427 171.425 17.1837 172.181C17.1807 172.19 17.1767 172.2 17.1737 172.209C17.1267 172.346 17.1257 172.484 17.1197 172.622C19.9497 174.018 23.2157 174.988 26.5947 175.662C26.7847 175.471 26.9417 175.246 27.0037 174.964Z" fill="#DD3E3E"/>
<path d="M75.5327 172.182C75.2737 171.425 74.4577 171.027 73.6967 171.274C71.4187 172.013 69.1197 172.657 66.8027 173.206C66.0247 173.391 65.5347 174.155 65.7067 174.936C65.7087 174.946 65.7107 174.955 65.7127 174.965C65.7747 175.246 65.9317 175.472 66.1207 175.664C69.5007 174.991 72.7657 174.02 75.5957 172.624C75.5897 172.486 75.5887 172.348 75.5417 172.211C75.5397 172.201 75.5357 172.191 75.5327 172.182Z" fill="#DD3E3E"/>
<path d="M7.58066 103.81H7.56766C7.20366 103.81 6.90965 103.515 6.90965 103.152V99.232C6.90965 98.868 7.20466 98.574 7.56766 98.574H7.58066C7.94466 98.574 8.23866 98.869 8.23866 99.232V103.152C8.23866 103.516 7.94366 103.81 7.58066 103.81Z" fill="#282F3A"/>
<path d="M7.58066 118.383H7.56766C7.20366 118.383 6.90965 118.088 6.90965 117.725V113.805C6.90965 113.442 7.20466 113.147 7.56766 113.147H7.58066C7.94466 113.147 8.23866 113.442 8.23866 113.805V117.725C8.23866 118.088 7.94366 118.383 7.58066 118.383Z" fill="#282F3A"/>
<path d="M85.1497 103.81H85.1367C84.7737 103.81 84.4787 103.515 84.4787 103.152V99.232C84.4787 98.868 84.7737 98.574 85.1367 98.574H85.1497C85.5137 98.574 85.8076 98.869 85.8076 99.232V103.152C85.8076 103.516 85.5127 103.81 85.1497 103.81Z" fill="#282F3A"/>
<path d="M85.1497 118.383H85.1367C84.7737 118.383 84.4787 118.088 84.4787 117.725V113.805C84.4787 113.442 84.7737 113.147 85.1367 113.147H85.1497C85.5137 113.147 85.8076 113.442 85.8076 113.805V117.725C85.8076 118.088 85.5127 118.383 85.1497 118.383Z" fill="#282F3A"/>
</svg>
