<svg width="92" height="184" viewBox="0 0 92 184" fill="none" xmlns="http://www.w3.org/2000/svg">
<path d="M83.1135 41.755C83.1135 23.109 82.0685 15.437 77.3445 10.594C72.6205 5.75101 53.7935 2.35201 45.8245 2.35201C37.8565 2.35201 19.0285 5.75101 14.3045 10.594C9.58046 15.437 8.53547 22.166 8.53547 41.755C8.53547 68.586 5.35847 169.039 13.4965 175.783C21.6345 182.526 37.6375 182.796 45.8245 182.796C54.0125 182.796 70.0155 182.526 78.1525 175.783C86.2915 169.039 83.1135 68.586 83.1135 41.755Z" fill="#EDEDED"/>
<path d="M45.8245 162.25C24.4215 162.25 14.0085 156.439 8.97546 151.288C9.79446 164.436 11.1905 173.872 13.4965 175.782C21.6345 182.525 37.6375 182.795 45.8245 182.795C54.0115 182.795 70.0145 182.525 78.1525 175.782C80.4575 173.871 81.8545 164.436 82.6735 151.288C77.6415 156.439 67.2285 162.25 45.8245 162.25Z" fill="#14181E"/>
<path d="M79.9095 45.983C79.9095 27.933 78.9545 21.261 74.6365 16.834C70.3185 12.407 53.1095 10.594 45.8255 10.594C38.5415 10.594 21.3325 12.407 17.0145 16.834C12.6965 21.261 11.7415 25.938 11.7415 45.983C11.7415 50.155 12.2135 56.436 13.4455 62.629C15.7495 67.884 16.9875 76.573 17.8475 85.035C16.8635 86.414 16.2845 89.136 16.2845 92.016C14.9825 95.951 15.9545 104.263 16.2845 109.392C16.3025 109.673 16.2665 110.565 16.2845 110.845C16.2845 110.845 15.5065 128.559 16.2845 136.379C16.4725 138.271 16.9035 140.89 17.2325 141.477C17.5035 143.879 14.2615 153.903 14.5985 155.749C15.2755 159.453 15.2345 167.908 16.2755 168.772C23.7135 174.936 38.3415 175.182 45.8255 175.182C53.3095 175.182 67.9365 174.935 75.3755 168.772C76.4175 167.909 76.3755 159.453 77.0535 155.749C77.3905 153.904 74.1495 143.879 74.4195 141.477C74.9265 140.09 75.1785 138.271 75.3665 136.379C76.1445 128.56 75.3665 110.845 75.3665 110.845C75.3845 110.565 75.3485 109.673 75.3665 109.392C75.6965 104.263 76.6685 95.951 75.3665 92.016C75.3665 89.136 74.7875 86.414 73.8035 85.035C74.6635 76.573 75.9015 67.884 78.2055 62.629C79.4375 56.436 79.9095 50.155 79.9095 45.983Z" fill="white"/>
<path d="M83.3415 62.629C83.2195 53.925 83.1145 46.618 83.1145 41.755C83.1145 23.109 82.0695 15.437 77.3455 10.594C72.6215 5.75101 53.7945 2.35201 45.8255 2.35201C37.8565 2.35201 19.0295 5.75101 14.3055 10.594C9.58147 15.437 8.53647 22.166 8.53647 41.755C8.53647 46.618 8.43146 53.925 8.30946 62.629H83.3415Z" fill="#14181E"/>
<path d="M74.6365 16.834C70.3185 12.407 53.1095 10.594 45.8255 10.594C38.5415 10.594 21.3325 12.407 17.0145 16.834C12.6965 21.261 11.7415 25.938 11.7415 45.983C11.7415 50.155 12.2135 56.436 13.4455 62.629H78.2055C79.4375 56.435 79.9095 50.155 79.9095 45.983C79.9095 27.933 78.9535 21.261 74.6365 16.834Z" fill="#323D41"/>
<path d="M16.2835 109.392V91.152L11.3225 64.414C10.3325 74.007 10.2585 92.627 10.4485 109.392H16.2835Z" fill="#282F3A"/>
<path d="M10.4665 110.845C10.6825 128.38 11.1715 143.507 11.1715 143.507L16.2845 136.379V110.845H10.4665Z" fill="#282F3A"/>
<path d="M45.8245 52.756C45.8245 52.756 27.2025 52.518 13.4445 62.629L17.8465 85.035C17.8465 85.035 25.4175 78.568 45.8245 78.568C66.2315 78.568 73.8025 85.035 73.8025 85.035L78.2045 62.629C64.4465 52.518 45.8245 52.756 45.8245 52.756Z" fill="#282F3A"/>
<path d="M75.3665 109.392V91.152L80.3275 64.414C81.3185 74.007 81.3915 92.627 81.2015 109.392H75.3665Z" fill="#3A454F"/>
<path d="M81.1835 110.845C80.9675 128.38 80.4785 143.507 80.4785 143.507L75.3655 136.379V110.845H81.1835Z" fill="#3A454F"/>
<path d="M74.4185 141.477C67.4795 143.379 24.1705 143.379 17.2315 141.477C17.2315 141.477 13.9625 150.113 14.5975 155.749C19.2955 158.612 29.2445 162.25 45.8245 162.25C62.4045 162.25 72.3545 158.612 77.0515 155.749C77.6875 150.113 74.4185 141.477 74.4185 141.477Z" fill="#282F3A"/>
<path d="M9.59547 69.443L1.86647 71.351C1.16747 71.523 0.507468 70.918 0.622468 70.191C0.847468 68.775 1.66247 66.742 4.41147 65.957C8.81447 64.7 9.59547 69.443 9.59547 69.443Z" fill="#323635"/>
<path d="M82.0545 69.443L89.7835 71.351C90.4825 71.523 91.1425 70.918 91.0275 70.191C90.8025 68.775 89.9875 66.742 87.2385 65.957C82.8355 64.7 82.0545 69.443 82.0545 69.443Z" fill="#323635"/>
<path d="M73.8035 85.035L78.2055 62.629C64.4475 52.518 45.8255 52.756 45.8255 52.756V78.568C66.2325 78.567 73.8035 85.035 73.8035 85.035Z" fill="#3A454F"/>
<path d="M74.4185 141.477C74.1845 141.541 73.9305 141.598 73.6645 141.65C73.5935 141.664 73.5025 141.677 73.4275 141.69C73.2705 141.718 73.1175 141.747 72.9515 141.771C68.1895 142.526 57.0155 142.904 45.8245 142.904V162.25C62.4045 162.25 72.3545 158.612 77.0515 155.749C77.6875 150.113 74.4185 141.477 74.4185 141.477Z" fill="#3A454F"/>
<path d="M58.3825 179.946C50.0165 180.616 41.6335 180.616 33.2675 179.946C32.7385 179.904 32.2185 180.161 31.7855 180.625C30.9075 181.566 31.5295 183.106 32.8145 183.175C37.7405 183.437 42.2455 183.471 45.8245 183.471C49.4075 183.471 53.9185 183.437 58.8505 183.174C60.0435 183.11 60.7575 181.714 60.0055 180.787C59.5465 180.221 58.9705 179.899 58.3825 179.946Z" fill="#282F3A"/>
<path d="M26.9475 180.562C26.9495 180.552 26.9515 180.543 26.9535 180.533C27.1215 179.752 26.6435 178.988 25.8845 178.803C23.6245 178.254 21.3815 177.61 19.1605 176.871C18.4185 176.624 17.6225 177.022 17.3695 177.779C17.3665 177.788 17.3635 177.797 17.3605 177.807C17.3145 177.944 17.3135 178.083 17.3085 178.221C20.0685 179.617 23.2535 180.587 26.5505 181.26C26.7335 181.069 26.8865 180.843 26.9475 180.562Z" fill="#DD3E3E"/>
<path d="M74.2805 177.78C74.0275 177.023 73.2315 176.625 72.4895 176.872C70.2685 177.611 68.0245 178.255 65.7655 178.804C65.0065 178.989 64.5285 179.753 64.6965 180.534C64.6985 180.544 64.7005 180.553 64.7025 180.563C64.7625 180.844 64.9155 181.07 65.1005 181.262C68.3965 180.589 71.5815 179.618 74.3425 178.223C74.3365 178.085 74.3355 177.946 74.2905 177.809C74.2865 177.798 74.2835 177.789 74.2805 177.78Z" fill="#DD3E3E"/>
<path d="M63.6765 6.56499C64.6405 6.77499 65.6195 6.16101 65.8495 5.20201C65.8515 5.19401 65.8535 5.18599 65.8555 5.17699C65.9455 4.79999 65.7235 4.41499 65.3485 4.31599C58.3875 2.47899 50.3535 1.37999 45.8245 1.37999C41.2955 1.37999 33.2615 2.47899 26.3015 4.31599C25.9255 4.41499 25.7035 4.79999 25.7945 5.17799C25.7965 5.18699 25.7985 5.196 25.8005 5.205C26.0305 6.163 27.0095 6.77499 27.9725 6.56599C33.8285 5.29199 39.8655 4.00101 45.8245 3.99501C51.8365 3.98801 57.7695 5.27899 63.6765 6.56499Z" fill="#34383F"/>
<path d="M58.9865 40.578C58.8355 41.329 58.1325 41.882 57.3325 41.882H34.3175C33.5185 41.882 32.8145 41.329 32.6635 40.578L29.6635 25.67L32.1525 42.375C32.2755 43.2 32.9845 43.811 33.8185 43.811H57.8315C58.6655 43.811 59.3745 43.2 59.4975 42.375L61.9865 25.67L58.9865 40.578Z" fill="#3A454F"/>
<path d="M15.7585 10.833C15.3845 10.983 15.0105 11.134 14.6365 11.284C17.5625 10.107 20.4925 8.93601 23.4285 7.77101C24.0735 7.51501 24.3895 6.78601 24.1325 6.14201C24.1295 6.13401 24.1265 6.126 24.1235 6.118C24.0955 6.047 24.0425 5.99701 24.0035 5.93401C20.4015 7.01401 17.2635 8.298 15.3155 9.73C15.4635 10.098 15.6115 10.465 15.7585 10.833Z" fill="#BDD6DB"/>
<path d="M14.6365 11.284C15.0105 11.133 15.3845 10.983 15.7585 10.833C15.6105 10.465 15.4625 10.098 15.3155 9.731C14.9315 10.013 14.5915 10.301 14.3055 10.594C14.0895 10.816 13.8895 11.047 13.6885 11.277C13.9805 11.398 14.3185 11.412 14.6365 11.284Z" fill="#EC9100"/>
<path d="M68.3495 7.52901C71.2235 8.83901 74.0915 10.155 76.9545 11.477C76.5885 11.308 76.2225 11.139 75.8555 10.97C76.0375 10.575 76.2205 10.18 76.4035 9.78401C74.4715 8.33801 71.3285 7.04201 67.7075 5.95201C67.4795 6.56401 67.7465 7.25401 68.3495 7.52901Z" fill="#BDD6DB"/>
<path d="M76.4045 9.78499C76.2215 10.18 76.0395 10.575 75.8565 10.971C76.2225 11.14 76.5895 11.309 76.9555 11.478C77.3335 11.652 77.7415 11.604 78.0795 11.417C77.8435 11.135 77.6015 10.859 77.3445 10.595C77.0775 10.319 76.7585 10.05 76.4045 9.78499Z" fill="#EC9100"/>
<path d="M7.93246 106.162H7.91946C7.55546 106.162 7.26147 105.867 7.26147 105.504V101.584C7.26147 101.221 7.55646 100.926 7.91946 100.926H7.93246C8.29546 100.926 8.59047 101.221 8.59047 101.584V105.504C8.59047 105.867 8.29546 106.162 7.93246 106.162Z" fill="#282F3A"/>
<path d="M7.93246 120.734H7.91946C7.55546 120.734 7.26147 120.439 7.26147 120.076V116.156C7.26147 115.792 7.55646 115.498 7.91946 115.498H7.93246C8.29546 115.498 8.59047 115.793 8.59047 116.156V120.076C8.59047 120.44 8.29546 120.734 7.93246 120.734Z" fill="#282F3A"/>
<path d="M83.7315 106.162H83.7185C83.3545 106.162 83.0605 105.867 83.0605 105.504V101.584C83.0605 101.221 83.3555 100.926 83.7185 100.926H83.7315C84.0945 100.926 84.3895 101.221 84.3895 101.584V105.504C84.3895 105.867 84.0945 106.162 83.7315 106.162Z" fill="#282F3A"/>
<path d="M83.7315 120.734H83.7185C83.3545 120.734 83.0605 120.439 83.0605 120.076V116.156C83.0605 115.792 83.3555 115.498 83.7185 115.498H83.7315C84.0945 115.498 84.3895 115.793 84.3895 116.156V120.076C84.3895 120.44 84.0945 120.734 83.7315 120.734Z" fill="#282F3A"/>
<path d="M33.6025 4.66699L30.9605 4.97998C30.2565 5.06298 29.6175 4.55999 29.5345 3.85599L29.3215 2.06198C29.2385 1.35798 29.7415 0.718988 30.4455 0.635988L33.0875 0.323C33.7915 0.24 34.4305 0.742993 34.5135 1.44699L34.7265 3.241C34.8105 3.945 34.3065 4.58299 33.6025 4.66699Z" fill="#34383F"/>
<path d="M58.0475 4.66699L60.6895 4.97998C61.3935 5.06298 62.0325 4.55999 62.1155 3.85599L62.3275 2.06198C62.4115 1.35798 61.9075 0.718988 61.2035 0.635988L58.5615 0.323C57.8575 0.24 57.2185 0.742993 57.1355 1.44699L56.9225 3.241C56.8395 3.945 57.3435 4.58299 58.0475 4.66699Z" fill="#34383F"/>
<path d="M36.0975 6.31598L33.3435 6.85599C32.7565 6.97099 32.1885 6.58899 32.0725 6.00199L32.0685 5.98099C31.9535 5.39399 32.3355 4.82499 32.9225 4.70999L35.6765 4.16999C36.2635 4.05499 36.8325 4.43699 36.9475 5.02399L36.9515 5.04499C37.0665 5.63199 36.6845 6.20098 36.0975 6.31598Z" fill="#C80406"/>
<path d="M55.5525 6.31598L58.3065 6.85599C58.8935 6.97099 59.4625 6.58899 59.5765 6.00199L59.5805 5.98099C59.6955 5.39399 59.3135 4.82499 58.7265 4.70999L55.9725 4.16999C55.3855 4.05499 54.8165 4.43699 54.7015 5.02399L54.6975 5.04499C54.5835 5.63199 54.9665 6.20098 55.5525 6.31598Z" fill="#124CDA"/>
<path d="M61.0505 34.769V33.068C61.0505 30.975 62.0595 29.835 64.1155 29.835H65.0875V24.92H67.1435V38.002H64.1155C62.0595 38.002 61.0505 36.862 61.0505 34.769ZM65.0875 36.133V31.704H64.1155C63.4615 31.704 63.1065 32.003 63.1065 32.938V34.9C63.1065 35.834 63.4615 36.134 64.1155 36.134L65.0875 36.133Z" fill="white"/>
<path d="M59.2365 34.862C59.2365 36.955 58.1335 38.152 56.1155 38.152C54.0975 38.152 52.9945 36.956 52.9945 34.862V28.059C52.9945 25.966 54.0975 24.77 56.1155 24.77C58.1335 24.77 59.2365 25.966 59.2365 28.059V34.862ZM57.1805 27.929C57.1805 26.995 56.7695 26.639 56.1155 26.639C55.4615 26.639 55.0505 26.995 55.0505 27.929V34.993C55.0505 35.928 55.4615 36.283 56.1155 36.283C56.7695 36.283 57.1805 35.928 57.1805 34.993V27.929Z" fill="white"/>
<path d="M50.7315 38.002H48.6755V26.789H45.2925V24.92H50.7315V38.002Z" fill="white"/>
<path d="M43.4605 38.002H41.4045V24.92H43.4605V38.002Z" fill="white"/>
<path d="M33.0135 29.798V28.06C33.0135 25.967 34.0595 24.771 36.0775 24.771C38.0955 24.771 39.1425 25.967 39.1425 28.06V34.863C39.1425 36.956 38.0955 38.153 36.0775 38.153C34.0585 38.153 33.0135 36.957 33.0135 34.863V33.592H34.9565V34.994C34.9565 35.929 35.3675 36.284 36.0215 36.284C36.6755 36.284 37.0865 35.929 37.0865 34.994V27.93C37.0865 26.996 36.6755 26.659 36.0215 26.659C35.3675 26.659 34.9565 26.996 34.9565 27.93V29.799H33.0135V29.798Z" fill="white"/>
<path d="M28.7695 32.489H25.9475V30.62H28.7695V26.789H25.2185V24.92H30.8255V38.002H25.2185V36.134H28.7695V32.489Z" fill="white"/>
<path d="M38.2525 166.891V167.798C38.2525 168.914 37.7145 169.522 36.6185 169.522H36.1005V172.143H35.0045V165.168H36.6185C37.7145 165.167 38.2525 165.775 38.2525 166.891ZM36.1005 166.163V168.525H36.6185C36.9675 168.525 37.1565 168.366 37.1565 167.867V166.821C37.1565 166.323 36.9675 166.163 36.6185 166.163H36.1005Z" fill="#14181E"/>
<path d="M39.2195 166.841C39.2195 165.725 39.8075 165.087 40.8835 165.087C41.9595 165.087 42.5475 165.725 42.5475 166.841V170.468C42.5475 171.584 41.9595 172.222 40.8835 172.222C39.8075 172.222 39.2195 171.584 39.2195 170.468V166.841ZM40.3155 170.538C40.3155 171.036 40.5345 171.226 40.8835 171.226C41.2325 171.226 41.4515 171.036 41.4515 170.538V166.771C41.4515 166.272 41.2325 166.083 40.8835 166.083C40.5345 166.083 40.3155 166.272 40.3155 166.771V170.538Z" fill="#14181E"/>
<path d="M43.7545 165.167H44.8505V171.146H46.6545V172.143H43.7545V165.167Z" fill="#14181E"/>
<path d="M47.6315 165.167H48.7275V172.142H47.6315V165.167Z" fill="#14181E"/>
<path d="M53.2025 169.541V170.468C53.2025 171.584 52.6445 172.222 51.5685 172.222C50.4925 172.222 49.9345 171.584 49.9345 170.468V166.841C49.9345 165.725 50.4925 165.087 51.5685 165.087C52.6445 165.087 53.2025 165.725 53.2025 166.841V167.519H52.1665V166.772C52.1665 166.273 51.9475 166.084 51.5985 166.084C51.2495 166.084 51.0305 166.273 51.0305 166.772V170.539C51.0305 171.037 51.2495 171.217 51.5985 171.217C51.9475 171.217 52.1665 171.037 52.1665 170.539V169.542H53.2025V169.541Z" fill="#14181E"/>
<path d="M55.4645 168.107H56.9695V169.104H55.4645V171.146H57.3575V172.143H54.3675V165.168H57.3575V166.164H55.4645V168.107Z" fill="#14181E"/>
<path d="M39.1375 131.901C39.1375 135.068 37.6875 136.788 34.6275 136.788C31.7275 136.788 30.2245 135.068 30.2245 132.062V131.577H33.0165V132.25C33.0165 133.591 33.6075 134.101 34.5475 134.101C35.5945 134.101 36.1845 133.591 36.1845 131.792V128.356C35.6745 129.43 34.7615 130.022 33.4465 130.022C31.2715 130.022 30.1705 128.49 30.1705 125.725V122.289C30.1705 119.282 31.7555 117.563 34.6545 117.563C37.5535 117.563 39.1375 119.281 39.1375 122.289V131.901ZM36.1845 125.486V122.103C36.1845 120.76 35.5935 120.275 34.6545 120.275C33.7145 120.275 33.1235 120.76 33.1235 122.103V125.486C33.1235 126.827 33.7145 127.337 34.6545 127.337C35.5935 127.337 36.1845 126.827 36.1845 125.486Z" fill="#14181E"/>
<path d="M44.2675 120.141C46.5495 120.141 47.0595 119.04 47.5165 117.78H49.5035V136.573H46.5505V122.236H44.2685V120.141H44.2675Z" fill="#14181E"/>
<path d="M56.2445 120.141C58.5265 120.141 59.0365 119.04 59.4935 117.78H61.4805V136.573H58.5265V122.236H56.2445V120.141Z" fill="#14181E"/>
<path d="M53.2535 95.369H38.3955V104.855H53.2535V95.369Z" fill="#14181E"/>
<path d="M25.0805 95.369C24.4495 95.369 23.9375 95.881 23.9375 96.512V103.713C23.9375 104.344 24.4495 104.856 25.0805 104.856H38.3955V95.37H25.0805V95.369Z" fill="#C80406"/>
<path d="M66.5695 95.369H53.2545V104.855H66.5695C67.2005 104.855 67.7125 104.343 67.7125 103.712V96.511C67.7125 95.881 67.2005 95.369 66.5695 95.369Z" fill="#124CDA"/>
<path d="M63.4575 102.401H28.1915C27.5615 102.401 27.0515 101.891 27.0515 101.261V99.252C27.0515 98.622 27.5615 98.112 28.1915 98.112H63.4575C64.0875 98.112 64.5975 98.622 64.5975 99.252V101.261C64.5975 101.89 64.0875 102.401 63.4575 102.401Z" fill="#14181E"/>
<path d="M53.2535 98.112H38.3955V102.401H53.2535V98.112Z" fill="#323D41"/>
<path d="M38.3955 98.112H28.1915C27.5615 98.112 27.0515 98.622 27.0515 99.252V101.261C27.0515 101.891 27.5615 102.401 28.1915 102.401H38.3955V98.112Z" fill="#FD0302"/>
<path d="M63.4575 98.112H53.2535V102.401H63.4575C64.0875 102.401 64.5975 101.891 64.5975 101.261V99.252C64.5975 98.622 64.0875 98.112 63.4575 98.112Z" fill="#1372D8"/>
</svg>
