<svg width="93" height="178" viewBox="0 0 93 178" fill="none" xmlns="http://www.w3.org/2000/svg">
<path d="M83.3615 34.718C83.7765 16.073 83.1195 10.908 78.4335 6.067C73.7745 1.226 54.4645 0.314011 46.2925 0.314011C38.1205 0.314011 18.8115 1.226 14.1545 6.067C9.46846 10.908 8.79246 15.13 9.23846 34.718C10.7155 61.55 5.97946 163.972 13.3695 170.694C21.4505 177.434 37.9085 177.704 46.2935 177.704C54.6785 177.704 71.1365 177.435 79.2205 170.694C86.6195 163.972 81.9005 61.55 83.3615 34.718Z" fill="#A90C1F"/>
<path d="M80.0955 38.946C80.4405 20.896 79.7195 19.215 75.4475 14.789C71.2015 10.364 53.7115 8.55101 46.2945 8.55101C38.8775 8.55101 21.3875 10.363 17.1445 14.789C12.8705 19.215 12.1095 18.9 12.5055 38.946C12.5835 43.118 13.1555 49.399 14.4395 55.594C16.7705 60.85 18.0545 69.541 18.9235 78.005C17.9655 79.384 17.4075 82.107 17.4105 84.988C16.1525 88.924 17.0765 96.944 17.3595 102.074C17.3755 102.355 17.3355 103.247 17.3505 103.528C17.3645 103.528 16.4495 121.246 17.0855 129.066C17.2445 130.958 17.6305 133.577 17.9475 134.164C18.1905 136.566 14.7745 146.59 15.0595 148.435C15.0595 148.435 15.3575 159.357 16.3855 160.22C23.7555 166.382 38.6835 166.628 46.2945 166.628C53.9055 166.628 68.8335 166.381 76.2065 160.22C77.2345 159.357 77.5375 148.435 77.5375 148.435C77.8235 146.59 74.4095 136.566 74.6525 134.164C75.1345 132.777 75.3565 130.958 75.5155 129.066C76.1525 121.246 75.2405 103.528 75.2545 103.528C75.2705 103.248 75.2294 102.355 75.2454 102.074C75.5294 96.943 76.4535 88.923 75.1955 84.988C75.1995 82.107 74.6405 79.385 73.6825 78.005C74.5505 69.541 75.8345 60.85 78.1645 55.594C79.4475 49.399 80.0185 43.119 80.0955 38.946Z" fill="#D10F29"/>
<path d="M35.2925 36.519C33.2235 24.841 31.1875 18.149 29.1425 6.467C29.9465 6.339 30.7495 6.212 31.5535 6.084C32.8055 17.894 34.0435 24.713 35.2925 36.519Z" fill="#A90C1F"/>
<path d="M57.3195 36.519C58.5645 24.714 59.7995 17.894 61.0505 6.084C61.8535 6.212 62.6575 6.339 63.4615 6.467C61.4185 18.149 59.3845 24.841 57.3195 36.519Z" fill="#A90C1F"/>
<path d="M17.3595 102.074C17.4055 94.254 17.4215 91.944 17.4085 84.123C15.7765 75.208 14.1045 66.293 12.3725 57.379C11.5395 66.974 11.6065 85.305 11.6435 102.074C13.5485 102.074 15.4545 102.074 17.3595 102.074Z" fill="#282F3A"/>
<path d="M11.6495 103.528C11.7335 121.067 11.8965 136.195 11.8995 136.195C13.6375 133.819 15.3665 131.443 17.0855 129.066C17.2085 120.554 17.2975 112.041 17.3505 103.528C15.4505 103.528 13.5505 103.528 11.6495 103.528Z" fill="#282F3A"/>
<path d="M46.3005 44.776C46.3125 44.776 27.5625 44.538 13.9335 54.651C15.4925 62.121 17.0085 69.591 18.4955 77.062C18.4955 77.062 25.9925 70.593 46.3025 70.593C66.6135 70.593 74.1105 77.062 74.1105 77.062C75.5965 69.591 77.1125 62.121 78.6695 54.651C65.0385 44.538 46.2895 44.776 46.3005 44.776Z" fill="#A90C1F"/>
<path d="M46.3005 45.719C46.3115 45.719 27.8585 45.481 14.4385 55.594C15.9705 63.064 17.4615 70.534 18.9225 78.005C18.9225 78.005 26.3055 71.536 46.3025 71.536C66.2995 71.536 73.6825 78.005 73.6825 78.005C75.1435 70.534 76.6335 63.064 78.1645 55.594C64.7435 45.481 46.2895 45.72 46.3005 45.719Z" fill="#282F3A"/>
<path d="M75.2455 102.074C75.2005 94.254 75.1845 91.944 75.1965 84.123C76.8285 75.208 78.4995 66.293 80.2305 57.379C81.0655 66.974 80.9995 85.305 80.9615 102.074C79.0565 102.074 77.1515 102.074 75.2455 102.074Z" fill="#3A454F"/>
<path d="M80.9555 103.528C80.8705 121.067 80.7035 136.195 80.7005 136.195C78.9625 133.819 77.2345 131.443 75.5155 129.066C75.3945 120.554 75.3075 112.041 75.2545 103.528C77.1545 103.528 79.0555 103.528 80.9555 103.528Z" fill="#3A454F"/>
<path d="M74.6525 134.164C67.8085 136.066 24.7915 136.066 17.9475 134.164C17.9545 134.164 14.5585 142.801 15.0595 148.435C19.6875 151.298 29.6195 154.935 46.2975 154.935C62.9755 154.935 72.9085 151.298 77.5375 148.435C78.0395 142.8 74.6455 134.164 74.6525 134.164Z" fill="#282F3A"/>
<path d="M73.6825 78.005C75.1435 70.535 76.6335 63.064 78.1645 55.594C64.7425 45.481 46.2895 45.719 46.3005 45.719C46.3015 54.324 46.3025 62.929 46.3025 71.535C66.2995 71.536 73.6825 78.005 73.6825 78.005Z" fill="#3A454F"/>
<path d="M74.6525 134.164C74.4215 134.228 74.1705 134.285 73.9075 134.337C73.8375 134.351 73.7475 134.363 73.6725 134.377C73.5175 134.404 73.3665 134.434 73.2015 134.458C68.4905 135.213 57.4055 135.592 46.2985 135.592C46.2975 142.041 46.2965 148.489 46.2955 154.937C62.9735 154.937 72.9065 151.3 77.5355 148.437C78.0395 142.801 74.6455 134.164 74.6525 134.164Z" fill="#3A454F"/>
<path d="M46.2925 0.314011C43.3795 0.314011 39.0485 0.431003 34.4725 0.800003C34.9925 1.495 35.5085 2.19398 36.0025 2.91798C36.3435 3.41298 56.2435 3.41298 56.5835 2.91798C57.0775 2.19398 57.5925 1.494 58.1125 0.800003C53.5365 0.431003 49.2065 0.314011 46.2925 0.314011Z" fill="#282F3A"/>
<path d="M15.1445 7.58C15.0645 7.724 14.9865 7.86999 14.9155 8.02199C14.9865 7.86999 15.0655 7.725 15.1445 7.58Z" fill="#BDD6DB"/>
<path d="M15.8055 6.56801C18.7665 2.76901 24.7975 2.21399 25.4145 1.95299C25.4505 1.93799 25.4745 1.90499 25.5065 1.88399C20.9015 2.67699 16.8675 3.846 14.7365 5.545C15.1215 5.799 15.4755 6.11201 15.8055 6.56801Z" fill="#BDD6DB"/>
<path d="M15.8065 6.56898C15.5615 6.88198 15.3435 7.221 15.1455 7.58C15.3445 7.223 15.5615 6.88198 15.8065 6.56898Z" fill="#EC9100"/>
<path d="M12.5915 10.275C12.7025 10.313 12.8155 10.338 12.9275 10.349C13.5885 10.417 14.2595 10.035 14.4285 9.364C14.5135 9.025 14.6265 8.70799 14.7505 8.40199C14.8025 8.27199 14.8585 8.14699 14.9165 8.02299C14.9885 7.871 15.0655 7.72501 15.1455 7.58101C15.3435 7.22201 15.5615 6.88298 15.8065 6.56898C15.4765 6.11298 15.1225 5.79901 14.7385 5.54601C14.5265 5.71501 14.3275 5.887 14.1555 6.067C13.1465 7.11 12.3235 8.125 11.6575 9.27C11.7935 9.72 12.1165 10.11 12.5915 10.275Z" fill="#EC9100"/>
<path d="M80.9265 9.368C80.9495 9.305 80.9795 9.245 80.9945 9.179V9.18001C80.9795 9.24501 80.9495 9.305 80.9265 9.368Z" fill="#BDD6DB"/>
<path d="M80.3905 10.09C80.2825 10.165 80.1645 10.229 80.0345 10.275C80.1645 10.229 80.2835 10.166 80.3905 10.09Z" fill="#BDD6DB"/>
<path d="M76.8185 6.56801C77.1425 6.11901 77.4915 5.80901 77.8675 5.55901C75.7475 3.85801 71.7235 2.68701 67.1245 1.89201C67.1545 1.91001 67.1745 1.93999 67.2065 1.95299C67.8245 2.21499 73.8565 2.76901 76.8185 6.56801Z" fill="#BDD6DB"/>
<path d="M80.8675 9.52998C80.8665 9.53298 80.8645 9.53501 80.8625 9.53801C80.8085 9.64401 80.7425 9.74401 80.6665 9.83501C80.6415 9.86401 80.6105 9.88799 80.5825 9.91499C80.7355 9.75899 80.8495 9.573 80.9265 9.368C80.9065 9.422 80.8935 9.47898 80.8675 9.52998Z" fill="#BDD6DB"/>
<path d="M76.8175 6.56897C77.0575 6.87697 77.2735 7.20898 77.4685 7.56098C77.5545 7.71498 77.6375 7.87198 77.7145 8.03498C77.7695 8.15298 77.8225 8.27098 77.8715 8.39298C77.9975 8.70198 78.1115 9.02099 78.1975 9.36399C77.9235 8.27099 77.4315 7.35497 76.8175 6.56897V6.56897Z" fill="#EC9100"/>
<path d="M80.3905 10.09C80.4615 10.04 80.5215 9.977 80.5815 9.916C80.5225 9.977 80.4625 10.039 80.3905 10.09Z" fill="#EC9100"/>
<path d="M79.6985 10.349C79.3685 10.383 79.0355 10.304 78.7635 10.133C79.0345 10.304 79.3685 10.383 79.6985 10.349Z" fill="#EC9100"/>
<path d="M80.8625 9.53801C80.8635 9.53501 80.8655 9.53298 80.8675 9.52998C80.8935 9.47798 80.9065 9.42099 80.9265 9.36699C80.2625 8.16499 79.4415 7.10699 78.4335 6.06599C78.2655 5.89099 78.0725 5.723 77.8675 5.558C77.4915 5.809 77.1435 6.119 76.8185 6.567C77.4315 7.354 77.9235 8.26998 78.1975 9.36198C78.2825 9.69798 78.4925 9.961 78.7635 10.132C79.0355 10.303 79.3675 10.381 79.6985 10.348C79.8105 10.337 79.9225 10.312 80.0345 10.274C80.1655 10.229 80.2825 10.165 80.3905 10.089C80.4625 10.038 80.5225 9.97599 80.5825 9.91399C80.6095 9.88699 80.6415 9.863 80.6665 9.834C80.7425 9.744 80.8085 9.64401 80.8625 9.53801Z" fill="#EC9100"/>
<path d="M46.2925 175.075C50.0315 175.075 55.3645 175.017 60.8495 174.362C60.8225 174.231 60.7955 174.099 60.7685 173.968C60.5315 172.813 59.4315 171.949 58.3005 172.007C50.3045 172.421 42.2795 172.421 34.2835 172.007C33.1535 171.949 32.0525 172.812 31.8145 173.968C31.7875 174.1 31.7605 174.231 31.7335 174.362C37.2215 175.018 42.5535 175.075 46.2925 175.075Z" fill="#D10F29"/>
<path d="M26.9805 175.472C26.9825 175.462 26.9855 175.453 26.9875 175.443C27.1735 174.662 26.6995 173.898 25.9275 173.714C23.6305 173.165 21.3555 172.521 19.1095 171.783C18.3595 171.537 17.5375 171.934 17.2595 172.691C17.2565 172.7 17.2525 172.71 17.2495 172.719C17.1995 172.856 17.1945 172.994 17.1845 173.132C19.9635 174.528 23.1985 175.497 26.5605 176.17C26.7525 175.978 26.9125 175.752 26.9805 175.472Z" fill="#DD3E3E"/>
<path d="M75.3284 172.691C75.0504 171.935 74.2284 171.537 73.4784 171.783C71.2324 172.521 68.9564 173.165 66.6594 173.714C65.8874 173.898 65.4134 174.662 65.5994 175.443C65.6014 175.453 65.6035 175.462 65.6065 175.472C65.6735 175.753 65.8344 175.979 66.0264 176.17C69.3884 175.497 72.6235 174.528 75.4035 173.132C75.3935 172.994 75.3895 172.856 75.3385 172.719C75.3355 172.709 75.3314 172.7 75.3284 172.691Z" fill="#DD3E3E"/>
<path d="M10.1635 60.088C10.1025 61.176 10.0415 62.264 9.97946 63.353C9.96346 63.631 10.0935 63.898 10.3175 64.051C10.5195 64.188 10.7215 64.326 10.9235 64.463C11.1145 62.618 11.3035 60.773 11.4915 58.928C11.1755 59.107 10.8585 59.286 10.5425 59.465C10.3215 59.589 10.1785 59.825 10.1635 60.088Z" fill="#282F3A"/>
<path d="M9.99446 62.286C7.21946 62.986 4.44546 63.685 1.67246 64.385C1.02746 64.548 0.439468 63.904 0.651468 63.248C1.02447 62.09 2.10346 60.514 5.14846 59.626C8.22246 58.729 9.76847 59.71 10.5175 60.666C10.9705 61.244 10.6845 62.112 9.99446 62.286Z" fill="#A90C1F"/>
<path d="M82.8725 60.088C82.9335 61.176 82.9945 62.264 83.0565 63.353C83.0725 63.631 82.9435 63.898 82.7185 64.051C82.5165 64.188 82.3145 64.326 82.1125 64.463C81.9215 62.618 81.7325 60.773 81.5445 58.928C81.8605 59.107 82.1775 59.286 82.4935 59.465C82.7155 59.589 82.8585 59.825 82.8725 60.088Z" fill="#282F3A"/>
<path d="M83.0415 62.286C85.8165 62.986 88.5905 63.685 91.3635 64.385C92.0085 64.548 92.5964 63.904 92.3844 63.248C92.0114 62.09 90.9325 60.514 87.8875 59.626C84.8135 58.729 83.2674 59.71 82.5184 60.666C82.0654 61.244 82.3525 62.112 83.0415 62.286Z" fill="#A90C1F"/>
<path d="M26.9805 175.472C26.9825 175.462 26.9855 175.453 26.9875 175.443C27.1735 174.662 26.6995 173.898 25.9275 173.714C25.3585 173.578 24.7945 173.418 24.2285 173.271C24.1505 174.043 24.0715 174.815 23.9925 175.587C24.8365 175.802 25.6935 175.997 26.5595 176.171C26.7525 175.978 26.9135 175.752 26.9805 175.472Z" fill="#FFA312"/>
<path d="M65.5994 175.443C65.6014 175.453 65.6035 175.462 65.6065 175.472C65.6735 175.753 65.8334 175.979 66.0264 176.17C66.8934 175.996 67.7495 175.802 68.5935 175.586C68.5145 174.814 68.4365 174.042 68.3585 173.27C67.7925 173.418 67.2284 173.577 66.6594 173.713C65.8884 173.898 65.4134 174.662 65.5994 175.443Z" fill="#FFA312"/>
<path d="M9.29547 99.138C9.29147 99.138 9.28747 99.138 9.28247 99.138C8.93547 99.138 8.65547 98.843 8.65647 98.479C8.66147 97.172 8.66547 95.865 8.66847 94.558C8.66947 94.194 8.95147 93.9 9.29747 93.9C9.30147 93.9 9.30547 93.9 9.31047 93.9C9.65747 93.9 9.93747 94.195 9.93747 94.558C9.93447 95.865 9.93047 97.172 9.92647 98.479C9.92447 98.843 9.64247 99.138 9.29547 99.138Z" fill="#282F3A"/>
<path d="M9.19346 108.204C9.18946 108.204 9.18546 108.204 9.18046 108.204C8.83246 108.204 8.55346 107.909 8.55746 107.546C8.57046 106.239 8.58246 104.932 8.59346 103.625C8.59646 103.261 8.88046 102.966 9.22746 102.967C9.23146 102.967 9.23546 102.967 9.24046 102.967C9.58746 102.967 9.86747 103.262 9.86447 103.625C9.85447 104.932 9.84247 106.239 9.83047 107.546C9.82647 107.909 9.54146 108.204 9.19346 108.204Z" fill="#282F3A"/>
<path d="M83.3235 99.138C83.3195 99.138 83.3155 99.138 83.3105 99.138C82.9635 99.138 82.6815 98.843 82.6795 98.479C82.6745 97.172 82.6715 95.865 82.6685 94.558C82.6675 94.194 82.9485 93.9 83.2955 93.9C83.2995 93.9 83.3035 93.9 83.3085 93.9C83.6555 93.9 83.9365 94.195 83.9375 94.558C83.9405 95.865 83.9445 97.172 83.9495 98.479C83.9505 98.843 83.6705 99.138 83.3235 99.138Z" fill="#282F3A"/>
<path d="M83.4235 108.204C83.4195 108.204 83.4155 108.204 83.4105 108.204C83.0625 108.204 82.7775 107.909 82.7745 107.546C82.7625 106.239 82.7505 104.932 82.7405 103.625C82.7375 103.261 83.0175 102.966 83.3645 102.967C83.3685 102.967 83.3725 102.967 83.3775 102.967C83.7255 102.967 84.0085 103.262 84.0115 103.625C84.0225 104.932 84.0335 106.239 84.0465 107.546C84.0505 107.909 83.7715 108.204 83.4235 108.204Z" fill="#282F3A"/>
<path d="M62.0205 90.036H31.0155C30.2535 83.698 30.4965 85.722 29.7345 79.384C40.7715 76.779 52.2645 76.779 63.3015 79.384C62.5395 85.722 62.7835 83.698 62.0205 90.036Z" fill="#282F3A"/>
<path d="M62.0205 90.036C62.7825 83.698 62.5395 85.722 63.3015 79.384C57.7835 78.082 52.1505 77.431 46.5185 77.431V90.037H62.0205V90.036Z" fill="#3A454F"/>
</svg>
