<svg xmlns="http://www.w3.org/2000/svg" xmlns:xlink="http://www.w3.org/1999/xlink" style="display: none;">
    <symbol id="driving-school-svgrepo-com" fill="#000000" height="800px" width="800px"
                viewBox="0 0 363.574 363.574" xml:space="preserve">
    <path d="M128.515,358.621c-1.582,3.141-4.753,4.954-8.045,4.954c-1.361,0-2.743-0.31-4.041-0.964
        c-27.744-13.974-50.713-36.944-64.679-64.681c-2.235-4.439-0.448-9.851,3.991-12.086c4.442-2.236,9.852-0.448,12.086,3.991
        c12.242,24.313,32.378,44.45,56.698,56.699C128.964,348.77,130.75,354.182,128.515,358.621z M354.13,1.936
        c-2.162-1.707-4.987-2.328-7.667-1.688L181.787,39.599L17.111,0.248c-2.681-0.643-5.506-0.018-7.667,1.688
        C7.281,3.643,6.02,6.246,6.02,9.001v208.458c0,4.165,2.858,7.786,6.909,8.753l32.533,7.773c4.833,1.155,9.69-1.829,10.845-6.663
        c1.155-4.834-1.828-9.69-6.663-10.845l-25.624-6.122V20.405l148.768,35.55v46.036c0,4.971,4.029,9,9,9s9-4.029,9-9V55.955
        l148.768-35.55v189.951l-29.351,7.014c-4.834,1.155-7.817,6.011-6.662,10.845c0.987,4.131,4.677,6.911,8.746,6.91
        c0.692,0,1.396-0.081,2.1-0.249l36.259-8.664c4.051-0.968,6.908-4.588,6.908-8.753V9.001C357.555,6.246,356.293,3.643,354.13,1.936z
         M288.608,232.573c0,58.904-47.92,106.825-106.821,106.825c-58.904,0-106.826-47.921-106.826-106.825
        c0-58.903,47.922-106.825,106.826-106.825C240.688,125.748,288.608,173.67,288.608,232.573z M172.787,262.525
        c-10.02-3.016-17.936-10.932-20.952-20.952H93.414c4.226,41.809,37.564,75.147,79.373,79.373V262.525z M181.787,245.845
        c7.316,0,13.27-5.954,13.27-13.271c0-7.317-5.953-13.271-13.27-13.271c-7.318,0-13.272,5.954-13.272,13.271
        C168.515,239.891,174.469,245.845,181.787,245.845z M270.156,241.573h-58.419c-3.016,10.019-10.933,17.935-20.95,20.952v58.421
        C232.594,316.72,265.931,283.382,270.156,241.573z M270.156,223.573c-4.524-44.768-42.43-79.825-88.369-79.825
        c-45.941,0-83.849,35.057-88.373,79.825h58.421c3.874-12.871,15.835-22.271,29.952-22.271c14.115,0,26.076,9.4,29.95,22.271H270.156
        z M307.832,179.302c4.439-2.235,6.227-7.646,3.99-12.086c-13.97-27.742-36.94-50.713-64.679-64.681
        c-4.439-2.237-9.852-0.45-12.086,3.99c-2.235,4.439-0.449,9.851,3.99,12.086c24.315,12.244,44.451,32.381,56.698,56.7
        c1.582,3.141,4.753,4.954,8.045,4.954C305.152,180.266,306.534,179.956,307.832,179.302z"/>
    </symbol>

    <symbol id="driving-school2"  viewBox="0 0 512 512" preserveAspectRatio="xMidYMid meet">
        <path d="M0 0 C0.68692429 -0.00832352 1.37384857 -0.01664703 2.08158875 -0.02522278 C4.34392031 -0.04923977 6.60596281 -0.05808621 8.8684082 -0.06469727 C10.45156434 -0.07367262 12.03471966 -0.08279462 13.61787415 -0.09205627 C16.93570002 -0.10852821 20.25342524 -0.11624262 23.57128906 -0.11914062 C27.80011458 -0.12451088 32.02797872 -0.16214129 36.25653362 -0.20788479 C39.52789156 -0.23779654 42.79902241 -0.24486728 46.07050514 -0.24586678 C47.62808428 -0.25004413 49.18566567 -0.26237747 50.74310875 -0.28338432 C60.58214655 -0.40549015 69.29378195 -0.02135037 76.87528992 7.08009338 C83.46992879 14.1868904 85.11711157 21.31544504 85.0793457 30.79467773 C85.07722328 31.84947578 85.07722328 31.84947578 85.07505798 32.92558289 C85.06949054 35.15673192 85.0569442 37.38777812 85.04418945 39.61889648 C85.03917024 41.13777524 85.03460807 42.65665557 85.03051758 44.17553711 C85.01953181 47.8858566 85.00228979 51.59611649 84.98168945 55.30639648 C85.61510254 55.49105469 86.24851562 55.67571289 86.90112305 55.8659668 C112.23962302 63.34445901 112.23962302 63.34445901 117.98168945 71.30639648 C120.739827 77.4766231 121.41462201 82.48134991 121.36936951 89.19425964 C121.37744781 90.64479853 121.37744781 90.64479853 121.38568932 92.12464124 C121.399943 95.34966419 121.39287156 98.5742752 121.38574219 101.79931641 C121.39144693 104.11748076 121.39841159 106.43564231 121.40653992 108.75379944 C121.42447041 115.03862552 121.42330363 121.32331199 121.41759753 127.60815597 C121.41450694 132.85462427 121.42059639 138.10106571 121.42663628 143.34753019 C121.44148064 156.42717677 121.43786809 169.5067449 121.42577297 182.58639119 C121.41583118 193.94425434 121.42879993 205.3019548 121.45270716 216.65979286 C121.47708599 228.32972756 121.48630964 239.99957967 121.48005444 251.66953927 C121.4766792 258.21842079 121.47913821 264.76716774 121.49630547 271.3160305 C121.51173331 277.46961663 121.50786515 283.62289084 121.48900032 289.77646446 C121.48530358 292.03678832 121.4884543 294.29713509 121.49888611 296.5574379 C121.51202246 299.6384832 121.50061355 302.71848449 121.4828949 305.79948425 C121.4924999 306.69772689 121.50210491 307.59596952 121.51200098 308.52143162 C121.46318923 312.63505976 121.31492855 314.76984038 119.09880161 318.3380785 C116.58078142 320.67912803 115.41993034 321.30639648 111.98168945 321.30639648 C106.34313524 319.02928805 106.34313524 319.02928805 104.98168945 316.30639648 C104.87329874 313.24522979 104.82676731 310.20620366 104.82347107 307.14437866 C104.81853309 306.18303501 104.81359511 305.22169135 104.8085075 304.23121607 C104.79307321 300.98983922 104.78475587 297.74848227 104.77636719 294.50708008 C104.76679332 292.19154178 104.75678354 289.87600525 104.74636841 287.56047058 C104.71926001 281.25708229 104.69828265 274.95368646 104.67836642 268.65027189 C104.65654338 262.06921219 104.62913673 255.48817587 104.60231018 248.90713501 C104.55785289 237.85566284 104.51719129 226.80418106 104.47900391 215.75268555 C104.43965658 204.36823592 104.3982322 192.98379699 104.35400391 181.59936523 C104.35127963 180.89794672 104.34855536 180.19652821 104.34574854 179.47385459 C104.33206918 175.95513898 104.31834889 172.43642353 104.30460823 168.91770816 C104.19061996 139.71396017 104.08388937 110.51018806 103.98168945 81.30639648 C102.10931574 80.34294205 100.23365955 79.38586546 98.35668945 78.43139648 C97.31254883 77.89772461 96.2684082 77.36405273 95.19262695 76.81420898 C92.16367321 75.39185358 89.17525611 74.29419638 85.98168945 73.30639648 C85.97758057 74.52222412 85.97347168 75.73805176 85.96923828 76.99072266 C85.94743275 81.51051978 85.89312832 86.02944812 85.82910156 90.54882812 C85.80593395 92.50317038 85.79152874 94.45763726 85.78613281 96.41210938 C85.77683414 99.22531692 85.73582471 102.03656761 85.6887207 104.84936523 C85.69265335 105.72038376 85.696586 106.59140228 85.70063782 107.48881531 C85.59524203 111.89109563 85.40267105 113.7600273 82.63574219 117.35107422 C79.98168945 119.30639648 79.98168945 119.30639648 76.80981445 120.04858398 C71.12466221 118.94636059 67.31368401 115.85449476 62.73168945 112.43139648 C61.83450195 111.78041992 60.93731445 111.12944336 60.01293945 110.45874023 C58.35214751 109.25292572 56.69628475 108.04027095 55.04711914 106.81860352 C51.91166791 104.167915 51.91166791 104.167915 48.10400391 103.47021484 C45.41863247 104.52823821 43.35907623 105.98616625 41.0246582 107.68530273 C40.07655273 108.35883789 39.12844727 109.03237305 38.15161133 109.72631836 C36.16919197 111.15049258 34.19256129 112.58276054 32.22192383 114.02319336 C24.07130203 119.77884572 24.07130203 119.77884572 20.0324707 120.02124023 C16.38468507 119.16650941 15.29322789 118.21292057 12.98168945 115.30639648 C12.50067139 112.66143799 12.50067139 112.66143799 12.52758789 109.61987305 C12.52804108 107.90855194 12.52804108 107.90855194 12.52850342 106.16265869 C12.54914856 104.93649841 12.5697937 103.71033813 12.59106445 102.44702148 C12.59672424 101.18750671 12.60238403 99.92799194 12.60821533 98.63031006 C12.62680898 95.28930624 12.66271617 91.94940181 12.70703125 88.60870361 C12.74802443 85.19683309 12.76623487 81.78484879 12.78637695 78.37280273 C12.83049281 71.68369728 12.89744295 64.99511034 12.98168945 58.30639648 C-24.16318812 58.99403265 -61.25999596 62.84924217 -95.11987305 79.45874023 C-97.01831055 80.30639648 -97.01831055 80.30639648 -99.01831055 80.30639648 C-99.01831055 132.77639648 -99.01831055 185.24639648 -99.01831055 239.30639648 C-94.39831055 239.63639648 -89.77831055 239.96639648 -85.01831055 240.30639648 C-81.54801288 240.90313402 -78.23354869 241.531492 -74.83081055 242.36889648 C-73.94643311 242.58441162 -73.06205566 242.79992676 -72.15087891 243.02197266 C-51.37716933 248.37308492 -33.3911648 258.66324158 -17.01831055 272.30639648 C-16.22295898 272.95866211 -15.42760742 273.61092773 -14.6081543 274.28295898 C11.69815204 296.48365682 26.43831887 330.31621703 29.4753418 364.00952148 C29.65226114 366.10780964 29.81821328 368.2070182 29.98168945 370.30639648 C30.53816162 370.37109131 31.09463379 370.43578613 31.66796875 370.50244141 C52.32402217 372.96275244 71.44854559 377.49896779 91.09765625 384.35961914 C92.19505127 384.74037598 93.29244629 385.12113281 94.4230957 385.51342773 C95.39964111 385.85865479 96.37618652 386.20388184 97.38232422 386.55957031 C100.17168051 387.49048956 100.17168051 387.49048956 103.98168945 387.30639648 C103.99570801 385.3839209 103.99570801 385.3839209 104.01000977 383.42260742 C104.04989007 378.66623207 104.11564361 373.91050487 104.18920898 369.15454102 C104.21742994 367.0963575 104.23863886 365.03806538 104.25268555 362.97973633 C104.27409935 360.02034863 104.32074166 357.06226829 104.37231445 354.10327148 C104.37354309 353.18334412 104.37477173 352.26341675 104.3760376 351.31561279 C104.52246595 344.92496516 104.52246595 344.92496516 106.89477539 341.72949219 C109.13913153 340.19903455 110.28770571 339.7386348 112.98168945 339.74389648 C113.97168945 339.71102539 113.97168945 339.71102539 114.98168945 339.67749023 C118.24173759 340.70262256 119.19074175 342.42762068 120.98168945 345.30639648 C121.55875499 348.52510019 121.51883887 351.69198534 121.4777832 354.95483398 C121.47923843 355.88558746 121.48069366 356.81634094 121.48219299 357.77529907 C121.48053621 359.74044937 121.46899967 361.70561293 121.44824219 363.6706543 C121.41935361 366.6643853 121.42762515 369.65633672 121.44067383 372.65014648 C121.43443375 374.56421752 121.42604071 376.478283 121.4152832 378.39233398 C121.41821884 379.28109222 121.42115448 380.16985046 121.42417908 381.08554077 C121.31082957 388.62978527 119.56499059 394.87002432 113.98168945 400.30639648 C108.50470323 403.61856602 103.41380113 405.21164261 96.98168945 404.30639648 C92.8782752 403.15724556 88.8790544 401.75917248 84.87008667 400.31738281 C68.01402378 394.28234961 50.98379872 390.01341224 33.2121582 387.66577148 C30.98168945 387.30639648 30.98168945 387.30639648 28.98168945 386.30639648 C29.01391602 387.60834961 29.04614258 388.91030273 29.0793457 390.25170898 C29.07278237 395.05419107 28.43422882 399.49705962 27.41918945 404.18139648 C27.24355469 404.99511719 27.06791992 405.80883789 26.88696289 406.6472168 C22.48675551 425.89719969 14.29840861 443.8388887 1.98168945 459.30639648 C1.5757959 459.81912109 1.16990234 460.3318457 0.75170898 460.86010742 C-9.32015811 473.48310984 -20.46852114 483.53178731 -34.01831055 492.30639648 C-34.82526367 492.8490918 -35.6322168 493.39178711 -36.46362305 493.95092773 C-46.62098982 500.4757447 -58.25994919 504.64753488 -69.76831055 508.11889648 C-70.40389893 508.31362549 -71.0394873 508.50835449 -71.69433594 508.70898438 C-83.21733866 512.01353535 -94.83757155 512.68640735 -106.76831055 512.61889648 C-107.47307526 512.616409 -108.17783997 512.61392151 -108.90396118 512.61135864 C-119.5339913 512.55339281 -129.72269776 512.20012657 -140.01831055 509.30639648 C-140.80608887 509.09128418 -141.59386719 508.87617188 -142.40551758 508.65454102 C-160.58781424 503.53457868 -187.36637979 494.22416886 -198.01831055 477.30639648 C-198.51831055 474.36889648 -198.51831055 474.36889648 -198.01831055 471.30639648 C-195.65267931 468.10583657 -194.25022698 466.50385259 -190.2644043 465.86499023 C-185.95793756 466.45058679 -183.47051287 468.57923618 -180.20581055 471.24389648 C-154.65937822 490.90895259 -122.81858437 498.95822561 -90.9128418 495.02905273 C-67.52517999 491.77809916 -45.65930818 481.9994768 -28.01831055 466.30639648 C-26.75954102 465.26225586 -26.75954102 465.26225586 -25.4753418 464.19702148 C-14.43984537 454.82112685 -6.55625987 443.12241849 -0.01831055 430.30639648 C0.29235352 429.69989258 0.60301758 429.09338867 0.9230957 428.46850586 C14.89213097 400.55965925 16.75741915 367.82176902 7.16162109 338.23071289 C1.04811212 320.58123988 -8.08213652 305.80895291 -21.01831055 292.30639648 C-22.04504883 291.18491211 -22.04504883 291.18491211 -23.0925293 290.04077148 C-42.51028917 269.51034885 -72.06603244 257.19462401 -100.09643555 255.98999023 C-133.98021835 255.10313806 -164.58323892 265.42320754 -189.62768555 288.59936523 C-209.53469505 307.56387355 -221.1865109 331.34292711 -226.01831055 358.30639648 C-226.15108398 359.04631836 -226.28385742 359.78624023 -226.4206543 360.54858398 C-230.33001195 388.0747461 -223.565321 418.57124545 -207.8034668 441.53295898 C-205.52692085 445.06982469 -205.48245422 447.17264771 -206.01831055 451.30639648 C-207.08081055 453.68139648 -207.08081055 453.68139648 -209.01831055 455.30639648 C-212.24223099 456.12703078 -214.7354813 456.68611394 -217.97143555 455.72827148 C-220.97668037 453.64065867 -222.53366023 450.78906717 -224.33081055 447.68139648 C-224.72107422 447.01479004 -225.11133789 446.34818359 -225.51342773 445.66137695 C-235.65976834 427.94048248 -243.6954314 406.95858259 -243.01831055 386.30639648 C-244.26354492 386.5912793 -245.5087793 386.87616211 -246.79174805 387.16967773 C-250.36947549 387.96604664 -253.95323523 388.68301737 -257.55737305 389.34936523 C-275.07352276 392.61764699 -291.92593626 397.15307901 -308.58276367 403.50341797 C-314.75998685 405.53999446 -320.11826225 404.51403234 -325.90112305 401.71264648 C-330.7049254 398.52192905 -333.86730901 393.93025739 -335.01831055 388.30639648 C-335.1089298 386.83721244 -335.15081857 385.36456352 -335.15532494 383.89259434 C-335.16039948 383.00989795 -335.16547402 382.12720157 -335.17070234 381.21775681 C-335.1712001 380.2522998 -335.17169785 379.2868428 -335.17221069 378.29212952 C-335.17659295 377.26318445 -335.1809752 376.23423939 -335.18549025 375.17411417 C-335.19887784 371.71568364 -335.20505695 368.2572786 -335.21118164 364.79882812 C-335.21908239 362.32362248 -335.22735132 359.84841799 -335.23596191 357.37321472 C-335.25991384 349.93987308 -335.27510587 342.50653565 -335.28802198 335.07316867 C-335.29173499 332.97393582 -335.2957081 330.87470364 -335.29977465 328.77547145 C-335.32500457 315.73924496 -335.34705726 302.7030174 -335.35950279 289.66677189 C-335.36243246 286.64894164 -335.36539413 283.63111142 -335.3684082 280.61328125 C-335.36915425 279.86321989 -335.3699003 279.11315852 -335.37066896 278.34036803 C-335.38333213 266.1803925 -335.4165705 254.02056288 -335.45821004 241.86065561 C-335.50060731 229.37725686 -335.52419496 216.89393289 -335.52942336 204.41046232 C-335.53283923 197.40092792 -335.54461549 190.39162185 -335.57752609 183.38215828 C-335.60841769 176.7920003 -335.61395597 170.20216878 -335.60214233 163.61192513 C-335.60192075 161.19033322 -335.61029575 158.76872335 -335.62779617 156.34719467 C-335.65035408 153.04685968 -335.64225402 149.74798763 -335.62631226 146.44764709 C-335.64019434 145.48442081 -335.65407643 144.52119453 -335.66837919 143.52877957 C-335.61408995 138.98254865 -335.49504121 136.94441485 -332.70296669 133.20772457 C-329.18421085 130.71567011 -327.24280317 130.61511587 -323.01831055 131.30639648 C-320.83590317 132.7135582 -320.83590317 132.7135582 -319.01831055 135.30639648 C-318.4124195 138.6507682 -318.4721676 141.96332866 -318.49932861 145.35430908 C-318.49182736 146.38678198 -318.48432611 147.41925487 -318.47659755 148.48301482 C-318.456248 151.95331565 -318.46443757 155.42296765 -318.47241211 158.89331055 C-318.46368109 161.37663421 -318.45319697 163.85995224 -318.44108582 166.34326172 C-318.41894011 171.69512414 -318.40902591 177.04679649 -318.4101944 182.39868927 C-318.41186274 190.13659228 -318.39153813 197.87431444 -318.36583909 205.61216924 C-318.32474222 218.16616065 -318.30144117 230.72011957 -318.28930664 243.27416992 C-318.27748078 255.46951421 -318.25728915 267.66479729 -318.22583008 279.86010742 C-318.22389398 280.61177941 -318.22195787 281.36345141 -318.2199631 282.13790134 C-318.21019862 285.90880512 -318.2002695 289.67970845 -318.1902585 293.45061159 C-318.10741551 324.73584691 -318.05373906 356.02106983 -318.01831055 387.30639648 C-313.76167455 386.72926381 -309.87143355 386.07955442 -305.82299805 384.63452148 C-304.39479736 384.13601685 -304.39479736 384.13601685 -302.93774414 383.62744141 C-301.43074951 383.09727417 -301.43074951 383.09727417 -299.89331055 382.55639648 C-281.49940036 376.2854268 -263.30725974 372.54890788 -244.01831055 370.30639648 C-243.88875977 368.47141602 -243.88875977 368.47141602 -243.7565918 366.59936523 C-241.30277576 335.74123784 -230.29208007 308.74287405 -210.01831055 285.30639648 C-209.16237729 284.22445838 -208.30788737 283.14137431 -207.45581055 282.05639648 C-204.24397771 278.4327902 -200.74741807 275.38747585 -197.01831055 272.30639648 C-196.53217285 271.89728027 -196.04603516 271.48816406 -195.54516602 271.06665039 C-173.24361181 252.38747551 -144.51256784 239.30639648 -115.01831055 239.30639648 C-115.01831055 186.83639648 -115.01831055 134.36639648 -115.01831055 80.30639648 C-117.98831055 79.31639648 -117.98831055 79.31639648 -121.01831055 78.30639648 C-122.55028555 77.72868793 -124.0778993 77.13924669 -125.6003418 76.53686523 C-186.49091466 52.70123794 -250.00575257 53.33610859 -310.87207031 77.32666016 C-314.60836092 79.03060907 -314.60836092 79.03060907 -318.01831055 81.30639648 C-318.75008952 84.03059578 -318.75008952 84.03059578 -318.61987305 87.14624023 C-318.6353418 88.29157227 -318.65081055 89.4369043 -318.66674805 90.61694336 C-318.65901367 91.81383789 -318.6512793 93.01073242 -318.64331055 94.24389648 C-318.64331055 96.6072136 -318.65580567 98.97057245 -318.68237305 101.33374023 C-318.6767334 102.38295654 -318.67109375 103.43217285 -318.6652832 104.51318359 C-319.06900132 107.70747055 -319.75240086 109.04670643 -322.01831055 111.30639648 C-325.95987387 112.40127519 -328.11174734 112.7005544 -331.89331055 111.05639648 C-334.01831055 109.30639648 -334.01831055 109.30639648 -335.01831055 106.30639648 C-335.30809467 101.74859178 -335.2961674 97.18486314 -335.33081055 92.61889648 C-335.35981445 91.36399414 -335.38881836 90.1090918 -335.41870117 88.81616211 C-335.47452523 80.66155563 -335.03613781 74.87394659 -329.56225586 68.65112305 C-324.93428523 64.23238844 -319.50498796 62.07184424 -313.58081055 59.86889648 C-312.57945068 59.48838135 -311.57809082 59.10786621 -310.54638672 58.71582031 C-250.65136555 36.43287765 -179.12424255 33.31855193 -119.94750977 60.2487793 C-119.29927246 60.55912109 -118.65103516 60.86946289 -117.9831543 61.18920898 C-117.36069824 61.4824707 -116.73824219 61.77573242 -116.09692383 62.07788086 C-114.46804668 62.86507391 -112.86103842 63.69709734 -111.2565918 64.53295898 C-106.52459941 65.66315741 -103.40961668 64.1256583 -99.01831055 62.30639648 C-97.44050575 61.69489256 -95.86237541 61.08422801 -94.28393555 60.47436523 C-93.47375977 60.15371094 -92.66358398 59.83305664 -91.82885742 59.50268555 C-70.92377684 51.26662596 -49.40307432 45.57633739 -27.01831055 43.30639648 C-27.034021 42.71213867 -27.04973145 42.11788086 -27.06591797 41.50561523 C-27.12887624 38.77264194 -27.1674915 36.03982193 -27.20581055 33.30639648 C-27.24351562 31.90454102 -27.24351562 31.90454102 -27.28198242 30.47436523 C-27.37209353 21.88377315 -25.52015049 15.14652181 -20.01831055 8.30639648 C-13.70403352 2.76150615 -8.5332595 0.07334921 0 0 Z M25.98168945 15.30639648 C26.12126068 15.83929291 26.26083191 16.37218933 26.40463257 16.92123413 C28.30918341 25.10054237 28.3316761 33.2464302 28.39575195 41.59545898 C28.41449736 43.15059396 28.43407318 44.70571912 28.45443726 46.26083374 C28.50540875 50.32129082 28.54521982 54.38178074 28.58258057 58.44238281 C28.62284165 62.59895723 28.67383226 66.75539914 28.72387695 70.91186523 C28.82022107 79.04328458 28.90475637 87.17477041 28.98168945 95.30639648 C30.08778564 94.68152344 31.19388184 94.05665039 32.33349609 93.4128418 C32.9556752 93.06135071 33.57785431 92.70985962 34.21888733 92.34771729 C37.13789019 90.62340668 39.79024162 88.53855004 42.4777832 86.47827148 C46.02105864 84.81995225 49.19217471 84.56260603 52.98168945 85.30639648 C55.71249685 86.65324803 57.9921847 88.40036869 60.35668945 90.30639648 C64.26580066 93.83858915 64.26580066 93.83858915 68.98168945 95.30639648 C69.0745528 86.30049461 69.14553685 77.2947587 69.18893814 68.28848171 C69.20977337 64.10604829 69.23801589 59.92394352 69.28344727 55.74169922 C69.32705125 51.70219271 69.35085711 47.66300144 69.36119843 43.62327766 C69.36856382 42.08554182 69.38294679 40.54782237 69.40460968 39.01022148 C69.81021289 27.9119465 69.81021289 27.9119465 64.98168945 18.30639648 C57.69721734 13.98999654 49.18535086 14.97090668 40.98168945 15.11889648 C39.52467202 15.13396908 38.06763952 15.14765293 36.6105957 15.15991211 C33.06731021 15.19271745 29.52459774 15.24435741 25.98168945 15.30639648 Z M-9.01831055 20.30639648 C-10.74639693 23.20039336 -11.26157274 25.27804324 -11.21362305 28.63452148 C-11.20862793 29.35542969 -11.20363281 30.07633789 -11.19848633 30.8190918 C-11.18027832 31.72240234 -11.16207031 32.62571289 -11.14331055 33.55639648 C-11.10206055 36.44389648 -11.06081055 39.33139648 -11.01831055 42.30639648 C-3.09831055 42.30639648 4.82168945 42.30639648 12.98168945 42.30639648 C13.78469313 29.10848634 13.78469313 29.10848634 7.85668945 17.86889648 C1.77176917 14.56187459 -4.25102171 15.10571775 -9.01831055 20.30639648 Z " fill="currentColor" transform="translate(363.018310546875,-0.306396484375)"/>
        <path d="M0 0 C3.9313884 3.33903274 7.60944089 6.90764133 11.22460938 10.58349609 C12.05863281 11.41880859 12.89265625 12.25412109 13.75195312 13.11474609 C29.12494695 29.3023772 39.67218679 53.05254657 40.22460938 75.58349609 C40.26328125 76.41236328 40.30195313 77.24123047 40.34179688 78.09521484 C41.0055548 103.35489157 32.27064593 127.25092193 16.22460938 146.58349609 C15.52722656 147.44458984 14.82984375 148.30568359 14.11132812 149.19287109 C-1.24676003 167.27442278 -25.00496839 180.42076529 -48.77539062 182.58349609 C-63.80751497 183.51683849 -78.35767211 183.18489562 -92.77539062 178.58349609 C-93.75789795 178.27001221 -93.75789795 178.27001221 -94.76025391 177.95019531 C-119.66011626 169.65438392 -140.51085025 150.74495566 -152.73046875 127.71826172 C-157.45947433 118.05694751 -161.46981056 107.29693251 -162.77539062 96.58349609 C-162.88367188 95.78169922 -162.99195313 94.97990234 -163.10351562 94.15380859 C-166.19277372 68.0577073 -159.44398377 42.83152145 -144.51367188 21.32568359 C-142.36996497 18.62392013 -140.13939721 16.09401565 -137.77539062 13.58349609 C-136.93363281 12.66310547 -136.091875 11.74271484 -135.22460938 10.79443359 C-100.47438999 -25.71592714 -40.07657219 -31.97528491 0 0 Z M-53.77539062 -4.41650391 C-53.77539062 12.41349609 -53.77539062 29.24349609 -53.77539062 46.58349609 C-49.73289062 46.99599609 -45.69039062 47.40849609 -41.52539062 47.83349609 C-28.07110502 49.29121261 -14.79436166 51.18394316 -1.79101562 55.02099609 C-0.97963135 55.25963379 -0.16824707 55.49827148 0.66772461 55.74414062 C2.19421622 56.2043688 3.71529152 56.68317179 5.22875977 57.18457031 C10.42875779 58.78898752 13.29391716 58.45264739 18.22460938 56.58349609 C19.75902929 52.15184911 18.36533185 49.51237059 16.58007812 45.35693359 C6.521233 24.77543492 -10.87253332 8.13131469 -32.51245117 0.35229492 C-39.65476831 -2.08327863 -46.15434281 -3.14632927 -53.77539062 -4.41650391 Z M-123.17773438 20.79052734 C-131.70080464 29.95442996 -141.75214382 42.8018869 -142.77539062 55.58349609 C-140.14145609 58.21743063 -138.44931802 58.25089317 -134.77539062 58.58349609 C-131.97103903 58.15113156 -131.97103903 58.15113156 -129.16992188 57.25537109 C-127.5855835 56.79940552 -127.5855835 56.79940552 -125.96923828 56.33422852 C-124.85339355 56.00398682 -123.73754883 55.67374512 -122.58789062 55.33349609 C-104.90807075 50.34791954 -88.26818586 48.43277562 -69.77539062 46.58349609 C-69.77539062 29.75349609 -69.77539062 12.92349609 -69.77539062 -4.41650391 C-89.35099918 -4.41650391 -109.48204336 7.7806294 -123.17773438 20.79052734 Z M-93.77539062 66.58349609 C-97.90054908 71.44528999 -97.94748707 78.00327533 -97.65234375 84.14331055 C-97.38981998 86.68046458 -97.03997644 89.18787586 -96.65039062 91.70849609 C-96.5446875 92.55025391 -96.43898438 93.39201172 -96.33007812 94.25927734 C-95.25398431 101.48928264 -92.59575838 106.90414673 -87.27539062 111.95849609 C-82.15398517 115.28740964 -77.72307863 115.90121356 -71.69335938 115.91943359 C-70.53384514 115.92941879 -70.53384514 115.92941879 -69.35090637 115.93960571 C-67.71955737 115.9497016 -66.08816732 115.95442368 -64.45678711 115.95410156 C-61.98090283 115.95846435 -59.50681812 115.99478454 -57.03125 116.03271484 C-55.43945916 116.03858606 -53.84765993 116.04255341 -52.25585938 116.04443359 C-51.52537888 116.05880463 -50.79489838 116.07317566 -50.0422821 116.08798218 C-43.12543763 116.02752639 -38.00245607 113.66209051 -32.96289062 108.95849609 C-26.26895004 99.92841517 -24.70884266 84.50746307 -26.23632812 73.70849609 C-27.31260501 69.46578142 -29.17933795 66.56929333 -32.90039062 64.27099609 C-41.62800454 62.18395798 -50.6767441 62.42622747 -59.59741211 62.453125 C-61.70563984 62.45847768 -63.81365377 62.45315326 -65.921875 62.44677734 C-80.6780414 61.52275236 -80.6780414 61.52275236 -93.77539062 66.58349609 Z M-10.77539062 68.58349609 C-10.7521875 69.46908203 -10.72898437 70.35466797 -10.70507812 71.26708984 C-10.56049507 81.19168372 -11.42819064 90.75615333 -12.77539062 100.58349609 C-4.85993912 100.09921742 2.98830562 99.16930449 10.84960938 98.14599609 C11.83396973 98.02377686 12.81833008 97.90155762 13.83251953 97.77563477 C14.7585498 97.65164307 15.68458008 97.52765137 16.63867188 97.39990234 C17.89091553 97.23663452 17.89091553 97.23663452 19.16845703 97.07006836 C21.43433203 96.72395242 21.43433203 96.72395242 23.22460938 94.58349609 C24.77375086 87.67081758 25.16124319 79.4231949 23.22460938 72.58349609 C22.02191406 72.77878906 22.02191406 72.77878906 20.79492188 72.97802734 C11.23391471 74.13792277 3.95445195 72.5710918 -5.13476562 69.71240234 C-8.45849577 68.48477157 -8.45849577 68.48477157 -10.77539062 68.58349609 Z M-120.71289062 70.52099609 C-129.60662887 73.28924575 -137.5951029 74.14241288 -146.77539062 72.58349609 C-148.80974838 79.62301975 -148.04931184 87.44953729 -146.77539062 94.58349609 C-144.08192226 97.27696446 -142.16881668 97.15050531 -138.41210938 97.65380859 C-137.13271484 97.82783203 -135.85332031 98.00185547 -134.53515625 98.18115234 C-133.86653564 98.26768066 -133.19791504 98.35420898 -132.5090332 98.44335938 C-130.47996074 98.70628417 -128.4528864 98.98163224 -126.42578125 99.25927734 C-118.62853955 100.33563737 -118.62853955 100.33563737 -110.77539062 100.58349609 C-110.91976562 99.53033203 -111.06414062 98.47716797 -111.21289062 97.39208984 C-112.47880892 87.71492296 -113.03113874 78.34454908 -112.77539062 68.58349609 C-115.64385699 68.58349609 -117.99436254 69.61266507 -120.71289062 70.52099609 Z M-140.77539062 112.58349609 C-138.9181854 122.97970129 -131.57740257 131.78640024 -124.77539062 139.58349609 C-124.24558594 140.19708984 -123.71578125 140.81068359 -123.16992188 141.44287109 C-115.77715042 149.40150901 -106.33358374 155.1040092 -96.58789062 159.70849609 C-95.94013672 160.0159375 -95.29238281 160.32337891 -94.625 160.64013672 C-93.03774689 161.35668748 -91.4086826 161.97919919 -89.77539062 162.58349609 C-89.11539063 162.25349609 -88.45539063 161.92349609 -87.77539062 161.58349609 C-88.70531429 156.97279949 -89.64763931 152.364875 -90.60131836 147.7590332 C-90.92371386 146.19332016 -91.24276775 144.62691505 -91.55834961 143.05981445 C-92.01374959 140.80146084 -92.48129012 138.54590652 -92.95117188 136.29052734 C-93.08880447 135.59449905 -93.22643707 134.89847076 -93.36824036 134.18135071 C-94.82836403 127.2907041 -98.00057436 121.72426535 -103.77539062 117.58349609 C-106.63280477 116.54759786 -109.44066129 116.20743828 -112.45507812 115.90380859 C-113.2678421 115.80131805 -114.08060608 115.69882751 -114.91799927 115.5932312 C-117.49321519 115.27408223 -120.07090516 114.99082304 -122.65039062 114.70849609 C-124.40588497 114.49731855 -126.16109942 114.28380038 -127.91601562 114.06787109 C-132.19971119 113.5459479 -136.48599073 113.0561485 -140.77539062 112.58349609 Z M0.55957031 114.28027344 C-1.06813353 114.48090942 -2.69744531 114.66894061 -4.328125 114.84375 C-16.73572198 115.94058145 -16.73572198 115.94058145 -26.40869141 123.10839844 C-29.08324594 127.95202722 -30.14051946 132.99659288 -31.15039062 138.39599609 C-31.38371094 139.5078125 -31.61703125 140.61962891 -31.85742188 141.76513672 C-33.28972178 148.67982752 -34.53993467 155.63121674 -35.77539062 162.58349609 C-11.75524026 155.66243582 4.61205222 138.6656902 16.44335938 117.39208984 C17.42288435 115.45284244 17.42288435 115.45284244 17.22460938 112.58349609 C11.67731881 112.58349609 6.05803545 113.58112939 0.55957031 114.28027344 Z M-77.77539062 131.58349609 C-77.16459046 137.08069754 -76.61072386 141.87644688 -75.36523438 147.14990234 C-75.09775391 148.29394531 -74.83027344 149.43798828 -74.5546875 150.61669922 C-74.27689453 151.78136719 -73.99910156 152.94603516 -73.71289062 154.14599609 C-73.43123047 155.34546875 -73.14957031 156.54494141 -72.859375 157.78076172 C-72.16939266 160.71611032 -71.47303884 163.64996 -70.77539062 166.58349609 C-64.83539063 166.58349609 -58.89539063 166.58349609 -52.77539062 166.58349609 C-51.77445854 162.24271918 -50.77620393 157.90150199 -49.78466797 153.55859375 C-49.44670707 152.08199947 -49.10720287 150.60575752 -48.76611328 149.12988281 C-48.27553681 147.00595846 -47.7905613 144.88082047 -47.30664062 142.75537109 C-47.01337891 141.47758789 -46.72011719 140.19980469 -46.41796875 138.88330078 C-45.64796277 135.48941911 -45.64796277 135.48941911 -45.77539062 131.58349609 C-56.33539063 131.58349609 -66.89539063 131.58349609 -77.77539062 131.58349609 Z " fill="currentColor" transform="translate(317.775390625,294.41650390625)"/>
        <path d="M0 0 C1.56113525 0.27336182 1.56113525 0.27336182 3.15380859 0.55224609 C6.36003234 1.1263448 9.55528704 1.740158 12.75 2.375 C13.72203369 2.55957764 14.69406738 2.74415527 15.69555664 2.93432617 C19.95158493 3.85398197 22.39602183 4.4276674 25.609375 7.47265625 C27.35543024 10.6459645 27.60749345 12.43097596 27 16 C25.08842064 18.72032448 23.73165205 19.77559554 20.5546875 20.75 C15.38333876 21.11369925 10.76914905 19.86565903 5.75 18.6875 C-10.65718142 14.84821955 -26.87699916 13.61149718 -43.6875 13.6875 C-44.51150299 13.68899048 -45.33550598 13.69048096 -46.18447876 13.6920166 C-64.15535612 13.75016425 -81.40476616 15.55709996 -98.89135742 19.81738281 C-103.26365339 20.84407977 -106.63657136 21.14688306 -111 20 C-113.83336378 18.24136041 -114.02887833 16.896038 -114.9375 13.625 C-115 10 -115 10 -113.64453125 7.4375 C-109.77585157 3.87168594 -105.82892253 3.33942698 -100.75 2.375 C-99.72060303 2.17044189 -98.69120605 1.96588379 -97.63061523 1.75512695 C-94.42536472 1.13814241 -91.21513701 0.56298498 -88 0 C-86.62255615 -0.25209229 -86.62255615 -0.25209229 -85.21728516 -0.50927734 C-57.76573198 -5.3601744 -27.38930417 -5.01264156 0 0 Z " fill="currentColor" transform="translate(190,208)"/>
        <path d="M0 0 C1.00546875 0.18224121 2.0109375 0.36448242 3.046875 0.55224609 C6.12287599 1.12469217 9.18673619 1.73811605 12.25 2.375 C13.17458008 2.55957764 14.09916016 2.74415527 15.05175781 2.93432617 C19.16086173 3.86937594 21.47989398 4.51487869 24.61328125 7.4375 C26.55376847 11.02330173 26.07381126 13.13427948 25 17 C23.44345828 19.45769745 22.37767046 19.88762001 19.59765625 20.71484375 C14.36509375 21.1295854 9.70774863 19.87005627 4.625 18.6875 C-11.76408281 14.91779616 -27.55125712 13.59255521 -44.3125 13.625 C-45.22809692 13.62454681 -46.14369385 13.62409363 -47.08703613 13.62362671 C-66.60171344 13.65186884 -85.44735768 15.7585652 -104.3984375 20.58203125 C-107.27541657 21.04424861 -109.21677429 20.82501069 -112 20 C-114.97055702 17.83229623 -115.87862885 16.71305549 -116.5 13.0625 C-115.85357348 9.10313756 -114.9064067 7.78750825 -112 5 C-108.83625238 3.7037423 -105.59581179 3.04293785 -102.25 2.375 C-100.77418457 2.06816284 -100.77418457 2.06816284 -99.26855469 1.75512695 C-96.18443998 1.13610456 -93.09515498 0.56099684 -90 0 C-89.10796875 -0.16806152 -88.2159375 -0.33612305 -87.296875 -0.50927734 C-59.40321984 -5.54621171 -27.82748455 -5.24278656 0 0 Z " fill="currentColor" transform="translate(411,160)"/>
        <path d="M0 0 C1.56113525 0.27336182 1.56113525 0.27336182 3.15380859 0.55224609 C6.36003234 1.1263448 9.55528704 1.740158 12.75 2.375 C13.72203369 2.55957764 14.69406738 2.74415527 15.69555664 2.93432617 C19.93292365 3.84994958 22.40655674 4.45301537 25.64453125 7.4375 C27.54202893 11.02470022 27.06938204 13.15022465 26 17 C24.45155133 19.44491895 23.38649349 19.88367055 20.625 20.71484375 C15.25889989 21.13696154 10.41210717 19.85379162 5.1875 18.6875 C-11.2981973 15.04132498 -27.28188527 13.6139556 -44.125 13.6875 C-44.97484467 13.68899048 -45.82468933 13.69048096 -46.70028687 13.6920166 C-64.61371202 13.74829728 -81.86304772 15.30279617 -99.24731445 19.81738281 C-103.50852295 20.8853651 -106.74043609 21.14801207 -111 20 C-114.02706748 17.84918889 -114.87395791 16.74049726 -115.5 13.0625 C-114.85031776 9.08319629 -113.94166299 7.78753394 -111 5 C-107.6681299 3.69587068 -104.25812771 3.04115173 -100.75 2.375 C-99.72060303 2.17044189 -98.69120605 1.96588379 -97.63061523 1.75512695 C-94.42536472 1.13814241 -91.21513701 0.56298498 -88 0 C-86.62255615 -0.25209229 -86.62255615 -0.25209229 -85.21728516 -0.50927734 C-57.76573198 -5.3601744 -27.38930417 -5.01264156 0 0 Z " fill="currentColor" transform="translate(410,208)"/>
        <path d="M0 0 C1.00546875 0.18224121 2.0109375 0.36448242 3.046875 0.55224609 C6.12287599 1.12469217 9.18673619 1.73811605 12.25 2.375 C13.17458008 2.55957764 14.09916016 2.74415527 15.05175781 2.93432617 C19.18032728 3.87380544 21.46817153 4.48992815 24.578125 7.47265625 C26.36318504 10.64555143 26.61036899 12.4140822 26 16 C24.09210727 18.61451966 22.81107904 19.76682872 19.69262695 20.66333008 C16.70435058 21.03696623 14.54147772 20.71926077 11.60546875 20.07421875 C10.56583984 19.85443359 9.52621094 19.63464844 8.45507812 19.40820312 C7.37677734 19.17037109 6.29847656 18.93253906 5.1875 18.6875 C-11.4209916 15.05988298 -27.35924883 13.5921802 -44.3125 13.625 C-45.22776459 13.62454681 -46.14302917 13.62409363 -47.08602905 13.62362671 C-66.21988541 13.65132947 -84.42889504 15.65671662 -102.98120117 20.51831055 C-106.90536893 21.14446364 -110.37906794 21.00609576 -113.8125 18.875 C-115.69777177 15.8982551 -115.93971156 13.49672962 -116 10 C-114.44887516 7.13369607 -113.0557746 5.43094414 -109.99389648 4.18115234 C-107.42646927 3.46358321 -104.86434092 2.89691138 -102.25 2.375 C-100.77418457 2.06816284 -100.77418457 2.06816284 -99.26855469 1.75512695 C-96.18443998 1.13610456 -93.09515498 0.56099684 -90 0 C-89.10796875 -0.16806152 -88.2159375 -0.33612305 -87.296875 -0.50927734 C-59.40321984 -5.54621171 -27.82748455 -5.24278656 0 0 Z " fill="currentColor" transform="translate(191,160)"/>
        <path d="M0 0 C0.88445801 0.16048828 1.76891602 0.32097656 2.68017578 0.48632812 C5.3329416 0.97028826 7.97969797 1.47685908 10.625 2 C11.79107788 2.23058105 11.79107788 2.23058105 12.98071289 2.46582031 C18.75715601 3.71373355 22.67054974 5.00582461 26 10 C25.8180082 13.39718024 25.66248361 16.00627459 23.75 18.875 C20.78484587 20.78117051 17.9540968 21.11892661 14.4831543 20.6862793 C13.60570557 20.48429932 12.72825684 20.28231934 11.82421875 20.07421875 C10.34779907 19.74599121 10.34779907 19.74599121 8.84155273 19.41113281 C7.80071533 19.17233398 6.75987793 18.93353516 5.6875 18.6875 C-30.86498079 10.73739677 -69.12242738 11.02483209 -105.3984375 20.6796875 C-108.55171514 21.06792889 -110.20503081 20.45049263 -113 19 C-114.875 17.3125 -114.875 17.3125 -116 15 C-115.78960137 9.0036391 -115.78960137 9.0036391 -113.71386719 6.36523438 C-111.70351047 4.76382202 -110.20219696 4.29341992 -107.703125 3.71875 C-106.84058105 3.51789795 -105.97803711 3.3170459 -105.08935547 3.11010742 C-104.15236816 2.90877197 -103.21538086 2.70743652 -102.25 2.5 C-101.25758301 2.28641846 -100.26516602 2.07283691 -99.24267578 1.8527832 C-96.16613514 1.21072466 -93.08505917 0.59967779 -90 0 C-89.14954102 -0.17096191 -88.29908203 -0.34192383 -87.42285156 -0.51806641 C-59.73839702 -5.83944958 -27.62795518 -5.35990115 0 0 Z " fill="currentColor" transform="translate(191,112)"/>
    </symbol>
</svg>