<svg width="91" height="182" viewBox="0 0 91 182" fill="none" xmlns="http://www.w3.org/2000/svg">
<path d="M83.0525 40.375C83.0525 21.729 82.0075 14.057 77.2835 9.21401C72.5595 4.37101 53.7314 0.972015 45.7634 0.972015C37.7954 0.972015 18.9675 4.37101 14.2435 9.21401C9.51946 14.057 8.47445 20.786 8.47445 40.375C8.47445 67.206 5.29745 167.659 13.4354 174.403C21.5734 181.146 37.5764 181.416 45.7634 181.416C53.9504 181.416 69.9545 181.146 78.0915 174.403C86.2295 167.659 83.0525 67.206 83.0525 40.375Z" fill="#F5B339"/>
<path d="M79.8475 44.603C79.8475 26.553 78.8925 19.881 74.5745 15.454C70.2565 11.027 53.0475 9.21399 45.7635 9.21399C38.4795 9.21399 21.2705 11.027 16.9525 15.454C12.6345 19.881 11.6795 24.558 11.6795 44.603C11.6795 48.775 12.1515 55.056 13.3835 61.249C15.6875 66.504 16.9255 75.193 17.7855 83.655C16.8015 85.034 16.2225 87.756 16.2225 90.636C14.9205 94.57 15.8925 102.883 16.2225 108.012C16.2405 108.293 16.2045 109.185 16.2225 109.465C16.2225 109.465 15.4445 127.179 16.2225 134.999C16.4105 136.891 16.8415 139.51 17.1705 140.097C17.4415 142.499 14.1995 152.523 14.5365 154.369C15.2135 158.073 15.1725 166.528 16.2135 167.392C23.6515 173.556 38.2795 173.802 45.7635 173.802C53.2475 173.802 67.8755 173.555 75.3135 167.392C76.3555 166.529 76.3135 158.073 76.9905 154.369C77.3275 152.524 74.0865 142.499 74.3565 140.097C74.8635 138.71 75.1155 136.891 75.3045 134.999C76.0825 127.18 75.3045 109.465 75.3045 109.465C75.3225 109.185 75.2865 108.293 75.3045 108.012C75.6345 102.882 76.6065 94.57 75.3045 90.636C75.3045 87.756 74.7255 85.034 73.7415 83.655C74.6015 75.193 75.8395 66.504 78.1435 61.249C79.3755 55.055 79.8475 48.775 79.8475 44.603Z" fill="#FFDD3E"/>
<path d="M16.2225 108.012V89.772L11.2615 63.034C10.2705 72.627 10.1975 91.247 10.3875 108.012H16.2225Z" fill="#282F3A"/>
<path d="M10.4045 109.465C10.6205 127 11.1095 142.127 11.1095 142.127L16.2225 134.999V109.465H10.4045Z" fill="#282F3A"/>
<path d="M45.7635 51.376C45.7635 51.376 27.1415 51.138 13.3835 61.249L17.7855 83.655C17.7855 83.655 25.3565 77.188 45.7635 77.188C66.1705 77.188 73.7415 83.655 73.7415 83.655L78.1435 61.249C64.3855 51.138 45.7635 51.376 45.7635 51.376Z" fill="#282F3A"/>
<path d="M75.3045 108.012V89.772L80.2655 63.034C81.2555 72.627 81.3295 91.247 81.1395 108.012H75.3045Z" fill="#3A454F"/>
<path d="M81.1225 109.465C80.9065 127 80.4175 142.127 80.4175 142.127L75.3045 134.999V109.465H81.1225Z" fill="#3A454F"/>
<path d="M74.3565 140.097C67.4175 141.999 24.1084 141.999 17.1694 140.097C17.1694 140.097 13.9004 148.733 14.5354 154.369C19.2334 157.232 29.1825 160.87 45.7625 160.87C62.3425 160.87 72.2925 157.232 76.9895 154.369C77.6255 148.733 74.3565 140.097 74.3565 140.097Z" fill="#282F3A"/>
<path d="M9.53347 68.063L1.80447 69.971C1.10547 70.144 0.445449 69.538 0.560449 68.811C0.785449 67.395 1.60045 65.362 4.34945 64.578C8.75345 63.319 9.53347 68.063 9.53347 68.063Z" fill="#FFDD3E"/>
<path d="M81.9935 68.063L89.7225 69.971C90.4215 70.144 91.0815 69.538 90.9665 68.811C90.7415 67.395 89.9265 65.362 87.1775 64.578C82.7735 63.319 81.9935 68.063 81.9935 68.063Z" fill="#FFDD3E"/>
<path d="M73.7415 83.655L78.1435 61.249C64.3855 51.138 45.7635 51.376 45.7635 51.376V77.188C66.1705 77.187 73.7415 83.655 73.7415 83.655Z" fill="#3A454F"/>
<path d="M74.3565 140.097C74.1225 140.161 73.8685 140.218 73.6025 140.27C73.5315 140.284 73.4405 140.297 73.3655 140.31C73.2085 140.338 73.0565 140.367 72.8895 140.391C68.1275 141.146 56.9535 141.524 45.7625 141.524V160.87C62.3425 160.87 72.2925 157.232 76.9895 154.369C77.6255 148.733 74.3565 140.097 74.3565 140.097Z" fill="#3A454F"/>
<path d="M53.5195 179.239C48.3515 179.653 43.1735 179.653 38.0065 179.239C37.2855 179.182 36.5925 180.024 36.4385 181.157C39.9815 181.389 43.2435 181.416 45.7635 181.416C48.2835 181.416 51.5455 181.389 55.0885 181.157C54.9335 180.023 54.2415 179.181 53.5195 179.239Z" fill="#282F3A"/>
<path d="M26.8855 179.182C26.8875 179.172 26.8895 179.163 26.8915 179.153C27.0595 178.372 26.5815 177.608 25.8225 177.423C23.5625 176.874 21.3195 176.23 19.0985 175.491C18.3565 175.244 17.5605 175.643 17.3075 176.399C17.3045 176.408 17.3015 176.418 17.2985 176.427C17.2525 176.564 17.2515 176.702 17.2465 176.84C20.0065 178.236 23.1915 179.206 26.4885 179.88C26.6725 179.689 26.8255 179.463 26.8855 179.182Z" fill="#DD3E3E"/>
<path d="M74.2185 176.4C73.9655 175.643 73.1694 175.245 72.4274 175.492C70.2064 176.231 67.9624 176.875 65.7034 177.424C64.9444 177.609 64.4664 178.373 64.6344 179.154C64.6364 179.164 64.6385 179.173 64.6405 179.183C64.7005 179.464 64.8534 179.69 65.0384 179.882C68.3344 179.209 71.5194 178.238 74.2804 176.842C74.2744 176.704 74.2734 176.565 74.2284 176.429C74.2254 176.418 74.2215 176.409 74.2185 176.4Z" fill="#DD3E3E"/>
<path d="M63.6145 5.18501C64.5785 5.39501 65.5575 4.78101 65.7875 3.82201C65.7895 3.81401 65.7915 3.806 65.7935 3.798C65.8845 3.42 65.6625 3.03601 65.2865 2.93701C58.3255 1.10001 50.2915 0.00100708 45.7625 0.00100708C41.2345 0.00100708 33.1995 1.1 26.2395 2.936C25.8645 3.035 25.6415 3.42 25.7325 3.797C25.7345 3.806 25.7365 3.81501 25.7385 3.82401C25.9685 4.78201 26.9475 5.39401 27.9105 5.18501C33.7665 3.91101 39.8035 2.62001 45.7625 2.61401C51.7745 2.60801 57.7075 3.89901 63.6145 5.18501Z" fill="#282F3A"/>
<path d="M58.9245 39.198C58.7735 39.949 58.0705 40.502 57.2705 40.502H34.2555C33.4565 40.502 32.7525 39.949 32.6015 39.198L29.6015 24.29L32.0905 40.995C32.2135 41.82 32.9215 42.431 33.7565 42.431H57.7695C58.6035 42.431 59.3125 41.82 59.4355 40.995L61.9245 24.29L58.9245 39.198Z" fill="#F5B339"/>
<path d="M59.0015 100.663L32.3745 95.883L26.4445 104.835C25.9225 105.624 26.4875 106.677 27.4335 106.677H51.9515C52.3665 106.677 52.7665 106.52 53.0715 106.238C54.5525 104.869 58.9915 100.755 59.0015 100.663Z" fill="#F5B339"/>
<path d="M58.2785 101.021H33.2485C32.7405 101.021 32.3285 100.609 32.3285 100.101V96.151C32.3285 95.643 32.7405 95.231 33.2485 95.231H58.2785C58.7865 95.231 59.1985 95.643 59.1985 96.151V100.101C59.1985 100.609 58.7865 101.021 58.2785 101.021Z" fill="white"/>
<path d="M54.8225 99.392H36.7045C36.3525 99.392 36.0665 99.106 36.0665 98.754V97.497C36.0665 97.145 36.3525 96.859 36.7045 96.859H54.8225C55.1745 96.859 55.4605 97.145 55.4605 97.497V98.754C55.4595 99.106 55.1745 99.392 54.8225 99.392Z" fill="#F2E5C0"/>
<path d="M31.0645 121.44H28.1045V119.4H36.4275V121.44H33.4835V130.125H31.0645V121.44Z" fill="#282F3A"/>
<path d="M44.1315 127.576H40.8415L40.1835 130.125H37.7165L41.0885 119.4H43.9835L47.3555 130.125H44.7895L44.1315 127.576ZM43.6375 125.684L43.3745 124.697C43.0785 123.628 42.7985 122.361 42.5025 121.243H42.4365C42.1905 122.378 41.8925 123.628 41.5965 124.697L41.3345 125.684H43.6375Z" fill="#282F3A"/>
<path d="M51.9195 124.615L49.1225 119.4H51.8365L52.7585 121.423C53.0045 121.917 53.2355 122.476 53.5485 123.151H53.6145C53.8605 122.476 54.0755 121.917 54.2885 121.423L55.1445 119.4H57.7265L54.9455 124.73L57.9065 130.125H55.2085L54.1555 127.937C53.8755 127.378 53.6295 126.835 53.3495 126.177H53.2835C53.0205 126.835 52.7905 127.378 52.5425 127.937L51.5395 130.125H48.9575L51.9195 124.615Z" fill="#282F3A"/>
<path d="M60.9865 119.4H63.4215V130.125H60.9865V119.4Z" fill="#282F3A"/>
<path d="M15.6975 9.45302C15.3235 9.60302 14.9485 9.75402 14.5745 9.90402C17.5005 8.72702 20.4315 7.55602 23.3665 6.39102C24.0115 6.13502 24.3275 5.40602 24.0705 4.76202C24.0675 4.75402 24.0645 4.74602 24.0615 4.73802C24.0335 4.66702 23.9805 4.61702 23.9415 4.55402C20.3395 5.63402 17.2015 6.91802 15.2535 8.35002C15.4015 8.71802 15.5495 9.08502 15.6975 9.45302Z" fill="white"/>
<path d="M14.5745 9.90401C14.9485 9.75301 15.3225 9.60301 15.6975 9.45301C15.5495 9.08501 15.4015 8.71801 15.2535 8.35101C14.8695 8.63301 14.5295 8.92101 14.2435 9.21401C14.0275 9.43601 13.8265 9.66601 13.6265 9.89701C13.9185 10.018 14.2575 10.032 14.5745 9.90401Z" fill="#EC9100"/>
<path d="M68.2884 6.14903C71.1624 7.45903 74.0305 8.77503 76.8945 10.097C76.5285 9.92803 76.1625 9.75903 75.7955 9.59003C75.9775 9.19503 76.1605 8.80003 76.3425 8.40503C74.4115 6.95903 71.2674 5.66303 67.6464 4.57303C67.4184 5.18403 67.6844 5.87403 68.2884 6.14903Z" fill="white"/>
<path d="M76.3425 8.40503C76.1605 8.80003 75.9775 9.19503 75.7955 9.59003C76.1615 9.75903 76.5285 9.92803 76.8945 10.097C77.2725 10.271 77.6805 10.223 78.0185 10.036C77.7825 9.75403 77.5405 9.47803 77.2835 9.21403C77.0155 8.93903 76.6965 8.67003 76.3425 8.40503Z" fill="#EC9100"/>
<path d="M7.87045 104.782H7.85745C7.49345 104.782 7.19946 104.487 7.19946 104.124V100.204C7.19946 99.84 7.49445 99.546 7.85745 99.546H7.87045C8.23345 99.546 8.52847 99.841 8.52847 100.204V104.124C8.52847 104.487 8.23345 104.782 7.87045 104.782Z" fill="#282F3A"/>
<path d="M7.87045 119.354H7.85745C7.49345 119.354 7.19946 119.059 7.19946 118.696V114.776C7.19946 114.412 7.49445 114.118 7.85745 114.118H7.87045C8.23345 114.118 8.52847 114.413 8.52847 114.776V118.696C8.52847 119.06 8.23345 119.354 7.87045 119.354Z" fill="#282F3A"/>
<path d="M83.6695 104.782H83.6565C83.2935 104.782 82.9985 104.487 82.9985 104.124V100.204C82.9985 99.84 83.2935 99.546 83.6565 99.546H83.6695C84.0335 99.546 84.3275 99.841 84.3275 100.204V104.124C84.3275 104.487 84.0335 104.782 83.6695 104.782Z" fill="#282F3A"/>
<path d="M83.6695 119.354H83.6565C83.2935 119.354 82.9985 119.059 82.9985 118.696V114.776C82.9985 114.412 83.2935 114.118 83.6565 114.118H83.6695C84.0335 114.118 84.3275 114.413 84.3275 114.776V118.696C84.3275 119.06 84.0335 119.354 83.6695 119.354Z" fill="#282F3A"/>
</svg>
